<svg width="563" height="540" viewBox="0 0 563 540" fill="none" xmlns="http://www.w3.org/2000/svg">
<mask id="mask0" mask-type="alpha" maskUnits="userSpaceOnUse" x="0" y="0" width="563" height="540">
<path d="M562.825 271.949C565.327 204.186 540.999 135.605 487.374 102.966C460.905 86.8517 451.095 54.0287 420.129 55.4193C386.908 56.908 376.89 34.754 339.414 16.6718C254.272 -7.22233 225.489 -5.93084 198.771 23.7755C163.921 62.5228 161.715 97.2566 138.597 90.8108C47.516 65.4364 -31.7938 168.848 12.7741 251.057C23.7117 271.213 40.5677 287.377 54.7424 305.422C68.9171 323.467 80.803 345.258 78.8901 368.113C77.2552 387.042 66.5301 403.893 62.0668 422.347C53.5325 457.701 70.4703 496.589 99.7516 518.135C129.033 539.681 168.533 544.704 203.847 535.836C239.161 526.969 270.224 505.276 294.699 478.413C307.778 464.016 320.596 447.198 339.414 442.306C357.48 437.627 376.102 445.251 394.429 448.752C411.373 451.888 428.778 451.533 445.581 447.707C462.383 443.881 478.228 436.666 492.148 426.502C536.372 393.766 560.569 333.185 562.825 271.949Z" fill="#2883EE"/>
</mask>
<g mask="url(#mask0)">
<path d="M562.825 271.949C565.327 204.186 540.999 135.605 487.374 102.966C460.905 86.8517 451.095 54.0287 420.129 55.4193C386.908 56.908 376.89 34.754 339.414 16.6718C254.272 -7.22233 225.489 -5.93084 198.771 23.7755C163.921 62.5228 161.715 97.2566 138.597 90.8108C47.516 65.4364 -31.7938 168.848 12.7741 251.057C23.7117 271.213 40.5677 287.377 54.7424 305.422C68.9171 323.467 80.803 345.258 78.8901 368.113C77.2552 387.042 66.5301 403.893 62.0668 422.347C53.5325 457.701 70.4703 496.589 99.7516 518.135C129.033 539.681 168.533 544.704 203.847 535.836C239.161 526.969 270.224 505.276 294.699 478.413C307.778 464.016 320.596 447.198 339.414 442.306C357.48 437.627 376.102 445.251 394.429 448.752C411.373 451.888 428.778 451.533 445.581 447.707C462.383 443.881 478.228 436.666 492.148 426.502C536.372 393.766 560.569 333.185 562.825 271.949Z" fill="#2883EE"/>
<path opacity="0.7" d="M562.825 271.949C565.327 204.186 540.999 135.605 487.374 102.966C460.905 86.8517 451.095 54.0287 420.129 55.4193C386.908 56.908 376.89 34.754 339.414 16.6718C254.272 -7.22233 225.489 -5.93084 198.771 23.7755C163.921 62.5228 161.715 97.2566 138.597 90.8108C47.516 65.4364 -31.7938 168.848 12.7741 251.057C23.7117 271.213 40.5677 287.377 54.7424 305.422C68.9171 323.467 80.803 345.258 78.8901 368.113C77.2552 387.042 66.5301 403.893 62.0668 422.347C53.5325 457.701 70.4703 496.589 99.7516 518.135C129.033 539.681 168.533 544.704 203.847 535.836C239.161 526.969 270.224 505.276 294.699 478.413C307.778 464.016 320.596 447.198 339.414 442.306C357.48 437.627 376.102 445.251 394.429 448.752C411.373 451.888 428.778 451.533 445.581 447.707C462.383 443.881 478.228 436.666 492.148 426.502C536.372 393.766 560.569 333.185 562.825 271.949Z" fill="white"/>
<path d="M480.738 98.2804H354.906C350.607 98.2804 347.123 101.767 347.123 106.069V244.874C347.123 249.176 350.607 252.663 354.906 252.663H480.738C485.036 252.663 488.521 249.176 488.521 244.874V106.069C488.521 101.767 485.036 98.2804 480.738 98.2804Z" fill="white" stroke="#263238" stroke-linecap="round" stroke-linejoin="round"/>
<path d="M354.906 98.2805H480.725C482.779 98.2805 484.749 99.097 486.201 100.55C487.653 102.004 488.469 103.975 488.469 106.03V114.115H347.123V106.069C347.118 105.045 347.315 104.029 347.705 103.082C348.094 102.135 348.667 101.274 349.391 100.55C350.115 99.8259 350.975 99.2525 351.921 98.8629C352.868 98.4733 353.882 98.2754 354.906 98.2805Z" fill="#263238" stroke="#263238" stroke-linecap="round" stroke-linejoin="round"/>
<path d="M354.828 180.709H411.723" stroke="#263238" stroke-linecap="round" stroke-linejoin="round"/>
<path d="M354.828 188.058H411.723" stroke="#263238" stroke-linecap="round" stroke-linejoin="round"/>
<path d="M354.828 195.407H411.723" stroke="#263238" stroke-linecap="round" stroke-linejoin="round"/>
<path d="M354.828 202.756H411.723" stroke="#263238" stroke-linecap="round" stroke-linejoin="round"/>
<path d="M354.828 210.105H411.723" stroke="#263238" stroke-linecap="round" stroke-linejoin="round"/>
<path d="M354.828 217.467H411.723" stroke="#263238" stroke-linecap="round" stroke-linejoin="round"/>
<path d="M354.828 224.816H411.723" stroke="#263238" stroke-linecap="round" stroke-linejoin="round"/>
<path d="M354.828 232.165H411.723" stroke="#263238" stroke-linecap="round" stroke-linejoin="round"/>
<path d="M354.828 239.514H411.723" stroke="#263238" stroke-linecap="round" stroke-linejoin="round"/>
<path d="M421.726 180.709H478.621" stroke="#263238" stroke-linecap="round" stroke-linejoin="round"/>
<path d="M421.726 188.058H478.621" stroke="#263238" stroke-linecap="round" stroke-linejoin="round"/>
<path d="M421.726 195.407H478.621" stroke="#263238" stroke-linecap="round" stroke-linejoin="round"/>
<path d="M421.726 202.756H478.621" stroke="#263238" stroke-linecap="round" stroke-linejoin="round"/>
<path d="M421.726 210.105H478.621" stroke="#263238" stroke-linecap="round" stroke-linejoin="round"/>
<path d="M421.726 217.467H478.621" stroke="#263238" stroke-linecap="round" stroke-linejoin="round"/>
<path d="M421.726 224.816H478.621" stroke="#263238" stroke-linecap="round" stroke-linejoin="round"/>
<path d="M421.726 232.165H478.621" stroke="#263238" stroke-linecap="round" stroke-linejoin="round"/>
<path d="M421.726 239.515H478.621" stroke="#263238" stroke-linecap="round" stroke-linejoin="round"/>
<path d="M392.879 134.173C393.159 133.301 393.307 132.391 393.318 131.474C393.318 128.129 389.923 127.935 386.593 127.935H385.754V127.147H400.288V127.935C396.506 127.935 395.125 130.35 393.95 133.928L386.206 157.06C385.625 158.778 385.135 160.057 383.315 160.057H383.16L376.345 137.958L370.007 157.112C369.414 158.83 368.923 160.108 367.103 160.108H366.961L357.048 127.935H353.563V127.147H366.316V127.935H362.689L370.046 153.276H370.343L375.893 136.447L373.312 128H369.827V127.147H382.592V127.935H378.965L386.322 153.276H386.606L392.879 134.173Z" fill="#2883EE"/>
<path d="M479.02 119.824H420.473V172.779H479.02V119.824Z" fill="#2883EE" stroke="#263238" stroke-width="2" stroke-linecap="round" stroke-linejoin="round"/>
<path d="M479.021 141.962C477.058 142.073 475.106 142.346 473.187 142.775C464.294 144.713 461.971 157.486 451.916 157.486C443.01 157.486 442.249 145.488 429.483 143.938C426.377 143.448 423.197 144.012 420.448 145.539V172.779H479.021V141.962Z" fill="#263238" stroke="#263238" stroke-linecap="round" stroke-linejoin="round"/>
<path d="M439.926 131.939C439.928 133.243 439.544 134.518 438.822 135.603C438.099 136.689 437.071 137.535 435.868 138.035C434.665 138.535 433.34 138.667 432.062 138.413C430.784 138.159 429.61 137.532 428.688 136.61C427.767 135.688 427.14 134.513 426.886 133.234C426.633 131.955 426.764 130.629 427.264 129.425C427.764 128.221 428.609 127.192 429.694 126.469C430.778 125.747 432.053 125.362 433.356 125.365C435.098 125.365 436.769 126.057 438.001 127.29C439.233 128.523 439.926 130.195 439.926 131.939Z" fill="white" stroke="#263238" stroke-linecap="round" stroke-linejoin="round"/>
<path d="M481.693 102.917H351.369V107.941H481.693V102.917Z" fill="white" stroke="#263238" stroke-linecap="round" stroke-linejoin="round"/>
<path d="M473.561 283.467H417.144C414.926 283.467 412.798 284.349 411.23 285.918C409.661 287.488 408.78 289.617 408.78 291.836V322.033C408.78 324.253 409.661 326.382 411.23 327.951C412.798 329.521 414.926 330.403 417.144 330.403H418.873C417.118 334.277 413.71 340.219 408.328 343.745C408.328 343.745 419.777 342.944 431.703 330.403H473.535C475.754 330.403 477.881 329.521 479.449 327.951C481.018 326.382 481.899 324.253 481.899 322.033V291.836C481.899 289.621 481.022 287.496 479.459 285.927C477.896 284.358 475.775 283.474 473.561 283.467Z" fill="#263238" stroke="#263238" stroke-linecap="round" stroke-linejoin="round"/>
<path d="M435.653 305.863C435.655 305.008 435.404 304.173 434.932 303.461C434.459 302.75 433.786 302.195 432.997 301.867C432.209 301.539 431.341 301.452 430.504 301.618C429.666 301.784 428.897 302.195 428.293 302.8C427.69 303.404 427.279 304.173 427.113 305.011C426.947 305.849 427.034 306.718 427.361 307.507C427.689 308.295 428.244 308.969 428.955 309.442C429.666 309.915 430.501 310.166 431.355 310.164C432.494 310.16 433.585 309.706 434.39 308.9C435.195 308.094 435.649 307.002 435.653 305.863Z" fill="#2883EE" stroke="#263238" stroke-linecap="round" stroke-linejoin="round"/>
<path d="M450.276 305.863C450.276 305.012 450.024 304.181 449.552 303.473C449.08 302.766 448.408 302.215 447.623 301.889C446.838 301.564 445.973 301.479 445.14 301.645C444.306 301.81 443.54 302.22 442.939 302.822C442.338 303.423 441.929 304.189 441.763 305.024C441.597 305.858 441.682 306.723 442.007 307.509C442.333 308.295 442.884 308.966 443.59 309.439C444.297 309.912 445.128 310.164 445.978 310.164C447.117 310.16 448.208 309.706 449.014 308.9C449.819 308.094 450.273 307.002 450.276 305.863Z" fill="#2883EE" stroke="#263238" stroke-linecap="round" stroke-linejoin="round"/>
<path d="M464.914 305.863C464.916 305.009 464.665 304.174 464.193 303.463C463.721 302.752 463.049 302.197 462.261 301.868C461.474 301.54 460.606 301.452 459.769 301.617C458.932 301.782 458.163 302.192 457.559 302.795C456.955 303.398 456.543 304.166 456.375 305.004C456.208 305.841 456.293 306.709 456.618 307.498C456.944 308.287 457.497 308.961 458.206 309.436C458.915 309.91 459.749 310.164 460.602 310.164C461.743 310.16 462.835 309.707 463.643 308.901C464.45 308.096 464.907 307.004 464.914 305.863Z" fill="#2883EE" stroke="#263238" stroke-linecap="round" stroke-linejoin="round"/>
<path d="M170.746 179.482H66.8039C64.7937 179.482 63.1641 181.113 63.1641 183.124V222.763C63.1641 224.774 64.7937 226.405 66.8039 226.405H170.746C172.756 226.405 174.385 224.774 174.385 222.763V183.124C174.385 181.113 172.756 179.482 170.746 179.482Z" fill="#263238" stroke="#263238" stroke-linecap="round" stroke-linejoin="round"/>
<path d="M76.4069 185.875L76.9491 186.779C74.4967 188.148 72.2121 190.551 72.2121 193.366C72.1807 193.85 72.2461 194.335 72.4045 194.793C72.5628 195.251 72.811 195.673 73.1343 196.034C73.4577 196.395 73.8498 196.687 74.2876 196.895C74.7255 197.102 75.2002 197.22 75.6841 197.241C76.0455 197.241 76.2908 197.06 76.2908 196.699C76.2908 196.337 76.1101 196.221 75.7487 196.156C75.2613 196.024 74.8367 195.723 74.5507 195.306C74.2646 194.89 74.1357 194.386 74.1869 193.883C74.1963 193.482 74.2871 193.087 74.4538 192.722C74.6206 192.357 74.8597 192.03 75.1567 191.761C75.4537 191.491 75.8024 191.285 76.1815 191.155C76.5606 191.025 76.9623 190.973 77.3621 191.003C77.797 191.004 78.2271 191.093 78.6271 191.264C79.0271 191.434 79.3889 191.684 79.6909 191.997C79.993 192.31 80.2292 192.68 80.3856 193.087C80.5421 193.493 80.6156 193.926 80.6018 194.361C80.5955 194.907 80.4791 195.447 80.2597 195.948C80.0403 196.448 79.7223 196.9 79.3248 197.275C78.9272 197.649 78.4582 197.94 77.9458 198.13C77.4334 198.319 76.8881 198.404 76.3424 198.378C75.664 198.422 74.984 198.322 74.3463 198.087C73.7087 197.851 73.1277 197.483 72.6409 197.009C72.1542 196.534 71.7726 195.962 71.5208 195.33C71.2691 194.698 71.1528 194.02 71.1795 193.34C71.1408 190.073 73.6577 187.438 76.4069 185.875ZM87.4942 185.875L88.0363 186.779C85.5711 188.148 83.2994 190.551 83.2994 193.366C83.2662 193.85 83.3304 194.336 83.488 194.795C83.6457 195.254 83.8938 195.676 84.2175 196.038C84.5412 196.399 84.934 196.691 85.3726 196.898C85.8113 197.105 86.287 197.221 86.7714 197.241C87.1328 197.241 87.3781 197.06 87.3781 196.699C87.3781 196.337 87.1974 196.221 86.836 196.156C86.3486 196.024 85.924 195.723 85.6379 195.306C85.3519 194.89 85.223 194.386 85.2742 193.883C85.2817 193.481 85.3713 193.085 85.5374 192.72C85.7035 192.354 85.9426 192.026 86.24 191.756C86.5374 191.487 86.8869 191.281 87.2668 191.151C87.6468 191.021 88.0492 190.971 88.4494 191.003C88.8842 191.004 89.3144 191.093 89.7144 191.264C90.1144 191.434 90.4761 191.684 90.7782 191.997C91.0802 192.31 91.3165 192.68 91.4729 193.087C91.6294 193.493 91.7029 193.926 91.6891 194.361C91.681 194.907 91.5634 195.446 91.3434 195.946C91.1234 196.445 90.8054 196.896 90.4082 197.27C90.011 197.645 89.5427 197.936 89.0311 198.126C88.5195 198.316 87.9749 198.402 87.4297 198.378C86.7518 198.42 86.0726 198.319 85.4359 198.082C84.7991 197.846 84.219 197.478 83.7326 197.004C83.2463 196.53 82.8647 195.958 82.6122 195.327C82.3598 194.697 82.2421 194.02 82.2668 193.34C82.2152 190.073 84.7321 187.438 87.4942 185.875Z" fill="#2883EE"/>
<path d="M98.104 195.433H161.401" stroke="white" stroke-linecap="round" stroke-linejoin="round"/>
<path d="M98.104 200.87H161.401" stroke="white" stroke-linecap="round" stroke-linejoin="round"/>
<path d="M98.104 206.308H161.401" stroke="white" stroke-linecap="round" stroke-linejoin="round"/>
<path d="M98.104 211.758H161.401" stroke="white" stroke-linecap="round" stroke-linejoin="round"/>
<path d="M150.207 299.16C163.272 297.028 172.134 284.701 170 271.628C167.866 258.555 155.545 249.686 142.48 251.818C129.415 253.951 120.554 266.277 122.688 279.351C124.822 292.424 137.143 301.293 150.207 299.16Z" fill="#263238" stroke="#263238" stroke-linecap="round" stroke-linejoin="round"/>
<path d="M161.557 288.864C168.931 280.468 168.102 267.684 159.707 260.311C151.311 252.938 138.528 253.768 131.154 262.164C123.78 270.56 124.609 283.344 133.004 290.717C141.4 298.09 154.183 297.26 161.557 288.864Z" fill="white" stroke="#263238" stroke-linecap="round" stroke-linejoin="round"/>
<path d="M146.351 260.851V275.485H156.238" stroke="#263238" stroke-width="2" stroke-linecap="round" stroke-linejoin="round"/>
<path d="M321.912 304.243C321.912 304.243 338.83 340.375 338.83 342.282C338.83 344.19 323.818 352.36 320.959 354.077C318.741 355.341 316.455 356.482 314.112 357.495L315.828 374.233C315.828 374.233 341.674 368.336 352.507 362.439C363.341 356.541 362.96 349.881 360.45 339.993C357.94 330.106 341.245 291.892 341.245 291.892L321.912 304.243Z" fill="white"/>
<g style="mix-blend-mode:multiply" opacity="0.5">
<path d="M352.46 362.439C363.294 356.541 362.912 349.881 360.402 339.993C357.892 330.106 341.197 291.892 341.197 291.892L338.496 293.608L337.638 295.198C337.638 295.198 353.222 333.476 354.159 346.225C354.795 354.793 337.559 365.475 326.169 371.579C334.62 369.338 346.121 365.888 352.46 362.439Z" fill="#BEDAFA"/>
</g>
<path d="M321.912 304.243C321.912 304.243 338.83 340.375 338.83 342.282C338.83 344.19 323.818 352.36 320.959 354.077C318.741 355.341 316.455 356.482 314.112 357.495L315.828 374.233C315.828 374.233 341.674 368.336 352.507 362.439C363.341 356.541 362.96 349.881 360.45 339.993C357.94 330.106 341.245 291.892 341.245 291.892L321.912 304.243Z" stroke="#263238" stroke-linecap="round" stroke-linejoin="round"/>
<path d="M199.848 296.263C199.848 296.263 187.505 341.519 187.139 349.515C186.774 357.511 211.651 373.28 212.556 374.234C213.462 375.187 211.142 346.733 211.142 346.733L219.578 305.403L199.848 296.263Z" fill="white"/>
<g style="mix-blend-mode:multiply" opacity="0.5">
<path d="M205.503 299.967L205.233 298.743L199.848 296.263C199.848 296.263 187.505 341.519 187.139 349.515C186.774 357.511 211.651 373.28 212.556 374.234C212.922 374.615 212.779 370.355 212.477 365.093C205.074 358.814 194.447 349.976 193.208 346.256" fill="#BEDAFA"/>
</g>
<path d="M199.848 296.263C199.848 296.263 187.505 341.519 187.139 349.515C186.774 357.511 211.651 373.28 212.556 374.234C213.462 375.187 211.142 346.733 211.142 346.733L219.578 305.403L199.848 296.263Z" stroke="#263238" stroke-linecap="round" stroke-linejoin="round"/>
<path d="M257.813 250.8C257.813 250.8 253.048 254.234 243.755 254.615C234.462 254.997 234.017 248.257 222.468 248.257C208.473 248.257 190.919 292.559 190.919 292.559C190.919 292.559 199.656 301.127 208.219 304.736C212.955 306.812 217.935 308.281 223.04 309.107L224.374 338.213H318.639L319.767 309.107L349.235 289.984C349.235 289.984 334.779 264.121 327.757 254.425C320.736 244.728 308.933 248.336 305.327 250.8C301.721 253.264 291.03 253.852 287.09 253.28C281.951 252.142 276.872 250.746 271.872 249.099C271.872 249.099 265.804 244.044 257.813 250.8Z" fill="#2883EE" stroke="#263238" stroke-linecap="round" stroke-linejoin="round"/>
<path d="M223.993 261.069L223.612 309.378" stroke="#263238" stroke-width="0.5" stroke-linecap="round" stroke-linejoin="round"/>
<path d="M227.408 265.456C227.408 265.456 228.743 289.03 233.763 302.161" stroke="#263238" stroke-width="0.5" stroke-linecap="round" stroke-linejoin="round"/>
<path d="M234.636 304.052C235.72 307.257 237.054 310.371 238.624 313.367" stroke="#263238" stroke-width="0.5" stroke-linecap="round" stroke-linejoin="round"/>
<path d="M230.443 262.786C232.246 271.358 234.792 279.756 238.052 287.886" stroke="#263238" stroke-width="0.5" stroke-linecap="round" stroke-linejoin="round"/>
<path d="M312.38 266.967C312.38 266.967 307.821 285.613 303.818 293.99" stroke="#263238" stroke-width="0.5" stroke-linecap="round" stroke-linejoin="round"/>
<path d="M319.767 309.187L319.577 271.529" stroke="#263238" stroke-width="0.5" stroke-linecap="round" stroke-linejoin="round"/>
<path d="M317.686 272.292C317.686 272.292 314.255 296.136 305.899 308.614" stroke="#263238" stroke-width="0.5" stroke-linecap="round" stroke-linejoin="round"/>
<path d="M313.508 303.861C313.508 303.861 309.696 311.094 307.043 314.893" stroke="#263238" stroke-width="0.5" stroke-linecap="round" stroke-linejoin="round"/>
<path d="M252.492 253.661C252.492 253.661 255.161 270.019 258.957 278.38C262.754 286.741 269.41 288.458 275.113 285.994C280.816 283.53 284.994 271.338 284.644 255.792" stroke="#263238" stroke-width="0.5" stroke-linecap="round" stroke-linejoin="round"/>
<g style="mix-blend-mode:multiply" opacity="0.5">
<path d="M239.005 219.421C239.005 219.421 235.383 213.158 232.54 216.385C229.696 219.612 234.827 227.036 237.671 229.5C240.514 231.963 242.611 230.453 242.436 227.799C242.262 225.144 239.005 219.421 239.005 219.421Z" fill="#D2E7FF"/>
</g>
<path opacity="0.5" d="M239.005 219.421C239.005 219.421 235.383 213.158 232.54 216.385C229.696 219.612 234.827 227.036 237.671 229.5C240.514 231.963 242.611 230.453 242.436 227.799C242.262 225.144 239.005 219.421 239.005 219.421Z" fill="white"/>
<path d="M239.005 219.421C239.005 219.421 235.383 213.158 232.54 216.385C229.696 219.612 234.827 227.036 237.671 229.5C240.514 231.963 242.611 230.453 242.436 227.799C242.262 225.144 239.005 219.421 239.005 219.421Z" stroke="#263238" stroke-linecap="round" stroke-linejoin="round"/>
<path d="M296.495 219.421C296.495 219.421 300.101 213.158 302.96 216.385C305.82 219.612 300.673 227.036 297.829 229.5C294.986 231.963 292.873 230.453 293.063 227.799C293.254 225.144 296.495 219.421 296.495 219.421Z" fill="#E8F3FF" stroke="#263238" stroke-linecap="round" stroke-linejoin="round"/>
<g style="mix-blend-mode:multiply" opacity="0.5">
<path d="M296.495 219.421C296.495 219.421 300.101 213.158 302.96 216.385C305.82 219.612 300.673 227.036 297.829 229.5C294.986 231.963 292.873 230.453 293.063 227.799C293.254 225.144 296.495 219.421 296.495 219.421Z" fill="#D2E7FF"/>
</g>
<path d="M296.495 219.421C296.495 219.421 300.101 213.158 302.96 216.385C305.82 219.612 300.673 227.036 297.829 229.5C294.986 231.963 292.873 230.453 293.063 227.799C293.254 225.144 296.495 219.421 296.495 219.421Z" stroke="#263238" stroke-linecap="round" stroke-linejoin="round"/>
<path d="M256.098 249.481C257.892 257.598 260.178 265.598 262.944 273.436C266.376 281.988 272.825 281.988 275.494 276.472C278.163 270.956 279.862 250.403 279.862 250.403C279.862 250.403 261.991 252.899 256.098 249.481Z" fill="white" stroke="#263238" stroke-linecap="round" stroke-linejoin="round"/>
<path d="M239.386 221.52C239.386 221.52 244.327 239.005 253.683 249.29C263.04 259.575 266.392 262.007 271.364 261.26C276.336 260.513 281.626 254.043 289.029 240.595C296.431 227.147 296.971 216.83 297.591 215.877C298.211 214.923 296.002 195.911 285.423 187.725C274.843 179.538 262.992 175.945 252.73 184.879C242.468 193.813 235.955 208.389 239.386 221.52Z" fill="white"/>
<g style="mix-blend-mode:multiply" opacity="0.5">
<path d="M285.375 187.661C274.732 179.49 262.945 175.882 252.683 184.815C242.42 193.749 235.955 208.389 239.386 221.52C239.386 221.52 240.324 224.89 242.182 229.468C242.177 228.882 242.257 228.298 242.421 227.735C244.692 220.534 251.396 206.593 273.953 212.983C291.872 218.038 289.68 233.807 288.012 242.216L288.981 240.468C296.4 226.972 296.924 216.703 297.543 215.749C298.163 214.796 296.018 195.847 285.375 187.661Z" fill="#D2E7FF"/>
</g>
<path d="M239.386 221.52C239.386 221.52 244.327 239.005 253.683 249.29C263.04 259.575 266.392 262.007 271.364 261.26C276.336 260.513 281.626 254.043 289.029 240.595C296.431 227.147 296.971 216.83 297.591 215.877C298.211 214.923 296.002 195.911 285.423 187.725C274.843 179.538 262.992 175.945 252.73 184.879C242.468 193.813 235.955 208.389 239.386 221.52Z" stroke="#263238" stroke-linecap="round" stroke-linejoin="round"/>
<path d="M271.316 230.644C270.727 234.357 270.408 238.108 270.363 241.867C270.553 245.666 271.697 246.81 269.982 247.192C268.266 247.573 266.375 244.903 266.375 244.903" stroke="#263238" stroke-linecap="round" stroke-linejoin="round"/>
<path d="M252.301 233.696C253.402 234.492 254.718 234.936 256.076 234.97C257.434 235.004 258.771 234.626 259.91 233.887" stroke="#263238" stroke-linecap="round" stroke-linejoin="round"/>
<path d="M276.447 233.696C277.546 234.49 278.859 234.934 280.214 234.968C281.57 235.002 282.903 234.625 284.041 233.887" stroke="#263238" stroke-linecap="round" stroke-linejoin="round"/>
<path d="M264.438 227.29C264.438 227.29 260.816 218.34 248.854 222.521" stroke="#263238" stroke-linecap="round" stroke-linejoin="round"/>
<path d="M274.398 226.193C274.398 226.193 277.432 217.434 288.266 222.569" stroke="#263238" stroke-linecap="round" stroke-linejoin="round"/>
<path d="M266.741 234.348C266.741 239.244 261.134 243.202 254.208 243.202C247.281 243.202 241.658 239.244 241.658 234.348C241.658 229.452 246.9 227.417 253.826 227.417C260.752 227.417 266.741 229.468 266.741 234.348Z" stroke="#263238" stroke-linecap="round" stroke-linejoin="round"/>
<path d="M295.637 234.348C295.637 239.244 290.014 243.202 283.087 243.202C276.161 243.202 270.554 239.244 270.554 234.348C270.554 229.452 275.78 227.417 282.706 227.417C289.632 227.417 295.637 229.468 295.637 234.348Z" stroke="#263238" stroke-linecap="round" stroke-linejoin="round"/>
<path d="M135.463 386.839L134.685 579.548C134.685 580.155 134.926 580.737 135.355 581.167C135.784 581.596 136.365 581.837 136.972 581.837C137.564 581.837 138.132 581.607 138.556 581.194C138.981 580.781 139.227 580.219 139.244 579.628L144.74 387.11L135.463 386.839Z" fill="white" stroke="#263238" stroke-linecap="round" stroke-linejoin="round"/>
<path d="M122.5 431.889L121.753 631.115C121.751 631.416 121.809 631.715 121.923 631.993C122.038 632.272 122.206 632.525 122.419 632.738C122.632 632.951 122.885 633.12 123.163 633.234C123.442 633.348 123.74 633.406 124.041 633.404C124.632 633.405 125.199 633.177 125.626 632.768C126.052 632.359 126.304 631.801 126.329 631.21L131.809 432.143L122.5 431.889Z" fill="white" stroke="#263238" stroke-linecap="round" stroke-linejoin="round"/>
<path d="M401.705 386.839L402.484 579.548C402.486 579.848 402.429 580.145 402.315 580.423C402.202 580.701 402.035 580.953 401.824 581.166C401.613 581.379 401.362 581.547 401.085 581.663C400.809 581.778 400.512 581.837 400.212 581.837C399.619 581.837 399.049 581.607 398.622 581.195C398.195 580.783 397.945 580.221 397.925 579.628L392.444 387.11L401.705 386.839Z" fill="white" stroke="#263238" stroke-linecap="round" stroke-linejoin="round"/>
<path d="M414.683 431.889L415.461 631.115C415.463 631.416 415.406 631.715 415.291 631.993C415.177 632.272 415.009 632.525 414.796 632.738C414.583 632.951 414.33 633.12 414.052 633.234C413.773 633.348 413.475 633.406 413.174 633.404C412.585 633.404 412.019 633.176 411.595 632.767C411.171 632.357 410.923 631.799 410.902 631.21L405.406 432.143L414.683 431.889Z" fill="white" stroke="#263238" stroke-linecap="round" stroke-linejoin="round"/>
<path d="M212.762 440.171L212.302 616.999C212.251 617.44 212.374 617.884 212.643 618.237C212.913 618.589 213.309 618.824 213.747 618.891C214.175 618.831 214.565 618.611 214.836 618.274C215.108 617.938 215.241 617.51 215.209 617.079L218.656 440.377L212.762 440.171Z" fill="white" stroke="#263238" stroke-linecap="round" stroke-linejoin="round"/>
<path d="M324.613 434.48L325.041 588.8C325.078 589.173 324.97 589.546 324.739 589.842C324.509 590.138 324.173 590.334 323.802 590.389C323.433 590.334 323.099 590.137 322.871 589.841C322.643 589.545 322.538 589.171 322.579 588.8L319.64 434.607L324.613 434.48Z" fill="white" stroke="#263238" stroke-linecap="round" stroke-linejoin="round"/>
<path d="M211.031 434.48L211.46 588.8C211.496 589.173 211.388 589.546 211.158 589.842C210.927 590.138 210.592 590.334 210.221 590.389C209.851 590.334 209.517 590.137 209.289 589.841C209.061 589.545 208.956 589.171 208.997 588.8L206.059 434.607L211.031 434.48Z" fill="white" stroke="#263238" stroke-linecap="round" stroke-linejoin="round"/>
<path d="M321.42 440.171L321.912 616.999C321.962 617.44 321.84 617.884 321.57 618.237C321.301 618.589 320.905 618.824 320.466 618.891C320.04 618.828 319.653 618.606 319.382 618.271C319.111 617.935 318.976 617.509 319.005 617.079L315.558 440.377L321.42 440.171Z" fill="white" stroke="#263238" stroke-linecap="round" stroke-linejoin="round"/>
<path d="M266.312 452.554C305.354 452.554 337.003 445.316 337.003 436.388C337.003 427.459 305.354 420.221 266.312 420.221C227.271 420.221 195.622 427.459 195.622 436.388C195.622 445.316 227.271 452.554 266.312 452.554Z" fill="white" stroke="#263238" stroke-linecap="round" stroke-linejoin="round"/>
<path d="M205.423 541.302C205.423 541.302 203.294 544.751 204.359 547.136C205.423 549.52 208.33 556.403 210.189 559.853C212.047 563.302 220.514 565.416 230.3 563.827C240.085 562.237 245.661 557.723 245.931 553.749C246.201 549.775 244.343 544.481 243.008 538.123C241.674 531.764 238.242 532.034 233.477 532.034C228.711 532.034 209.394 537.598 205.423 541.302Z" fill="#2883EE" stroke="#263238" stroke-linecap="round" stroke-linejoin="round"/>
<path d="M234.017 463.411C234.16 456.893 237.925 453.682 238.211 449.216C238.659 443.31 238.171 437.371 236.765 431.619L229.521 421.715C208.68 421.985 193.747 422.335 193.509 422.415C192.715 422.669 192.175 427.184 191.65 430.887C191.65 430.887 182.802 432.016 184.391 456.655C184.613 460.088 193.541 499.813 194.192 504.343C198.163 532.018 207.012 545.88 207.012 545.88C207.012 545.88 207.806 549.329 218.132 548.534C228.457 547.74 238.783 540.857 238.783 540.857C238.783 540.857 233.477 486.985 234.017 463.411Z" fill="#263238" stroke="#263238" stroke-linecap="round" stroke-linejoin="round"/>
<path d="M190.221 426.85C190.221 426.85 179.275 428.439 172.572 436.101C165.868 443.763 171.555 448.818 184.581 447.451C197.607 446.084 212.635 432.747 213.27 432.032C213.906 431.317 199.688 422.256 190.221 426.85Z" fill="white" stroke="#263238" stroke-linecap="round" stroke-linejoin="round"/>
<path d="M209.649 431.619C216.622 431.978 223.541 433.043 230.3 434.798C239.307 437.453 255.193 442.746 258.894 442.746C262.595 442.746 261.547 428.964 261.547 426.325C261.547 423.687 213.89 422.081 208.06 422.081C202.23 422.081 209.649 431.619 209.649 431.619Z" fill="white" stroke="#263238" stroke-linecap="round" stroke-linejoin="round"/>
<path d="M261.547 426.325C261.547 426.325 257.305 428.439 255.717 436.387C254.128 444.336 252.015 448.58 255.193 450.694C258.37 452.808 272.142 454.398 274.255 452.284C276.368 450.169 282.198 439.567 283.262 432.684C284.327 425.801 261.547 426.325 261.547 426.325Z" fill="#2883EE" stroke="#263238" stroke-linecap="round" stroke-linejoin="round"/>
<path d="M279.545 428.964C277.083 431.792 275.117 435.017 273.731 438.502C272.608 442.15 271.722 445.867 271.078 449.629C276.146 451.019 281.101 452.794 285.899 454.938C294.382 458.642 308.679 461.297 322.436 464.476C336.193 467.655 339.91 470.834 344.676 470.834C349.442 470.834 355.272 467.115 362.69 458.118C370.109 449.12 363.739 430.029 356.336 424.195C348.933 418.361 309.203 413.608 303.914 415.198C298.624 416.788 279.545 428.964 279.545 428.964Z" fill="#263238" stroke="#263238" stroke-linecap="round" stroke-linejoin="round"/>
<path d="M180.197 447.594C179.15 442.839 177.031 438.385 174.001 434.575C173.509 435.036 173.032 435.513 172.572 436.038C166.678 442.746 170.364 447.515 180.197 447.594Z" fill="#2883EE" stroke="#263238" stroke-linecap="round" stroke-linejoin="round"/>
<path d="M233.207 451.791C233.207 451.791 227.742 510.304 216.591 519.413" stroke="white" stroke-width="0.5" stroke-linecap="round" stroke-linejoin="round"/>
<path d="M229.347 507.332C229.347 507.332 225.01 526.407 213.636 533.99" stroke="white" stroke-width="0.5" stroke-linecap="round" stroke-linejoin="round"/>
<path d="M299.672 441.156C299.672 441.156 282.722 442.221 293.842 449.629C304.962 457.037 325.089 461.821 325.089 461.821" stroke="white" stroke-width="0.5" stroke-linecap="round" stroke-linejoin="round"/>
<path d="M422.721 421.111L417.003 415.961L403.786 387.348C403.159 386.046 402.175 384.95 400.948 384.187C399.722 383.424 398.304 383.026 396.86 383.04H140.149C138.702 383.023 137.281 383.42 136.051 384.183C134.822 384.946 133.835 386.044 133.207 387.348L116.734 422.987L114.017 421.986V430.14L114.144 430.045C114.306 431.133 114.858 432.125 115.697 432.836C116.536 433.546 117.605 433.927 118.704 433.908H418.289C419.447 433.934 420.569 433.51 421.42 432.724C422.271 431.938 422.783 430.852 422.849 429.695L422.721 421.111Z" fill="#263238" stroke="#263238" stroke-linecap="round" stroke-linejoin="round"/>
<path d="M418.289 426.452H118.704C117.962 426.482 117.224 426.322 116.561 425.989C115.898 425.655 115.33 425.159 114.91 424.545C114.491 423.932 114.235 423.222 114.165 422.483C114.095 421.743 114.213 420.998 114.51 420.316L133.207 379.893C133.832 378.586 134.818 377.486 136.048 376.722C137.279 375.959 138.702 375.564 140.149 375.585H396.86C398.305 375.567 399.724 375.964 400.951 376.727C402.179 377.49 403.162 378.588 403.786 379.893L422.483 420.316C422.78 420.998 422.899 421.743 422.828 422.483C422.758 423.222 422.502 423.932 422.083 424.545C421.663 425.159 421.095 425.655 420.432 425.989C419.769 426.322 419.031 426.482 418.289 426.452Z" fill="white" stroke="#263238" stroke-linecap="round" stroke-linejoin="round"/>
<g style="mix-blend-mode:multiply" opacity="0.5">
<path d="M133.874 399.302C133.874 399.302 127.091 403.959 131.332 405.66C135.574 407.361 184.327 406.089 190.268 404.389C196.209 402.688 202.976 386.998 202.976 384.455C202.976 381.911 194.43 380.083 191.284 379.94C188.139 379.797 146.582 382.325 146.582 382.325L133.874 399.302Z" fill="#BEDAFA"/>
</g>
<g style="mix-blend-mode:multiply" opacity="0.5">
<path d="M376.383 407.361C385.982 407.361 393.762 404.13 393.762 400.144C393.762 396.158 385.982 392.927 376.383 392.927C366.785 392.927 359.005 396.158 359.005 400.144C359.005 404.13 366.785 407.361 376.383 407.361Z" fill="#BEDAFA"/>
</g>
<g style="mix-blend-mode:multiply" opacity="0.5">
<path d="M265.74 416.279C300.158 416.279 328.06 411.055 328.06 404.611C328.06 398.167 300.158 392.943 265.74 392.943C231.323 392.943 203.421 398.167 203.421 404.611C203.421 411.055 231.323 416.279 265.74 416.279Z" fill="#BEDAFA"/>
</g>
<path d="M363.675 371.754C363.675 371.754 362.531 367.192 358.735 368.718C354.938 370.244 355.319 380.322 356.066 386.028C356.812 391.735 361.959 389.065 361.959 389.065V385.647C361.959 385.647 360.069 387.157 359.116 385.075C358.163 382.992 358.353 372.517 359.306 372.708C360.26 372.898 362.15 376.125 362.15 376.125C362.15 376.125 362.722 375.76 363.675 371.754Z" fill="#2883EE" stroke="#263238" stroke-linecap="round" stroke-linejoin="round"/>
<path d="M360.942 372.517V397.506C360.942 400.446 367.694 402.831 376.034 402.831C384.374 402.831 391.109 400.446 391.109 397.506V372.517H360.942Z" fill="#2883EE" stroke="#263238" stroke-linecap="round" stroke-linejoin="round"/>
<path d="M391.109 372.517C391.109 375.06 384.358 377.111 376.034 377.111C367.71 377.111 360.942 375.06 360.942 372.517C360.942 369.973 367.694 367.923 376.034 367.923C384.374 367.923 391.109 369.989 391.109 372.517Z" fill="white" stroke="#263238" stroke-linecap="round" stroke-linejoin="round"/>
<path d="M389.139 372.517C389.139 374.726 383.262 376.507 376.034 376.507C368.806 376.507 362.912 374.726 362.912 372.517C362.912 370.307 368.79 368.527 376.034 368.527C383.278 368.527 389.139 370.307 389.139 372.517Z" fill="white" stroke="#263238" stroke-linecap="round" stroke-linejoin="round"/>
<path d="M365.915 375.06C372.518 376.989 379.534 376.989 386.137 375.06C379.534 373.132 372.518 373.132 365.915 375.06Z" fill="#263238" stroke="#263238" stroke-linecap="round" stroke-linejoin="round"/>
<path d="M132 383.93L132.191 392.482L189.776 393.055V383.167L132 383.93Z" fill="white" stroke="#263238" stroke-linecap="round" stroke-linejoin="round"/>
<path d="M189.776 393.055L198.147 374.997V369.671L189.395 384.884L189.776 393.055Z" fill="white" stroke="#263238" stroke-linecap="round" stroke-linejoin="round"/>
<path d="M132 391.719L132.191 400.287L189.776 400.86V390.972L132 391.719Z" fill="white" stroke="#263238" stroke-linecap="round" stroke-linejoin="round"/>
<path d="M189.776 400.86L198.147 382.786V377.461L189.395 392.673L189.776 400.86Z" fill="white" stroke="#263238" stroke-linecap="round" stroke-linejoin="round"/>
<path d="M154.239 362.248C154.239 362.248 155.573 359.593 153.667 358.449C151.761 357.304 149.68 360.038 148.536 360.913C147.392 361.787 123.453 377.651 122.69 380.131C121.928 382.611 122.69 388.079 127.821 388.683C132.952 389.287 137.512 385.838 139.799 385.266C142.087 384.693 142.976 384.503 142.976 384.503L158.751 363.202L154.239 362.248Z" fill="white" stroke="#263238" stroke-linecap="round" stroke-linejoin="round"/>
<path d="M127.822 388.699C132.953 389.271 137.512 385.854 139.8 385.281C142.087 384.709 142.977 384.518 142.977 384.518L143.549 383.74L128.727 380.719C127.922 379.96 126.886 379.491 125.784 379.387C124.682 379.284 123.576 379.551 122.643 380.147C121.928 382.595 122.691 388.111 127.822 388.699Z" fill="white" stroke="#263238" stroke-linecap="round" stroke-linejoin="round"/>
<path d="M128.775 380.751H173.254C187.138 380.751 191.316 379.988 191.316 379.988L199.863 362.296C199.863 362.296 172.857 364.013 164.517 363.44C161.071 363.341 157.639 362.958 154.255 362.296L128.775 380.751Z" fill="white" stroke="#263238" stroke-linecap="round" stroke-linejoin="round"/>
<path d="M128.775 380.751L129.537 384.169C129.537 384.169 165.645 384.359 175.145 384.359C184.644 384.359 191.872 384.741 191.872 384.741L191.3 379.972L128.775 380.751Z" fill="white" stroke="#263238" stroke-linecap="round" stroke-linejoin="round"/>
<path d="M191.872 384.693L199.847 366.429V362.248L191.301 379.94L191.872 384.693Z" fill="white" stroke="#263238" stroke-linecap="round" stroke-linejoin="round"/>
<path d="M320.164 406.058H211.269C211.028 406.06 210.788 406.014 210.565 405.923C210.341 405.832 210.138 405.698 209.967 405.528C209.795 405.358 209.659 405.156 209.567 404.933C209.474 404.71 209.426 404.471 209.426 404.23C209.426 403.988 209.474 403.749 209.567 403.526C209.659 403.304 209.795 403.101 209.967 402.931C210.138 402.761 210.341 402.627 210.565 402.536C210.788 402.445 211.028 402.399 211.269 402.402H320.164C320.405 402.399 320.643 402.445 320.866 402.536C321.088 402.628 321.291 402.762 321.461 402.932C321.631 403.102 321.765 403.305 321.856 403.528C321.947 403.75 321.993 403.989 321.991 404.23C321.993 404.47 321.947 404.709 321.856 404.932C321.765 405.154 321.631 405.357 321.461 405.527C321.291 405.697 321.088 405.832 320.866 405.923C320.643 406.014 320.405 406.06 320.164 406.058Z" fill="white" stroke="#263238" stroke-linecap="round" stroke-linejoin="round"/>
<path d="M321.086 402.37H210.332C209.927 402.37 209.536 402.216 209.241 401.938C208.946 401.661 208.768 401.28 208.743 400.875L202.723 328.469C202.696 328.244 202.717 328.017 202.784 327.802C202.852 327.586 202.964 327.388 203.115 327.219C203.265 327.051 203.45 326.916 203.656 326.825C203.862 326.733 204.086 326.687 204.311 326.688H327.123C327.348 326.687 327.572 326.733 327.778 326.825C327.984 326.916 328.169 327.051 328.319 327.219C328.469 327.388 328.582 327.586 328.65 327.802C328.717 328.017 328.738 328.244 328.711 328.469L322.69 400.875C322.666 401.283 322.486 401.666 322.187 401.944C321.888 402.222 321.494 402.375 321.086 402.37Z" fill="white" stroke="#263238" stroke-linecap="round" stroke-linejoin="round"/>
<path d="M276.161 365.777C276.161 370.101 271.475 373.598 265.709 373.598C259.942 373.598 255.24 370.101 255.24 365.777C255.24 361.453 259.926 357.972 265.709 357.972C271.491 357.972 276.161 361.469 276.161 365.777Z" fill="white" stroke="#263238" stroke-linecap="round" stroke-linejoin="round"/>
<path d="M384.389 309.218C386.088 307.892 387.282 306.024 387.773 303.925C388.13 302.351 388.092 300.712 387.662 299.156" stroke="#263238" stroke-linecap="round" stroke-linejoin="round"/>
<path d="M371.713 365.904C371.713 365.904 382.277 359.546 378.83 352.281C375.383 345.017 363.723 340.2 363.723 328.882C363.723 319.122 374.096 315.513 380.863 311.603" stroke="#263238" stroke-linecap="round" stroke-linejoin="round"/>
<path d="M381.467 365.697C381.467 365.697 387.361 361.771 387.361 355.54C387.361 351.359 382.897 348.625 377.003 341.901" stroke="#263238" stroke-linecap="round" stroke-linejoin="round"/>
<path d="M373.746 337.832C373.746 337.832 369.886 334.795 372.73 329.089" stroke="#263238" stroke-linecap="round" stroke-linejoin="round"/>
<path d="M284.311 171.32C286.201 170.922 290.252 169.364 292.984 163.022C293.027 162.926 293.049 162.822 293.051 162.718C293.053 162.613 293.034 162.509 292.996 162.411C292.958 162.314 292.9 162.225 292.828 162.15C292.755 162.074 292.668 162.014 292.571 161.973C292.377 161.892 292.159 161.89 291.964 161.967C291.768 162.044 291.61 162.194 291.523 162.386C289.013 168.204 285.423 169.492 283.93 169.778C286.602 166.542 288.077 162.483 288.108 158.285C288.108 147.253 277.893 138.319 265.296 138.319C252.699 138.319 242.484 147.253 242.484 158.285C242.493 162.313 243.833 166.226 246.297 169.412C243.898 169.285 239.847 170.302 234.716 176.295C234.57 176.446 234.488 176.649 234.488 176.859C234.488 177.07 234.57 177.272 234.716 177.424C234.864 177.546 235.049 177.614 235.24 177.614C235.356 177.615 235.47 177.589 235.574 177.539C235.679 177.49 235.771 177.418 235.844 177.328C242.405 169.682 246.742 170.97 247.615 171.32C246.132 172.136 244.742 173.111 243.469 174.229C236.146 180.825 231.682 193.304 232.254 203.7C232.897 210.595 235.395 217.187 239.482 222.775C244.801 218.966 249.211 214.026 252.397 208.31C254.771 204.111 256.893 199.774 258.751 195.323C258.751 199.98 259.355 205.608 261.801 209.629C263.566 212.806 266.151 215.45 269.287 217.284C272.422 219.119 275.993 220.076 279.625 220.057C280.879 220.075 282.131 219.952 283.358 219.691C283.466 219.664 283.567 219.615 283.654 219.547C283.742 219.478 283.814 219.392 283.866 219.294C289.998 220.598 296.098 220.486 297.035 219.183C298.544 217.1 300.689 210.599 301.404 202.651C302.706 189.171 294.224 177.471 284.311 171.32ZM263.278 208.66C260.197 203.62 260.292 195.402 260.657 190.681L260.864 190.141C261.01 194.996 262.247 199.757 264.483 204.069C266.719 208.381 269.896 212.134 273.779 215.05C275.924 216.533 278.303 217.646 280.816 218.34C276.924 218.611 268.918 217.863 263.278 208.66Z" fill="#263238"/>
<path d="M263.548 183.639C263.548 183.639 262.246 193.272 274.478 202.715C286.71 212.157 298.306 208.437 298.306 208.437" stroke="white" stroke-width="0.5" stroke-linecap="round" stroke-linejoin="round"/>
<path d="M265.344 180.46C265.344 180.46 278.227 199.233 296.019 194.337" stroke="white" stroke-width="0.5" stroke-linecap="round" stroke-linejoin="round"/>
<path d="M258.973 174.213C256.941 173.18 254.665 172.726 252.393 172.9C250.121 173.074 247.941 173.869 246.09 175.198C239.243 179.76 235.812 190.538 235.812 190.538" stroke="white" stroke-width="0.5" stroke-linecap="round" stroke-linejoin="round"/>
<path d="M259.307 179.443C259.307 179.443 253.763 177.964 250.331 181.398C248.659 182.914 247.229 184.678 246.09 186.628" stroke="white" stroke-width="0.5" stroke-linecap="round" stroke-linejoin="round"/>
</g>
</svg>
