<svg width="491" height="461" viewBox="0 0 491 461" fill="none" xmlns="http://www.w3.org/2000/svg">
<mask id="mask0" mask-type="alpha" maskUnits="userSpaceOnUse" x="0" y="0" width="491" height="461">
<path d="M450.566 152.551C453.282 122.542 459.78 94.1308 448.292 65.2724C427.208 12.3142 363.607 -15.8022 314.186 9.28255C288.913 22.0744 227.733 13.2664 199.9 20.1356C124.775 38.671 48.39 -32.5596 7.5011 82.4135C-6.53538 121.864 -0.875318 173.85 24.5052 206.827C32.6543 217.406 42.6103 226.616 48.6413 238.717C65.1428 271.835 41.7846 308.228 31.2542 339.12C6.24464 412.123 100.539 452.52 151.719 459.965C236.321 472.347 306.109 368.733 390.244 410.946C448.879 440.368 500.334 368.733 489.564 297.099C482.516 250.204 446.832 205.318 450.171 157.527C450.291 155.877 450.422 154.227 450.566 152.551Z" fill="#2883EE"/>
</mask>
<g mask="url(#mask0)">
<path d="M450.566 152.551C453.282 122.542 459.78 94.1308 448.292 65.2724C427.208 12.3142 363.607 -15.8022 314.186 9.28255C288.913 22.0744 267.302 40.7889 239.468 47.6581C164.344 66.1935 48.39 -32.5596 7.5011 82.4135C-6.53538 121.864 -0.875316 173.85 24.5052 206.827C32.6543 217.406 42.6103 226.616 48.6413 238.717C65.1428 271.835 41.7846 308.228 31.2542 339.12C6.24464 412.123 100.539 452.52 151.719 459.965C236.321 472.347 306.109 368.733 390.244 410.946C448.879 440.368 500.334 368.733 489.564 297.099C482.516 250.204 446.832 205.318 450.171 157.527C450.291 155.877 450.422 154.227 450.566 152.551Z" fill="#2883EE"/>
<path opacity="0.7" d="M450.566 152.551C453.282 122.542 459.78 94.1308 448.292 65.2724C427.208 12.3142 363.607 -15.8022 314.186 9.28255C288.913 22.0744 267.302 40.7889 239.468 47.6581C164.344 66.1935 48.39 -32.5596 7.5011 82.4135C-6.53538 121.864 -0.875316 173.85 24.5052 206.827C32.6543 217.406 42.6103 226.616 48.6413 238.717C65.1428 271.835 41.7846 308.228 31.2542 339.12C6.24464 412.123 100.539 452.52 151.719 459.965C236.321 472.347 306.109 368.733 390.244 410.946C448.879 440.368 500.334 368.733 489.564 297.099C482.516 250.204 446.832 205.318 450.171 157.527C450.291 155.877 450.422 154.227 450.566 152.551Z" fill="white"/>
<path d="M47.872 160.741C70.6754 160.741 89.1613 142.268 89.1613 119.479C89.1613 96.6912 70.6754 78.2177 47.872 78.2177C25.0686 78.2177 6.58276 96.6912 6.58276 119.479C6.58276 142.268 25.0686 160.741 47.872 160.741Z" fill="white" stroke="#263238" stroke-linecap="round" stroke-linejoin="round"/>
<path d="M44.799 156.643C67.6024 156.643 86.0883 138.169 86.0883 115.381C86.0883 92.5926 67.6024 74.119 44.799 74.119C21.9956 74.119 3.50977 92.5926 3.50977 115.381C3.50977 138.169 21.9956 156.643 44.799 156.643Z" fill="white" stroke="#263238" stroke-linecap="round" stroke-linejoin="round"/>
<path d="M44.7992 152.544C65.3374 152.544 81.987 135.905 81.987 115.381C81.987 94.8561 65.3374 78.2177 44.7992 78.2177C24.2609 78.2177 7.61133 94.8561 7.61133 115.381C7.61133 135.905 24.2609 152.544 44.7992 152.544Z" fill="#263238" stroke="#263238" stroke-linecap="round" stroke-linejoin="round"/>
<path d="M40.4346 87.4427C40.4346 87.4427 36.3332 77.19 29.1587 70.0203C21.9841 62.8505 -7.2639 58.2261 -7.2639 58.2261C-2.541 62.7784 1.75382 67.7544 5.5665 73.0913C12.2268 82.3164 34.2645 103.336 34.2645 103.336C34.2645 103.336 23.5028 94.1106 13.7454 93.0829C3.98811 92.0552 -20.6204 97.1816 -22.1271 97.1816C-23.6337 97.1816 -12.8959 101.28 -5.19526 104.865C2.50538 108.45 32.2437 111.533 32.2437 111.533C32.2437 111.533 19.4252 115.118 10.7202 118.201C2.01512 121.284 -6.23556 143.821 -6.23556 143.821C-6.23556 143.821 5.05233 133.568 14.7977 131.011C24.5431 128.454 38.3898 123.841 38.3898 123.841C38.3898 123.841 29.6728 133.58 27.6281 140.248C25.5834 146.916 27.1139 162.283 27.1139 162.283C27.1139 162.283 31.7295 147.943 37.3734 142.291C43.0174 136.639 49.1516 126.972 49.1516 126.972C51.9926 131.6 54.5637 136.387 56.8522 141.311C60.9536 150.023 63.5126 162.82 63.5126 162.82C63.5126 162.82 70.1848 148.481 69.6707 141.311C69.1565 134.142 61.4678 121.32 61.4678 121.32C61.4678 121.32 66.5976 117.735 74.2863 120.806C81.9749 123.877 95.3195 136.699 95.3195 136.699C95.3195 136.699 92.2345 119.778 87.1047 113.122C81.9749 106.466 59.9253 104.399 59.9253 104.399C59.9253 104.399 72.2415 97.2294 79.9302 95.6879C87.6189 94.1464 97.8665 97.7432 97.8665 97.7432C97.8665 97.7432 86.0764 81.3365 76.8452 80.3088C67.614 79.2812 53.7672 93.5967 53.7672 93.5967L57.8806 73.0913C58.8969 67.965 56.8522 55.167 56.8522 55.167C56.8522 55.167 51.2083 58.238 44.536 67.9769C42.5833 70.782 41.2141 73.9503 40.5096 77.2941C39.805 80.6378 39.7795 84.0889 40.4346 87.4427Z" fill="#C6FF00"/>
<path opacity="0.5" d="M40.4346 87.4427C40.4346 87.4427 36.3332 77.19 29.1587 70.0203C21.9841 62.8505 -7.2639 58.2261 -7.2639 58.2261C-2.541 62.7784 1.75382 67.7544 5.5665 73.0913C12.2268 82.3164 34.2645 103.336 34.2645 103.336C34.2645 103.336 23.5028 94.1106 13.7454 93.0829C3.98811 92.0552 -20.6204 97.1816 -22.1271 97.1816C-23.6337 97.1816 -12.8959 101.28 -5.19526 104.865C2.50538 108.45 32.2437 111.533 32.2437 111.533C32.2437 111.533 19.4252 115.118 10.7202 118.201C2.01512 121.284 -6.23556 143.821 -6.23556 143.821C-6.23556 143.821 5.05233 133.568 14.7977 131.011C24.5431 128.454 38.3898 123.841 38.3898 123.841C38.3898 123.841 29.6728 133.58 27.6281 140.248C25.5834 146.916 27.1139 162.283 27.1139 162.283C27.1139 162.283 31.7295 147.943 37.3734 142.291C43.0174 136.639 49.1516 126.972 49.1516 126.972C51.9926 131.6 54.5637 136.387 56.8522 141.311C60.9536 150.023 63.5126 162.82 63.5126 162.82C63.5126 162.82 70.1848 148.481 69.6707 141.311C69.1565 134.142 61.4678 121.32 61.4678 121.32C61.4678 121.32 66.5976 117.735 74.2863 120.806C81.9749 123.877 95.3195 136.699 95.3195 136.699C95.3195 136.699 92.2345 119.778 87.1047 113.122C81.9749 106.466 59.9253 104.399 59.9253 104.399C59.9253 104.399 72.2415 97.2294 79.9302 95.6879C87.6189 94.1464 97.8665 97.7432 97.8665 97.7432C97.8665 97.7432 86.0764 81.3365 76.8452 80.3088C67.614 79.2812 53.7672 93.5967 53.7672 93.5967L57.8806 73.0913C58.8969 67.965 56.8522 55.167 56.8522 55.167C56.8522 55.167 51.2083 58.238 44.536 67.9769C42.5833 70.782 41.2141 73.9503 40.5096 77.2941C39.805 80.6378 39.7795 84.0889 40.4346 87.4427Z" fill="black"/>
<path d="M50.5386 71.8367C50.8973 70.3669 51.2919 68.8971 51.7343 67.4512" stroke="#263238" stroke-width="0.5" stroke-linecap="round" stroke-linejoin="round"/>
<path d="M16.2805 71.8367C21.0635 75.3379 27.0423 80.2014 30.1751 84.3718C35.8191 92.0553 47.107 108.462 47.107 108.462C46.7836 97.4423 47.6577 86.4201 49.7137 75.5888" stroke="#263238" stroke-width="0.5" stroke-linecap="round" stroke-linejoin="round"/>
<path d="M9.15369 66.9371C9.15369 66.9371 10.6484 67.8931 12.8844 69.4346" stroke="#263238" stroke-width="0.5" stroke-linecap="round" stroke-linejoin="round"/>
<path d="M47.1068 108.462C47.1068 108.462 66.5975 88.9841 74.8004 87.4426C83.0032 85.9011 90.1897 92.0552 90.1897 92.0552" stroke="#263238" stroke-width="0.5" stroke-linecap="round" stroke-linejoin="round"/>
<path d="M12.2746 124.749C7.49165 127.761 7.09705 129.529 7.09705 129.529" stroke="#263238" stroke-width="0.5" stroke-linecap="round" stroke-linejoin="round"/>
<path d="M89.6755 126.398C89.6755 126.398 86.6025 118.703 75.8288 115.118C65.055 111.533 48.1471 111.019 48.1471 111.019C48.1471 111.019 24.4115 118.786 15.7303 122.837" stroke="#263238" stroke-width="0.5" stroke-linecap="round" stroke-linejoin="round"/>
<path d="M37.7679 108.091C43.5075 109.764 48.1351 111.019 48.1351 111.019" stroke="#263238" stroke-width="0.5" stroke-linecap="round" stroke-linejoin="round"/>
<path d="M1.64441 98.986C7.21661 99.3205 14.3911 100.085 18.3849 101.794C21.6374 103.192 28.0466 105.212 34.0971 107.016" stroke="#263238" stroke-width="0.5" stroke-linecap="round" stroke-linejoin="round"/>
<path d="M47.1067 114.09C47.1067 114.09 32.7577 135.599 31.7174 140.75C31.1012 143.788 30.757 146.875 30.6891 149.975" stroke="#263238" stroke-width="0.5" stroke-linecap="round" stroke-linejoin="round"/>
<path d="M53.4922 120.865C56.2544 124.45 59.5666 129.23 60.9537 133.054C62.5682 137.719 63.7686 142.518 64.5409 147.393" stroke="#263238" stroke-width="0.5" stroke-linecap="round" stroke-linejoin="round"/>
<path d="M49.1516 115.632C49.1516 115.632 50.3474 116.898 51.8899 118.846" stroke="#263238" stroke-width="0.5" stroke-linecap="round" stroke-linejoin="round"/>
<path d="M33.9178 91.864C33.9178 91.864 31.2752 81.1094 32.9134 71.1315C34.5516 61.1536 55.6326 40.3256 55.6326 40.3256C54.461 46.7758 53.8806 53.3194 53.8988 59.875C53.8988 71.251 48.219 101.173 48.219 101.173C48.219 101.173 51.579 87.4068 58.897 80.8584C66.215 74.3101 89.2093 64.1291 90.4529 63.2568C91.6964 62.3844 85.347 71.968 81.1978 79.3767C77.0485 86.7854 54.6521 106.658 54.6521 106.658C54.6521 106.658 67.1597 102.093 76.0321 99.4878C84.9046 96.8828 104.73 110.434 104.73 110.434C104.73 110.434 89.58 108.689 80.1694 112.286C70.7589 115.883 56.8164 120.208 56.8164 120.208C56.8164 120.208 69.587 123.04 75.1353 127.259C80.6836 131.477 88.4321 144.896 88.4321 144.896C88.4321 144.896 76.3072 135.922 68.4272 134.631C60.5472 133.341 49.8691 129.027 49.8691 129.027C50.2741 134.44 50.9847 139.826 51.9976 145.159C53.7553 154.635 59.1721 166.537 59.1721 166.537C59.1721 166.537 45.3851 158.77 41.6065 152.639C37.8279 146.509 36.6082 131.62 36.6082 131.62C36.6082 131.62 30.3425 131.692 25.8465 138.67C21.3505 145.649 18.0382 163.836 18.0382 163.836C18.0382 163.836 10.6724 148.302 10.9474 139.937C11.2225 131.572 27.9391 117.018 27.9391 117.018C27.9391 117.018 13.7575 118.368 6.60688 121.594C-0.543711 124.821 -6.78552 133.723 -6.78552 133.723C-6.78552 133.723 -6.78552 113.529 0.125912 107.315C7.03735 101.101 26.6596 104.686 26.6596 104.686L11.354 90.43C7.5276 86.8452 1.71626 75.2541 1.71626 75.2541C1.71626 75.2541 8.10157 74.4654 19.1981 78.4924C22.4235 79.621 25.3888 81.3863 27.9176 83.6835C30.4464 85.9806 32.4869 88.7626 33.9178 91.864Z" fill="#C6FF00"/>
<path d="M16.6033 85.0767C15.4075 84.0849 14.2835 83.129 13.0878 82.1969" stroke="#263238" stroke-width="0.5" stroke-linecap="round" stroke-linejoin="round"/>
<path d="M44.4284 65.1089C42.575 70.7491 40.5064 78.1697 40.4585 83.3798C40.3629 92.9394 40.7694 112.811 40.7694 112.811C34.5975 103.675 27.4487 95.2364 19.4492 87.6457" stroke="#263238" stroke-width="0.5" stroke-linecap="round" stroke-linejoin="round"/>
<path d="M47.37 56.9714C47.37 56.9714 46.7004 58.6205 45.7916 61.1657" stroke="#263238" stroke-width="0.5" stroke-linecap="round" stroke-linejoin="round"/>
<path d="M40.7693 112.812C40.7693 112.812 13.566 108.354 6.00888 111.891C-1.54826 115.428 -3.79626 124.582 -3.79626 124.582" stroke="#263238" stroke-width="0.5" stroke-linecap="round" stroke-linejoin="round"/>
<path d="M78.5791 105.737C84.1872 105.427 85.5264 106.563 85.5264 106.563" stroke="#263238" stroke-width="0.5" stroke-linecap="round" stroke-linejoin="round"/>
<path d="M16.6631 152.197C16.6631 152.197 14.6781 144.155 21.3265 134.966C27.9749 125.777 41.439 115.5 41.439 115.5C41.439 115.5 65.2464 107.96 74.657 106.203" stroke="#263238" stroke-width="0.5" stroke-linecap="round" stroke-linejoin="round"/>
<path d="M48.1471 107.076C44.4642 111.772 41.4509 115.5 41.4509 115.5" stroke="#263238" stroke-width="0.5" stroke-linecap="round" stroke-linejoin="round"/>
<path d="M72.1699 78.624C67.8413 82.2089 62.4604 86.9887 60.2124 90.6572C58.3829 93.6924 54.3532 99.0219 50.491 104.053" stroke="#263238" stroke-width="0.5" stroke-linecap="round" stroke-linejoin="round"/>
<path d="M78.4117 73.8082C78.4117 73.8082 76.8931 74.9076 74.7048 76.6044" stroke="#263238" stroke-width="0.5" stroke-linecap="round" stroke-linejoin="round"/>
<path d="M44.0577 117.412C44.0577 117.412 68.2956 126.518 72.11 130.091C74.3846 132.199 76.4656 134.506 78.3279 136.985" stroke="#263238" stroke-width="0.5" stroke-linecap="round" stroke-linejoin="round"/>
<path d="M42.826 126.613C42.6585 131.13 42.7422 136.926 43.8782 140.869C45.2879 145.607 47.1166 150.209 49.3428 154.623" stroke="#263238" stroke-width="0.5" stroke-linecap="round" stroke-linejoin="round"/>
<path d="M43.2925 119.802C43.2925 119.802 43.1011 121.499 42.9576 124.008" stroke="#263238" stroke-width="0.5" stroke-linecap="round" stroke-linejoin="round"/>
<path d="M113.71 146.605H384.751C388.135 146.605 391.38 147.948 393.772 150.339C396.165 152.731 397.509 155.974 397.509 159.355V335.014C397.509 336.845 397.148 338.658 396.447 340.35C395.746 342.042 394.718 343.579 393.422 344.874C392.126 346.169 390.588 347.196 388.895 347.897C387.202 348.598 385.388 348.959 383.555 348.959H114.906C113.073 348.959 111.259 348.598 109.566 347.897C107.873 347.196 106.334 346.169 105.039 344.874C103.743 343.579 102.715 342.042 102.014 340.35C101.312 338.658 100.951 336.845 100.951 335.014V159.355C100.951 155.974 102.296 152.731 104.688 150.339C107.081 147.948 110.326 146.605 113.71 146.605Z" fill="white" stroke="#263238" stroke-linecap="round" stroke-linejoin="round"/>
<path d="M212.909 166.525H196.217V177.483H212.909V166.525Z" fill="#263238"/>
<path d="M158.826 234.124H143.329V249.491H158.826V234.124Z" fill="#263238"/>
<path d="M227.294 180.112H211.678V195.479H227.294V180.112Z" fill="#263238"/>
<path d="M193.574 166.525H176.881V177.483H193.574V166.525Z" fill="#263238"/>
<path d="M245.541 180.112H229.925V195.479H245.541V180.112Z" fill="#263238"/>
<path d="M232.233 166.525H215.54V177.483H232.233V166.525Z" fill="#263238"/>
<path d="M149.463 216.116H120.095V231.483H149.463V216.116Z" fill="#263238"/>
<path d="M190.788 180.112H175.172V195.479H190.788V180.112Z" fill="#263238"/>
<path d="M140.698 234.124H120.095V249.491H140.698V234.124Z" fill="#263238"/>
<path d="M251.568 166.525H234.875V177.483H251.568V166.525Z" fill="#263238"/>
<path d="M154.282 180.112H138.665V195.479H154.282V180.112Z" fill="#263238"/>
<path d="M154.916 166.525H138.223V177.483H154.916V166.525Z" fill="#263238"/>
<path d="M174.251 166.525H157.558V177.483H174.251V166.525Z" fill="#263238"/>
<path d="M172.529 180.112H156.912V195.479H172.529V180.112Z" fill="#263238"/>
<path d="M209.035 180.112H193.419V195.479H209.035V180.112Z" fill="#263238"/>
<path d="M328.897 166.525H312.205V177.483H328.897V166.525Z" fill="#263238"/>
<path d="M348.22 166.525H331.528V177.483H348.22V166.525Z" fill="#263238"/>
<path d="M336.813 180.112H321.197V195.479H336.813V180.112Z" fill="#263238"/>
<path d="M355.072 180.112H339.455V195.479H355.072V180.112Z" fill="#263238"/>
<path d="M383.95 234.124H360.955V249.491H383.95V234.124Z" fill="#263238"/>
<path d="M367.556 166.525H350.863V177.483H367.556V166.525Z" fill="#263238"/>
<path d="M136.035 180.112H120.095V195.479H136.035V180.112Z" fill="#263238"/>
<path d="M270.903 166.525H254.211V177.483H270.903V166.525Z" fill="#263238"/>
<path d="M290.227 166.525H273.534V177.483H290.227V166.525Z" fill="#263238"/>
<path d="M282.06 180.112H266.443V195.479H282.06V180.112Z" fill="#263238"/>
<path d="M318.566 180.112H302.949V195.479H318.566V180.112Z" fill="#263238"/>
<path d="M263.801 180.112H248.184V195.479H263.801V180.112Z" fill="#263238"/>
<path d="M300.307 180.112H284.69V195.479H300.307V180.112Z" fill="#263238"/>
<path d="M309.562 166.525H292.869V177.483H309.562V166.525Z" fill="#263238"/>
<path d="M285.778 234.124H270.281V249.491H285.778V234.124Z" fill="#263238"/>
<path d="M367.089 216.116H351.592V231.483H367.089V216.116Z" fill="#263238"/>
<path d="M348.95 216.116H333.453V231.483H348.95V216.116Z" fill="#263238"/>
<path d="M358.313 234.124H342.816V249.491H358.313V234.124Z" fill="#263238"/>
<path d="M340.185 234.124H324.688V249.491H340.185V234.124Z" fill="#263238"/>
<path d="M303.906 234.124H288.409V249.491H303.906V234.124Z" fill="#263238"/>
<path d="M322.045 234.124H306.549V249.491H322.045V234.124Z" fill="#263238"/>
<path d="M330.81 216.116H315.313V231.483H330.81V216.116Z" fill="#263238"/>
<path d="M312.683 216.116H297.186V231.483H312.683V216.116Z" fill="#263238"/>
<path d="M383.961 166.525H370.198V177.483H383.961V166.525Z" fill="#263238"/>
<path d="M135.592 166.525H120.095V177.483H135.592V166.525Z" fill="#263238"/>
<path d="M383.961 252.12H120.095V268.096H383.961V252.12Z" fill="#263238"/>
<path d="M383.949 180.112H357.703V195.479H383.949V180.112Z" fill="#263238"/>
<path d="M383.95 216.116H369.72V231.483H383.95V216.116Z" fill="#263238"/>
<path d="M365.344 213.367H362.701V198.119H347.204V213.367H344.573V198.119H329.076V213.367H326.434V198.119H310.937V213.367H308.294V198.119H292.797V213.367H290.167V198.119H274.67V213.367H272.027V198.119H256.53V213.367H253.888V198.119H238.391V213.367H235.76V198.119H220.263V213.367H217.621V198.119H202.124V213.367H199.481V198.119H183.984V213.367H181.353V198.119H165.857V213.367H163.214V198.119H147.717V213.367H145.074V198.119H120.095V213.487H383.949V198.119H365.344V213.367Z" fill="#263238"/>
<path d="M240.137 216.116H224.64V231.483H240.137V216.116Z" fill="#263238"/>
<path d="M294.543 216.116H279.046V231.483H294.543V216.116Z" fill="#263238"/>
<path d="M203.869 216.116H188.373V231.483H203.869V216.116Z" fill="#263238"/>
<path d="M213.232 234.124H197.735V249.491H213.232V234.124Z" fill="#263238"/>
<path d="M221.997 216.116H206.5V231.483H221.997V216.116Z" fill="#263238"/>
<path d="M185.73 216.116H170.233V231.483H185.73V216.116Z" fill="#263238"/>
<path d="M176.965 234.124H161.468V249.491H176.965V234.124Z" fill="#263238"/>
<path d="M195.093 234.124H179.596V249.491H195.093V234.124Z" fill="#263238"/>
<path d="M258.276 216.116H242.779V231.483H258.276V216.116Z" fill="#263238"/>
<path d="M267.639 234.124H252.142V249.491H267.639V234.124Z" fill="#263238"/>
<path d="M276.404 216.116H260.907V231.483H276.404V216.116Z" fill="#263238"/>
<path d="M231.372 234.124H215.875V249.491H231.372V234.124Z" fill="#263238"/>
<path d="M249.499 234.124H234.002V249.491H249.499V234.124Z" fill="#263238"/>
<path d="M167.59 216.116H152.094V231.483H167.59V216.116Z" fill="#263238"/>
<path d="M414.441 36.6692H82.4291C80.801 36.6705 79.1949 37.0459 77.7351 37.7665C76.2753 38.4871 75.0008 39.5335 74.0103 40.8248C73.0197 42.1162 72.3396 43.6179 72.0225 45.2138C71.7054 46.8098 71.7598 48.4572 72.1816 50.0288L96.4553 140.343C97.0602 142.598 98.3921 144.59 100.245 146.012C102.097 147.433 104.367 148.204 106.703 148.206H140.59V154.456H357.846V148.242H390.132C392.467 148.24 394.737 147.469 396.59 146.047C398.442 144.626 399.774 142.634 400.379 140.379L424.653 50.0646C425.08 48.4936 425.14 46.8454 424.828 45.2476C424.516 43.6497 423.84 42.145 422.853 40.8499C421.866 39.5549 420.594 38.5042 419.135 37.7793C417.676 37.0543 416.07 36.6745 414.441 36.6692Z" fill="#263238" stroke="#263238" stroke-linecap="round" stroke-linejoin="round"/>
<path d="M376.895 140.236H119.976L94.2791 47.83H402.579L376.895 140.236Z" fill="#2883EE"/>
<path d="M137.027 99.6791V100.875H132.495V99.6791H137.027Z" fill="#263238"/>
<path d="M142.671 99.6791V100.875H138.127V99.6791H142.671Z" fill="#263238"/>
<path d="M148.315 99.6791V100.875H143.807V99.6791H148.315Z" fill="#263238"/>
<path d="M153.947 99.6791V100.875H149.415V99.6791H153.947Z" fill="#263238"/>
<path d="M159.591 99.6791V100.875H155.047V99.6791H159.591Z" fill="#263238"/>
<path d="M165.235 99.6791V100.875H160.691V99.6791H165.235Z" fill="#263238"/>
<path d="M170.867 99.6791V100.875H166.335V99.6791H170.867Z" fill="#263238"/>
<path d="M176.451 105.976L171.453 92.6647H172.648L177.647 105.976H176.451Z" fill="#263238"/>
<path d="M132.459 80.297V81.4927H127.927V80.297H132.459Z" fill="#263238"/>
<path d="M138.103 80.297V81.4927H133.571V80.297H138.103Z" fill="#263238"/>
<path d="M143.807 80.297V81.4927H139.263V80.297H143.807Z" fill="#263238"/>
<path d="M149.391 80.297V81.4927H144.847V80.297H149.391Z" fill="#263238"/>
<path d="M155.023 80.297V81.4927H150.491V80.297H155.023Z" fill="#263238"/>
<path d="M164.565 80.297V81.4927H160.021V80.297H164.565Z" fill="#263238"/>
<path d="M170.197 80.297V81.4927H165.665V80.297H170.197Z" fill="#263238"/>
<path d="M175.841 80.297V81.4927H171.309V80.297H175.841Z" fill="#263238"/>
<path d="M181.485 80.297V81.4927H176.941V80.297H181.485Z" fill="#263238"/>
<path d="M187.117 80.297V81.4927H182.585V80.297H187.117Z" fill="#263238"/>
<path d="M192.761 80.297V81.4927H188.229V80.297H192.761Z" fill="#263238"/>
<path d="M198.405 80.297V81.4927H193.861V80.297H198.405Z" fill="#263238"/>
<path d="M207.935 80.297V81.4927H203.403V80.297H207.935Z" fill="#263238"/>
<path d="M213.579 80.297V81.4927H209.035V80.297H213.579Z" fill="#263238"/>
<path d="M219.223 80.297V81.4927H214.679V80.297H219.223Z" fill="#263238"/>
<path d="M228.705 80.297V81.4927H224.173V80.297H228.705Z" fill="#263238"/>
<path d="M234.397 80.297V81.4927H229.901V80.297H234.397Z" fill="#263238"/>
<path d="M240.041 80.297V81.4927H235.497V80.297H240.041Z" fill="#263238"/>
<path d="M261.254 80.297V81.4927H256.722V80.297H261.254Z" fill="#263238"/>
<path d="M266.897 80.297V81.4927H262.354V80.297H266.897Z" fill="#263238"/>
<path d="M272.541 80.297V81.4927H267.998V80.297H272.541Z" fill="#263238"/>
<path d="M278.174 80.297V81.4927H273.642V80.297H278.174Z" fill="#263238"/>
<path d="M283.817 80.297V81.4927H279.273V80.297H283.817Z" fill="#263238"/>
<path d="M293.347 80.297V81.4927H288.816V80.297H293.347Z" fill="#263238"/>
<path d="M298.991 80.297V81.4927H294.471V80.297H298.991Z" fill="#263238"/>
<path d="M304.635 80.297V81.4927H300.092V80.297H304.635Z" fill="#263238"/>
<path d="M314.166 80.297V81.4927H309.634V80.297H314.166Z" fill="#263238"/>
<path d="M323.708 80.297V81.4927H319.164V80.297H323.708Z" fill="#263238"/>
<path d="M399.327 276.688L386.532 326.016L398.633 329.565L399.327 276.688Z" fill="white" stroke="#263238" stroke-linecap="round" stroke-linejoin="round"/>
<path d="M405.066 224.552C403.623 222.335 403.095 219.645 403.596 217.048C404.253 212.184 410.124 211.073 410.124 211.073C410.124 211.073 411.404 210.105 416.103 211.885C420.803 213.666 457.141 218.589 480.363 221.732C503.584 224.875 511.106 222.843 510.783 230.813C510.46 238.784 490.084 310.314 489.773 312.56C489.462 314.807 405.066 224.552 405.066 224.552Z" fill="white" stroke="#263238" stroke-miterlimit="10"/>
<path d="M502.741 237.787L405.057 224.554L389.272 340.918L486.956 354.151L502.741 237.787Z" fill="white" stroke="#263238" stroke-linecap="round" stroke-linejoin="round"/>
<path d="M484.584 260.998L490.264 261.775" stroke="#263238" stroke-width="0.5" stroke-linecap="round" stroke-linejoin="round"/>
<path d="M449.01 256.182L480.088 260.401" stroke="#263238" stroke-width="0.5" stroke-linecap="round" stroke-linejoin="round"/>
<path d="M411.344 251.08L444.514 255.573" stroke="#263238" stroke-width="0.5" stroke-linecap="round" stroke-linejoin="round"/>
<path d="M475.688 270.331L488.865 272.123" stroke="#263238" stroke-width="0.5" stroke-linecap="round" stroke-linejoin="round"/>
<path d="M409.945 261.428L462.212 268.502" stroke="#263238" stroke-width="0.5" stroke-linecap="round" stroke-linejoin="round"/>
<path d="M436.467 275.553L487.466 282.46" stroke="#263238" stroke-width="0.5" stroke-linecap="round" stroke-linejoin="round"/>
<path d="M408.534 271.765L431.217 274.848" stroke="#263238" stroke-width="0.5" stroke-linecap="round" stroke-linejoin="round"/>
<path d="M453.411 288.386L486.055 292.808" stroke="#263238" stroke-width="0.5" stroke-linecap="round" stroke-linejoin="round"/>
<path d="M425.705 284.622L449.668 287.873" stroke="#263238" stroke-width="0.5" stroke-linecap="round" stroke-linejoin="round"/>
<path d="M407.135 282.113L421.58 284.073" stroke="#263238" stroke-width="0.5" stroke-linecap="round" stroke-linejoin="round"/>
<path d="M472.973 301.567L484.656 303.144" stroke="#263238" stroke-width="0.5" stroke-linecap="round" stroke-linejoin="round"/>
<path d="M405.736 292.461L465.117 300.503" stroke="#263238" stroke-width="0.5" stroke-linecap="round" stroke-linejoin="round"/>
<path d="M450.23 309.011L483.257 313.493" stroke="#263238" stroke-width="0.5" stroke-linecap="round" stroke-linejoin="round"/>
<path d="M404.325 302.798L444.61 308.259" stroke="#263238" stroke-width="0.5" stroke-linecap="round" stroke-linejoin="round"/>
<path d="M460.43 320.937L481.846 323.829" stroke="#263238" stroke-width="0.5" stroke-linecap="round" stroke-linejoin="round"/>
<path d="M417 315.046L455.192 320.22" stroke="#263238" stroke-width="0.5" stroke-linecap="round" stroke-linejoin="round"/>
<path d="M402.926 313.146L412.504 314.437" stroke="#263238" stroke-width="0.5" stroke-linecap="round" stroke-linejoin="round"/>
<path d="M469.625 362.796L469.517 373.109L463.503 364.625L439.361 283.475L445.483 281.647L469.625 362.796Z" fill="white" stroke="#263238" stroke-linecap="round" stroke-linejoin="round"/>
<path d="M443.087 285.115L439.746 286.088L463.467 367.364L466.808 366.391L443.087 285.115Z" fill="#2883EE"/>
<path d="M469.625 362.82L463.515 364.637L469.517 373.109L469.625 362.82Z" stroke="#263238" stroke-linecap="round" stroke-linejoin="round"/>
<path d="M466.516 368.867L469.517 373.109L469.577 367.959L466.516 368.867Z" fill="#263238" stroke="#263238" stroke-linecap="round" stroke-linejoin="round"/>
<path d="M439.719 273.473C438.909 273.717 438.228 274.271 437.825 275.014C437.422 275.757 437.329 276.629 437.567 277.441L439.361 283.475L445.483 281.659L443.689 275.624C443.446 274.815 442.891 274.134 442.148 273.731C441.404 273.328 440.531 273.236 439.719 273.473Z" fill="white" stroke="#263238" stroke-linecap="round" stroke-linejoin="round"/>
<path d="M439.719 273.473C438.909 273.717 438.228 274.271 437.825 275.014C437.422 275.757 437.329 276.629 437.567 277.441L438.428 280.321L444.538 278.504L443.689 275.624C443.446 274.815 442.891 274.134 442.148 273.731C441.404 273.328 440.531 273.236 439.719 273.473Z" fill="#263238" stroke="#263238" stroke-linecap="round" stroke-linejoin="round"/>
<path d="M138.606 225.544C137.84 226.619 137.087 227.743 136.334 228.926" stroke="white" stroke-linecap="round" stroke-linejoin="round"/>
<path d="M151.113 211.156C147.781 214.243 144.699 217.587 141.894 221.158" stroke="white" stroke-linecap="round" stroke-linejoin="round"/>
<path d="M137.541 217.502C134.274 222.081 131.315 226.871 128.681 231.841" stroke="white" stroke-linecap="round" stroke-linejoin="round"/>
<path d="M221.878 243.779C221.124 244.854 220.359 245.978 219.606 247.149" stroke="white" stroke-linecap="round" stroke-linejoin="round"/>
<path d="M234.385 229.391C231.059 232.48 227.981 235.824 225.178 239.393" stroke="white" stroke-linecap="round" stroke-linejoin="round"/>
<path d="M220.825 235.713C217.56 240.318 214.601 245.132 211.965 250.124" stroke="white" stroke-linecap="round" stroke-linejoin="round"/>
<path d="M341.237 214.204C340.149 213.463 339.001 212.722 337.818 211.981" stroke="white" stroke-linecap="round" stroke-linejoin="round"/>
<path d="M355.825 226.488C352.681 223.215 349.287 220.19 345.674 217.442" stroke="white" stroke-linecap="round" stroke-linejoin="round"/>
<path d="M349.273 213.009C344.62 209.815 339.763 206.929 334.733 204.369" stroke="white" stroke-linecap="round" stroke-linejoin="round"/>
<path d="M218.243 288.291C217.621 292.784 216.688 299.045 215.755 302.762" stroke="#263238" stroke-linecap="round" stroke-linejoin="round"/>
<path d="M218.936 282.83C218.936 282.83 218.84 283.679 218.661 285.053" stroke="#263238" stroke-linecap="round" stroke-linejoin="round"/>
<path d="M222.129 295.58C220.823 299.933 219.225 304.192 217.346 308.33" stroke="#263238" stroke-linecap="round" stroke-linejoin="round"/>
<path d="M281.916 301.949C281.916 301.949 282.717 312.309 288.29 317.89" stroke="#263238" stroke-linecap="round" stroke-linejoin="round"/>
<path d="M281.115 312.309C281.115 312.309 283.507 319.479 288.29 322.67" stroke="#263238" stroke-linecap="round" stroke-linejoin="round"/>
<g style="mix-blend-mode:multiply" opacity="0.5">
<path d="M118.696 367.684C118.696 367.684 124.006 363.418 124.006 326.745C124.006 290.072 130.116 263.281 137.649 251.534C145.182 239.788 152.225 235.08 155.526 235.08C158.826 235.08 156.458 239.31 151.759 245.416C147.06 251.522 142.827 254.82 140.937 262.349C139.048 269.877 139.06 279.269 141.416 278.325C143.771 277.381 147.526 258.584 150.814 251.534C154.103 244.484 162.114 235.546 166.813 231.316C171.513 227.085 181.868 214.395 186.567 217.681C191.266 220.967 188.456 225.675 185.634 227.551C182.813 229.428 171.513 240.696 166.347 247.77C161.181 254.844 157.881 272.685 160.703 273.151C163.525 273.617 171.991 247.304 176.69 241.664C181.39 236.024 200.211 220.501 204.444 220.035C208.677 219.569 209.155 226.141 205.388 229.44C201.622 232.738 188.923 246.826 184.69 255.286C180.457 263.747 178.568 279.269 182.298 275.505C186.029 271.741 192.175 256.23 197.353 251.056C202.53 245.882 218.051 229.44 221.818 231.316C225.585 233.192 224.64 237.9 221.352 241.186C218.063 244.472 205.352 262.349 202.064 271.741C198.776 281.133 194.997 307.47 196.887 303.718C198.776 299.966 204.886 280.679 208.174 272.649C211.463 264.619 218.051 260.903 218.996 264.655C219.941 268.407 218.051 270.295 215.696 278.767C213.34 287.239 213.304 309.836 206.297 322.479C199.29 335.121 171.166 362.175 167.411 371.567C164.692 378.037 161.444 384.271 157.702 390.209" fill="#BEDAFA"/>
</g>
<g style="mix-blend-mode:multiply" opacity="0.5">
<path d="M380.027 370.862C380.027 370.862 374.587 363.418 374.587 326.745C374.587 290.072 368.465 263.281 360.943 251.534C353.422 239.788 346.355 235.08 343.067 235.08C339.778 235.08 342.122 239.31 346.833 245.416C351.545 251.522 355.766 254.82 357.595 262.349C359.425 269.877 359.484 279.269 357.129 278.325C354.773 277.381 351.019 258.584 347.718 251.534C344.418 244.484 336.43 235.546 331.731 231.316C327.032 227.085 316.677 214.395 311.965 217.681C307.254 220.967 310.088 225.675 312.91 227.551C315.732 229.428 327.02 240.696 332.197 247.77C337.375 254.844 340.663 272.685 337.841 273.151C335.019 273.617 326.589 247.304 321.89 241.688C317.191 236.072 298.358 220.525 294.125 220.059C289.892 219.593 289.425 226.165 293.192 229.463C296.959 232.762 309.658 246.85 313.89 255.31C318.123 263.771 320.001 279.293 316.282 275.529C312.563 271.765 306.405 256.254 301.239 251.08C296.074 245.906 280.541 229.463 276.774 231.34C273.008 233.216 273.952 237.924 277.241 241.21C280.529 244.496 293.24 262.373 296.528 271.765C299.817 281.157 303.583 307.494 301.706 303.742C299.828 299.99 293.706 280.703 290.418 272.673C287.13 264.643 280.541 260.927 279.596 264.679C278.652 268.431 280.541 270.319 282.885 278.791C285.228 287.263 285.276 309.86 292.295 322.503C299.314 335.145 326.637 359.821 330.404 369.225C334.17 378.63 340.986 393.447 340.986 393.447" fill="#BEDAFA"/>
</g>
<path d="M116.903 376.718C116.903 376.718 123.958 353.691 123.958 316.97C123.958 280.249 130.068 253.506 137.601 241.759C145.134 230.013 152.177 225.305 155.478 225.305C158.778 225.305 156.41 229.535 151.711 235.641C147.012 241.747 142.779 245.045 140.889 252.562C139 260.078 139.012 269.494 141.368 268.55C143.723 267.606 147.478 248.81 150.766 241.759C154.055 234.709 162.066 225.771 166.765 221.541C171.465 217.311 181.82 204.62 186.519 207.906C191.219 211.192 188.409 215.901 185.587 217.777C182.765 219.653 171.465 230.921 166.299 237.995C161.134 245.069 157.833 262.91 160.655 263.376C163.477 263.842 171.943 237.529 176.642 231.877C181.342 226.225 200.163 210.726 204.396 210.26C208.629 209.794 209.107 216.367 205.34 219.665C201.574 222.963 188.875 237.051 184.642 245.512C180.409 253.972 178.52 269.494 182.25 265.73C185.981 261.966 192.127 246.456 197.305 241.281C202.483 236.107 218.003 219.665 221.77 221.541C225.537 223.417 224.592 228.125 221.304 231.411C218.015 234.697 205.305 252.562 202.016 261.966C198.728 271.37 194.949 297.695 196.839 293.931C198.728 290.167 204.838 270.904 208.126 262.862C211.415 254.82 218.003 251.104 218.948 254.868C219.893 258.632 218.003 260.508 215.648 268.968C213.292 277.429 213.256 300.037 206.249 312.692C199.242 325.346 171.907 359.701 168.141 369.106C164.374 378.51 155.908 399.195 155.908 399.195" fill="white"/>
<path d="M116.903 376.718C116.903 376.718 123.958 353.691 123.958 316.97C123.958 280.249 130.068 253.506 137.601 241.759C145.134 230.013 152.177 225.305 155.478 225.305C158.778 225.305 156.41 229.535 151.711 235.641C147.012 241.747 142.779 245.045 140.889 252.562C139 260.078 139.012 269.494 141.368 268.55C143.723 267.606 147.478 248.81 150.766 241.759C154.055 234.709 162.066 225.771 166.765 221.541C171.465 217.311 181.82 204.62 186.519 207.906C191.219 211.192 188.409 215.901 185.587 217.777C182.765 219.653 171.465 230.921 166.299 237.995C161.134 245.069 157.833 262.91 160.655 263.376C163.477 263.842 171.943 237.529 176.642 231.877C181.342 226.225 200.163 210.726 204.396 210.26C208.629 209.794 209.107 216.367 205.34 219.665C201.574 222.963 188.875 237.051 184.642 245.512C180.409 253.972 178.52 269.494 182.25 265.73C185.981 261.966 192.127 246.456 197.305 241.281C202.483 236.107 218.003 219.665 221.77 221.541C225.537 223.417 224.592 228.125 221.304 231.411C218.015 234.697 205.305 252.562 202.016 261.966C198.728 271.37 194.949 297.695 196.839 293.931C198.728 290.167 204.838 270.904 208.126 262.862C211.415 254.82 218.003 251.104 218.948 254.868C219.893 258.632 218.003 260.508 215.648 268.968C213.292 277.429 213.256 300.037 206.249 312.692C199.242 325.346 171.907 359.701 168.141 369.106C164.374 378.51 155.908 399.195 155.908 399.195" stroke="#263238" stroke-linecap="round" stroke-linejoin="round"/>
<path d="M381.63 376.718C381.63 376.718 374.575 353.691 374.575 316.97C374.575 280.249 368.453 253.506 360.932 241.759C353.41 230.013 346.343 225.305 343.055 225.305C339.767 225.305 342.11 229.535 346.822 235.641C351.533 241.747 355.754 245.045 357.583 252.562C359.413 260.078 359.473 269.494 357.117 268.55C354.761 267.606 351.007 248.81 347.707 241.759C344.406 234.709 336.419 225.771 331.719 221.541C327.02 217.311 316.665 204.62 311.954 207.906C307.242 211.192 310.076 215.901 312.898 217.777C315.72 219.653 327.008 230.921 332.186 237.995C337.363 245.069 340.652 262.91 337.83 263.376C335.008 263.842 326.542 237.529 321.842 231.877C317.143 226.225 298.31 210.726 294.077 210.26C289.844 209.794 289.378 216.367 293.144 219.665C296.911 222.963 309.61 237.051 313.843 245.512C318.076 253.972 319.953 269.494 316.234 265.73C312.516 261.966 306.357 246.456 301.192 241.281C296.026 236.107 280.493 219.665 276.727 221.541C272.96 223.417 273.905 228.125 277.193 231.411C280.481 234.697 293.192 252.562 296.481 261.966C299.769 271.37 303.536 297.695 301.658 293.931C299.781 290.167 293.659 270.904 290.37 262.862C287.082 254.82 280.493 251.104 279.549 254.868C278.604 258.632 280.493 260.508 282.837 268.968C285.181 277.429 285.229 300.037 292.248 312.692C299.267 325.346 326.59 359.701 330.356 369.106C334.123 378.51 342.589 399.195 342.589 399.195" fill="white"/>
<path d="M381.63 376.718C381.63 376.718 374.575 353.691 374.575 316.97C374.575 280.249 368.453 253.506 360.932 241.759C353.41 230.013 346.343 225.305 343.055 225.305C339.767 225.305 342.11 229.535 346.822 235.641C351.533 241.747 355.754 245.045 357.583 252.562C359.413 260.078 359.473 269.494 357.117 268.55C354.761 267.606 351.007 248.81 347.707 241.759C344.406 234.709 336.419 225.771 331.719 221.541C327.02 217.311 316.665 204.62 311.954 207.906C307.242 211.192 310.076 215.901 312.898 217.777C315.72 219.653 327.008 230.921 332.186 237.995C337.363 245.069 340.652 262.91 337.83 263.376C335.008 263.842 326.542 237.529 321.842 231.877C317.143 226.225 298.31 210.726 294.077 210.26C289.844 209.794 289.378 216.367 293.144 219.665C296.911 222.963 309.61 237.051 313.843 245.512C318.076 253.972 319.953 269.494 316.234 265.73C312.516 261.966 306.357 246.456 301.192 241.281C296.026 236.107 280.493 219.665 276.727 221.541C272.96 223.417 273.905 228.125 277.193 231.411C280.481 234.697 293.192 252.562 296.481 261.966C299.769 271.37 303.536 297.695 301.658 293.931C299.781 290.167 293.659 270.904 290.37 262.862C287.082 254.82 280.493 251.104 279.549 254.868C278.604 258.632 280.493 260.508 282.837 268.968C285.181 277.429 285.229 300.037 292.248 312.692C299.267 325.346 326.59 359.701 330.356 369.106C334.123 378.51 342.589 399.195 342.589 399.195" stroke="#263238" stroke-linecap="round" stroke-linejoin="round"/>
<path d="M87.1285 448.415L156.95 466.299L158.874 448.415C159.806 444.83 160.978 440.815 162.461 436.465C168.105 419.569 186.376 398.442 186.376 398.442C173.281 386.917 157.893 378.291 141.224 373.133C113.722 364.672 93.5856 367.158 93.5856 367.158C97.2924 382.431 97.7001 398.318 94.7813 413.761C91.1941 431.16 88.8026 442.165 87.1285 448.415Z" fill="#2883EE"/>
<path d="M339.193 448.415H413.736C411.344 442.225 406.179 428.782 401.013 415.338C393.958 397.032 396.78 372.392 393.958 372.392C391.136 372.392 359.437 370.277 343.94 375.2C328.443 380.123 310.818 394.212 310.818 394.212C318.796 403.476 325.655 413.648 331.253 424.516C334.851 432.134 337.517 440.159 339.193 448.415Z" fill="#2883EE"/>
<path d="M131.945 381.736C131.431 379.705 123.778 382.764 123.778 382.764C123.778 382.764 126.337 373.085 122.26 373.085C118.182 373.085 117.668 380.255 117.668 380.255C117.668 380.255 110.015 377.208 110.015 381.784C110.015 386.361 115.109 386.277 115.109 386.277C115.109 386.277 108.987 393.925 113.579 395.443C118.17 396.96 121.219 391.368 121.219 391.368C121.219 391.368 124.281 396.47 128.394 394.427C132.507 392.384 129.41 387.807 129.41 387.807C129.41 387.807 132.448 383.78 131.945 381.736ZM121.746 389.384C121.361 389.299 121.008 389.106 120.728 388.829C120.447 388.552 120.251 388.201 120.162 387.817C120.072 387.433 120.093 387.032 120.222 386.66C120.351 386.287 120.582 385.959 120.89 385.712C121.197 385.466 121.568 385.311 121.96 385.265C122.352 385.22 122.748 385.287 123.104 385.457C123.459 385.627 123.76 385.894 123.97 386.228C124.18 386.561 124.292 386.947 124.292 387.341C124.206 387.941 123.895 388.485 123.422 388.865C122.95 389.244 122.35 389.43 121.746 389.384ZM143.161 438.855C142.647 436.824 134.994 439.883 134.994 439.883C134.994 439.883 137.553 430.204 133.464 430.204C129.374 430.204 128.884 437.374 128.884 437.374C128.884 437.374 121.231 434.314 121.231 438.891C121.231 443.468 126.337 443.48 126.337 443.48C126.337 443.48 120.215 451.127 124.807 452.657C129.398 454.187 132.448 448.57 132.448 448.57C132.448 448.57 135.509 453.673 139.622 451.629C143.735 449.586 140.638 445.009 140.638 445.009C140.638 445.009 143.664 440.839 143.161 438.855ZM132.962 446.503C132.577 446.417 132.224 446.225 131.944 445.948C131.664 445.67 131.467 445.32 131.378 444.936C131.289 444.552 131.309 444.151 131.438 443.779C131.567 443.406 131.799 443.078 132.106 442.831C132.414 442.584 132.784 442.43 133.176 442.384C133.568 442.339 133.964 442.406 134.32 442.576C134.676 442.746 134.976 443.013 135.186 443.346C135.396 443.68 135.508 444.066 135.509 444.46C135.422 445.055 135.109 445.594 134.634 445.963C134.16 446.333 133.56 446.505 132.962 446.443V446.503ZM98.2849 446.503C97.7707 444.46 90.1299 447.519 90.1299 447.519C90.1299 447.519 92.6769 437.84 88.5993 437.84C84.5218 437.84 84.0077 445.009 84.0077 445.009C84.0077 445.009 76.3549 441.95 76.3549 446.539C76.3549 451.127 81.4607 451.127 81.4607 451.127C81.4607 451.127 75.3385 458.763 79.9302 460.293C84.5218 461.822 87.571 456.218 87.571 456.218C87.571 456.218 90.6321 461.309 94.7455 459.277C98.8589 457.246 95.7738 452.657 95.7738 452.657C95.7738 452.657 98.7991 448.475 98.2969 446.443L98.2849 446.503ZM88.0852 454.139C87.6998 454.053 87.3465 453.86 87.0662 453.582C86.7858 453.305 86.5898 452.953 86.5009 452.569C86.4119 452.184 86.4335 451.783 86.5633 451.41C86.6931 451.038 86.9257 450.709 87.2342 450.463C87.5428 450.217 87.9148 450.063 88.3071 450.019C88.6995 449.975 89.0962 450.043 89.4516 450.215C89.8069 450.387 90.1063 450.656 90.3152 450.991C90.5241 451.326 90.634 451.713 90.6321 452.107C90.543 452.698 90.2303 453.232 89.7586 453.599C89.2868 453.966 88.692 454.138 88.0971 454.079L88.0852 454.139ZM153.851 406.759H159.459C163.537 406.759 166.084 411.347 166.084 411.347C157.427 413.833 153.863 406.699 153.863 406.699L153.851 406.759ZM148.243 446.503H153.851C157.929 446.503 160.476 451.092 160.476 451.092C151.819 453.577 148.255 446.443 148.255 446.443L148.243 446.503ZM99.3133 438.855H104.921C108.999 438.855 111.546 443.444 111.546 443.444C102.877 445.929 99.3133 438.855 99.3133 438.855ZM126.421 402.899L129.697 407.452C132.089 410.774 129.829 415.506 129.829 415.506C122.702 409.902 126.421 402.839 126.421 402.839V402.899ZM98.3686 418.123L100.928 413.14C102.805 409.555 108.042 409.34 108.042 409.34C106.284 418.206 98.3686 418.123 98.3686 418.123Z" fill="white"/>
<path d="M372.064 391.416C371.55 389.384 363.897 392.443 363.897 392.443C363.897 392.443 366.456 382.764 362.378 382.764C358.301 382.764 357.787 389.934 357.787 389.934C357.787 389.934 350.134 386.887 350.134 391.463C350.134 396.04 355.24 396.052 355.24 396.052C355.24 396.052 349.118 403.7 353.709 405.229C358.301 406.759 361.35 401.143 361.35 401.143C361.35 401.143 364.411 406.245 368.525 404.202C372.638 402.158 369.541 397.582 369.541 397.582C369.541 397.582 372.566 393.447 372.064 391.416ZM361.864 399.063C361.479 398.978 361.127 398.785 360.846 398.508C360.566 398.231 360.37 397.88 360.281 397.496C360.191 397.113 360.212 396.711 360.341 396.339C360.47 395.967 360.701 395.638 361.009 395.391C361.316 395.145 361.687 394.99 362.079 394.945C362.47 394.9 362.867 394.966 363.223 395.136C363.578 395.306 363.878 395.573 364.089 395.907C364.299 396.24 364.411 396.626 364.411 397.02C364.339 397.626 364.032 398.18 363.556 398.562C363.079 398.944 362.472 399.124 361.864 399.063ZM396.015 431.16C395.513 429.116 387.86 432.176 387.86 432.176C387.86 432.176 390.407 422.496 386.329 422.496C382.252 422.496 381.75 429.666 381.75 429.666C381.75 429.666 374.097 426.607 374.097 431.196C374.097 435.784 379.191 435.784 379.191 435.784C379.191 435.784 373.08 443.42 377.672 444.95C382.264 446.479 385.313 440.875 385.313 440.875C385.313 440.875 388.374 445.965 392.487 443.934C396.601 441.902 393.504 437.314 393.504 437.314C393.504 437.314 396.529 433.191 396.015 431.16ZM385.827 438.855C385.442 438.77 385.088 438.577 384.808 438.299C384.528 438.021 384.332 437.67 384.243 437.285C384.154 436.901 384.175 436.499 384.305 436.127C384.435 435.754 384.668 435.426 384.976 435.18C385.285 434.934 385.657 434.78 386.049 434.736C386.441 434.692 386.838 434.76 387.194 434.932C387.549 435.104 387.848 435.373 388.057 435.708C388.266 436.042 388.376 436.429 388.374 436.824C388.299 437.428 387.991 437.978 387.515 438.358C387.039 438.738 386.433 438.916 385.827 438.855ZM370.533 446.503C370.019 444.46 362.378 447.519 362.378 447.519C362.378 447.519 364.925 437.84 360.848 437.84C356.77 437.84 356.256 445.009 356.256 445.009C356.256 445.009 348.603 441.95 348.603 446.539C348.603 451.128 353.709 451.128 353.709 451.128C353.709 451.128 347.587 458.763 352.179 460.293C356.77 461.822 359.82 456.218 359.82 456.218C359.82 456.218 362.881 461.309 366.994 459.277C371.107 457.246 368.022 452.657 368.022 452.657C368.022 452.657 371 448.475 370.533 446.443V446.503ZM360.334 454.139C359.948 454.053 359.595 453.86 359.315 453.582C359.034 453.305 358.838 452.953 358.749 452.569C358.66 452.185 358.682 451.783 358.812 451.41C358.942 451.038 359.174 450.709 359.483 450.463C359.791 450.217 360.163 450.063 360.556 450.019C360.948 449.976 361.345 450.044 361.7 450.215C362.055 450.387 362.355 450.656 362.564 450.991C362.773 451.326 362.883 451.713 362.881 452.107C362.792 452.7 362.477 453.236 362.003 453.604C361.528 453.971 360.931 454.141 360.334 454.079V454.139ZM393.982 416.438H399.59C403.668 416.438 406.215 421.027 406.215 421.027C397.546 423.512 393.982 416.378 393.982 416.378V416.438ZM333.824 445.428H339.432C343.51 445.428 346.057 450.004 346.057 450.004C337.387 452.561 333.824 445.428 333.824 445.428ZM366.54 412.566L369.816 417.119C372.208 420.441 369.948 425.173 369.948 425.173C362.821 419.581 366.54 412.566 366.54 412.566ZM399.698 441.054L402.962 445.607C405.354 448.917 403.094 453.661 403.094 453.661C395.967 448.104 399.698 441.054 399.698 441.054ZM338.44 427.802L340.998 422.819C342.876 419.234 348.173 419.019 348.173 419.019C346.403 427.886 338.428 427.802 338.428 427.802H338.44Z" fill="white"/>
</g>
</svg>
