<svg width="582" height="509" viewBox="0 0 582 509" fill="none" xmlns="http://www.w3.org/2000/svg">
<path d="M438.981 29.6482C438.981 29.6482 352.051 -18.9699 252.345 17.9575C152.639 54.885 89.0148 151.035 35.4662 227.635C-18.0823 304.236 -9.95201 392.753 52.8129 443.166C115.578 493.579 172.43 444.674 270.175 458.447C367.92 472.219 391.707 490.562 481.79 449.396C571.872 408.23 608.587 280.93 561.283 174.115C513.979 67.2997 438.981 29.6482 438.981 29.6482Z" fill="#2883EE"/>
<path opacity="0.8" d="M438.981 29.6482C438.981 29.6482 352.051 -18.9699 252.345 17.9575C152.639 54.885 89.0148 151.035 35.4662 227.635C-18.0823 304.236 -9.95201 392.753 52.8129 443.166C115.578 493.579 172.43 444.674 270.175 458.447C367.92 472.219 391.707 490.562 481.79 449.396C571.872 408.23 608.587 280.93 561.283 174.115C513.979 67.2997 438.981 29.6482 438.981 29.6482Z" fill="white"/>
<path d="M518.082 164.973C510.645 160.915 507.266 164.294 504.506 160.915C501.746 157.536 511.942 148.742 491.654 139.948C491.654 139.948 490.312 121.016 462.587 120.338C434.863 119.659 442.405 139.284 434.863 144.005C427.321 148.727 425.39 141.305 417.953 146.042C410.517 150.779 413.896 160.237 407.817 161.594C401.738 162.952 393.623 155.56 386.186 160.237C378.75 164.913 378.75 169.031 375.356 169.031C371.962 169.031 365.219 166.331 361.162 169.031C357.104 171.731 352.368 175.065 352.368 175.065H523.497C523.497 175.065 525.533 169.031 518.082 164.973Z" fill="white"/>
<path opacity="0.5" d="M518.082 164.973C510.645 160.915 507.266 164.294 504.506 160.915C501.746 157.536 511.942 148.742 491.654 139.948C491.654 139.948 490.312 121.016 462.587 120.338C434.863 119.659 442.405 139.284 434.863 144.005C427.321 148.727 425.39 141.305 417.953 146.042C410.517 150.779 413.896 160.237 407.817 161.594C401.738 162.952 393.623 155.56 386.186 160.237C378.75 164.913 378.75 169.031 375.356 169.031C371.962 169.031 365.219 166.331 361.162 169.031C357.104 171.731 352.368 175.065 352.368 175.065H523.497C523.497 175.065 525.533 169.031 518.082 164.973Z" fill="white"/>
<path d="M259.088 78.4772C254.683 76.0787 252.677 78.085 251.078 76.0787C249.479 74.0724 255.483 68.8682 243.536 63.6489C243.536 63.6489 242.737 52.4258 226.31 52.0336C209.884 51.6414 214.243 63.2567 209.884 66.0624C205.524 68.8682 204.272 64.4635 199.853 67.2541C195.433 70.0448 197.454 75.6714 193.819 76.486C190.184 77.3006 185.402 72.8656 180.998 75.6714C176.593 78.4772 176.593 80.8907 174.587 80.8907C172.581 80.8907 168.553 79.2767 166.17 80.8907C163.787 82.5048 160.966 84.496 160.966 84.496H262.301C262.301 84.496 263.508 80.936 259.088 78.4772Z" fill="white"/>
<path opacity="0.5" d="M259.088 78.4772C254.683 76.0787 252.677 78.085 251.078 76.0787C249.479 74.0724 255.483 68.8682 243.536 63.6489C243.536 63.6489 242.737 52.4258 226.31 52.0336C209.884 51.6414 214.243 63.2567 209.884 66.0624C205.524 68.8682 204.272 64.4635 199.853 67.2541C195.433 70.0448 197.454 75.6714 193.819 76.486C190.184 77.3006 185.402 72.8656 180.998 75.6714C176.593 78.4772 176.593 80.8907 174.587 80.8907C172.581 80.8907 168.553 79.2767 166.17 80.8907C163.787 82.5048 160.966 84.496 160.966 84.496H262.301C262.301 84.496 263.508 80.936 259.088 78.4772Z" fill="white"/>
<path d="M320.889 412.649C308.218 405.725 302.456 411.488 297.841 405.725C293.225 399.963 310.511 384.999 275.954 370.02C275.954 370.02 273.646 337.754 226.417 336.607C179.189 335.461 191.845 368.858 179.174 376.929C166.503 384.999 163.049 372.313 150.378 380.383C137.708 388.453 143.455 404.519 133.092 406.887C122.729 409.255 108.957 396.509 96.2265 404.579C83.4955 412.649 83.5559 419.558 77.7937 419.558C72.0316 419.558 60.5074 414.942 53.6592 419.558C46.811 424.174 38.6807 429.921 38.6807 429.921H330.105C330.105 429.921 333.56 419.558 320.889 412.649Z" fill="white"/>
<path opacity="0.5" d="M320.889 412.649C308.218 405.725 302.456 411.488 297.841 405.725C293.225 399.963 310.511 384.999 275.954 370.02C275.954 370.02 273.646 337.754 226.417 336.607C179.189 335.461 191.845 368.858 179.174 376.929C166.503 384.999 163.049 372.313 150.378 380.383C137.708 388.453 143.455 404.519 133.092 406.887C122.729 409.255 108.957 396.509 96.2265 404.579C83.4955 412.649 83.5559 419.558 77.7937 419.558C72.0316 419.558 60.5074 414.942 53.6592 419.558C46.811 424.174 38.6807 429.921 38.6807 429.921H330.105C330.105 429.921 333.56 419.558 320.889 412.649Z" fill="white"/>
<path d="M107.945 363.519C107.945 363.519 100.494 356.987 92.7857 354.754C85.0778 352.522 76.1932 352.477 68.5154 350.38C60.8376 348.283 56.2521 346.518 56.2521 346.518L55.8599 353.457L107.628 367.441L143.046 357.636L146.576 350.44C142.716 352.237 138.669 353.598 134.508 354.498C126.8 356.323 118.172 356.323 113.391 358.163C108.609 360.004 107.945 363.519 107.945 363.519Z" fill="white" stroke="#263238" stroke-linecap="round" stroke-linejoin="round"/>
<path d="M55.1359 348.087C65.2553 351.182 75.6282 353.378 86.1338 354.649C94.0353 355.721 101.538 358.772 107.945 363.518C113.157 360.187 119.157 358.293 125.337 358.028C132.771 357.464 140.104 355.969 147.164 353.577L144.947 358.103L106.905 365.555L54.3516 351.828L55.1359 348.087Z" fill="white" stroke="#263238" stroke-linecap="round" stroke-linejoin="round"/>
<path d="M53.7027 349.656C61.7431 352.737 70.1681 354.702 78.7423 355.494C92.7403 356.549 107.553 363.519 107.553 363.519C113.282 360.629 119.572 359.023 125.986 358.812C133.183 358.75 140.344 357.782 147.3 355.931C147.083 356.653 147.029 357.415 147.141 358.161C147.253 358.907 147.529 359.618 147.948 360.245L107.417 368.874L53.4312 353.186L53.7027 349.656Z" fill="white" stroke="#263238" stroke-linecap="round" stroke-linejoin="round"/>
<path d="M53.0391 352.537L105.728 365.736V367.546L110.163 367.667V365.585L149.125 359.43C149.125 359.43 150.829 359.038 149.381 360.939C147.933 362.84 122.848 384.743 122.848 384.743L95.0031 387.609L52.7676 378.332L53.0391 352.537Z" fill="#2883EE"/>
<path opacity="0.3" d="M105.728 367.576V365.736L53.0392 352.537L52.7827 378.422L95.0031 387.699L95.7573 387.624L106.904 367.606L105.728 367.576Z" fill="black"/>
<path d="M53.0391 352.537L105.728 365.736V367.546L110.163 367.667V365.585L149.125 359.43C149.125 359.43 150.829 359.038 149.381 360.939C147.933 362.84 122.848 384.743 122.848 384.743L95.0031 387.609L52.7676 378.332L53.0391 352.537Z" stroke="#263238" stroke-linecap="round" stroke-linejoin="round"/>
<path d="M105.73 367.576L94.0845 387.699L96.317 387.835L110.165 367.697L105.73 367.576Z" fill="#2883EE" stroke="#263238" stroke-linecap="round" stroke-linejoin="round"/>
<path d="M103.859 490.26C103.859 490.26 101.325 495.57 97.9459 497.999C94.567 500.427 90.2529 501.574 86.8438 503.912C84.9921 505.165 83.2189 506.53 81.5341 508L80.1765 503.384L103.014 487.651L121.945 489.944L124.872 494.348C122.757 493.632 120.554 493.206 118.325 493.081C114.267 492.795 110.059 493.85 107.389 493.202C106.619 493.003 105.904 492.636 105.293 492.128C104.683 491.619 104.193 490.981 103.859 490.26Z" fill="white" stroke="#263238" stroke-linecap="round" stroke-linejoin="round"/>
<path d="M80.7045 507.08C85.0431 503.817 89.7457 501.068 94.7179 498.889C98.562 496.996 101.747 493.989 103.859 490.26C106.751 491.768 110.054 492.297 113.272 491.769C117.06 491.248 120.909 491.36 124.66 492.101L122.805 489.28L103.014 488.978L79.6938 504.621L80.7045 507.08Z" fill="white" stroke="#263238" stroke-linecap="round" stroke-linejoin="round"/>
<path d="M79.7389 506.205C83.0402 503.228 86.8456 500.863 90.9768 499.221C97.6139 496.807 103.678 490.306 103.678 490.306C106.786 491.52 110.172 491.839 113.453 491.226C117.014 490.392 120.693 490.172 124.328 490.577C123.872 489.642 123.729 488.584 123.921 487.56L102.712 486.716L79.0149 503.867L79.7389 506.205Z" fill="white" stroke="#263238" stroke-linecap="round" stroke-linejoin="round"/>
<path d="M78.8793 504.35L102.351 489.023L102.034 487.802L104.191 487.168L104.538 488.571L124.57 487.967C124.57 487.967 125.46 487.967 124.434 486.881C123.408 485.795 107.54 474.074 107.54 474.074L93.4659 475.583L74.4294 486.972L78.8793 504.35Z" fill="#C6FF00"/>
<path opacity="0.3" d="M102.095 487.802L102.412 489.023L78.9398 504.35L74.4446 486.927L93.4815 475.538L93.8586 475.492L102.668 487.636L102.095 487.802Z" fill="black"/>
<path d="M78.8793 504.35L102.351 489.023L102.034 487.802L104.191 487.168L104.538 488.571L124.57 487.967C124.57 487.967 125.46 487.967 124.434 486.881C123.408 485.795 107.54 474.074 107.54 474.074L93.4659 475.583L74.4294 486.972L78.8793 504.35Z" fill="#2883EE"/>
<path d="M102.095 487.802L93.0437 475.643L94.0996 475.281L104.252 487.168L102.095 487.802Z" fill="#2883EE" stroke="#263238" stroke-linecap="round" stroke-linejoin="round"/>
<path d="M454.804 327.888L497.401 371.031L406.444 396.66L400.426 353.412L454.804 327.888Z" fill="#2883EE" stroke="#263238" stroke-linecap="round" stroke-linejoin="round"/>
<path d="M492.499 377.261L398.42 404.911L406.007 355.192L453.477 334.013L492.499 377.261Z" fill="white" stroke="#263238" stroke-linecap="round" stroke-linejoin="round"/>
<path d="M455.709 336.698L490.704 381.952L402.432 407.581L412.689 353.185L455.709 336.698Z" fill="white"/>
<path opacity="0.17" d="M455.709 336.698L490.704 381.952L402.432 407.581L412.689 353.185L455.709 336.698Z" fill="black"/>
<path d="M455.709 336.698L490.704 381.952L402.432 407.581L412.689 353.185L455.709 336.698Z" stroke="#263238" stroke-linecap="round" stroke-linejoin="round"/>
<path d="M455.709 336.698L439.659 392.421L377.015 411.382L401.089 360.094L455.709 336.698Z" fill="white" stroke="#263238" stroke-linecap="round" stroke-linejoin="round"/>
<path d="M435.21 387.971L374.798 408.26L373.003 399.782L428.965 379.719L435.21 387.971Z" fill="white" stroke="#263238" stroke-linecap="round" stroke-linejoin="round"/>
<path d="M454.155 329.11L494.279 370.805L492.499 377.261L455.709 336.698L435.21 387.971L428.965 379.72L454.155 329.11Z" fill="white" stroke="#263238" stroke-linecap="round" stroke-linejoin="round"/>
<path d="M454.804 327.888L429.191 381.288L370.107 401.351L400.426 353.412L454.804 327.888Z" fill="#C6FF00"/>
<path d="M454.804 327.888L429.191 381.288L370.107 401.351L400.426 353.412L454.804 327.888Z" fill="#2883EE"/>
<path d="M454.804 327.888L429.191 381.288L370.107 401.351L400.426 353.412L454.804 327.888Z" stroke="#263238" stroke-linecap="round" stroke-linejoin="round"/>
<path d="M397.982 358.329L445.513 336.637" stroke="#263238" stroke-linecap="round" stroke-linejoin="round"/>
<path d="M256.901 482.914L300.524 429.243L210.532 425.019L203.367 470.107L256.901 482.914Z" fill="#2883EE" stroke="#263238" stroke-linecap="round" stroke-linejoin="round"/>
<path d="M295.803 424.114L202.749 418.608L208.963 466.985L255.739 477.061L295.803 424.114Z" fill="white" stroke="#263238" stroke-linecap="round" stroke-linejoin="round"/>
<path d="M258.032 473.818L294.143 419.799L206.822 414.942L215.585 467.407L258.032 473.818Z" fill="white"/>
<path opacity="0.17" d="M258.032 473.818L294.143 419.799L206.822 414.942L215.585 467.407L258.032 473.818Z" fill="black"/>
<path d="M258.032 473.818L294.143 419.799L206.822 414.942L215.585 467.407L258.032 473.818Z" stroke="#263238" stroke-linecap="round" stroke-linejoin="round"/>
<path d="M258.032 473.818L243.536 421.383L181.586 417.175L204.212 463.198L258.032 473.818Z" fill="white" stroke="#263238" stroke-linecap="round" stroke-linejoin="round"/>
<path d="M238.966 426.95L179.278 420.855L177.272 429.831L232.525 436.755L238.966 426.95Z" fill="white" stroke="#263238" stroke-linecap="round" stroke-linejoin="round"/>
<path d="M256.267 481.843L297.402 430.208L295.803 424.114L258.032 473.818L238.966 426.95L232.525 436.755L256.267 481.843Z" fill="white" stroke="#263238" stroke-linecap="round" stroke-linejoin="round"/>
<path d="M256.901 482.914L232.781 435.126L174.421 428.941L203.367 470.107L256.901 482.914Z" fill="#C6FF00"/>
<path d="M256.901 482.914L232.781 435.126L174.421 428.941L203.367 470.107L256.901 482.914Z" fill="#2883EE"/>
<path d="M256.901 482.914L232.781 435.126L174.421 428.941L203.367 470.107L256.901 482.914Z" stroke="#263238" stroke-linecap="round" stroke-linejoin="round"/>
<path d="M198.917 464.164L246.448 474.165" stroke="#263238" stroke-linecap="round" stroke-linejoin="round"/>
<path d="M292.273 122.012C292.273 122.012 272.513 131.561 264.609 143.131C256.705 154.701 259.013 176.061 271.186 182.969C283.358 189.878 325.85 215.251 355.822 211.63C385.795 208.01 381.179 177.373 366.034 165.185C350.89 152.996 330.466 142.135 330.466 142.135C330.466 142.135 329.486 135.558 328.158 133.25C326.831 130.942 311.701 116.084 292.273 122.012Z" fill="#263238" stroke="#263238" stroke-linecap="round" stroke-linejoin="round"/>
<path d="M372.49 172.395C327.63 158.668 298.08 183.241 288.818 192.654C307.372 202.293 334.704 214.135 355.822 211.585C380.892 208.553 381.752 186.605 372.49 172.395Z" fill="white" stroke="#263238" stroke-linecap="round" stroke-linejoin="round"/>
<path d="M341.99 168.775C341.99 168.775 368.343 189.893 359.111 210.921" stroke="#263238" stroke-linecap="round" stroke-linejoin="round"/>
<path d="M255.499 112.81L244.939 162.062H253.432L274.37 123.249C274.37 123.249 270.282 110.804 255.499 112.81Z" fill="white" stroke="#263238" stroke-linecap="round" stroke-linejoin="round"/>
<path d="M388.208 88.9162C379.565 78.3569 368.146 68.5669 347.224 66.8925C347.224 66.8925 329.395 66.3344 305.14 76.6524C286.179 84.7076 265.921 102.296 255.498 112.856C264.82 115.224 270.371 119.04 274.383 123.294C278.516 119.357 282.121 115.933 284.776 113.776C293.706 106.52 306.814 100.396 306.814 100.396C306.814 100.396 292.59 119.9 289.799 124.923C287.009 129.947 288.97 138.032 303.737 140.265C318.504 142.497 322.14 139.707 327.992 136.358C333.845 133.009 341.1 129.947 343.891 129.947C349.467 130.342 355.002 128.738 359.503 125.421C366.743 120.398 369.82 106.188 372.324 105.072C374.044 104.303 389.264 124.154 401.12 139.058L402.146 138.53C407.304 135.875 411.332 130.46 414.092 125.693C404.499 111.679 393.804 95.7647 388.208 88.9162Z" fill="#2883EE"/>
<path d="M338.234 76.26C338.234 76.26 332.321 90.4849 344.163 95.8702" stroke="#263238" stroke-linecap="round" stroke-linejoin="round"/>
<path d="M306.814 100.35L319.666 96.5491" stroke="#263238" stroke-linecap="round" stroke-linejoin="round"/>
<path d="M306.648 125.165C306.648 125.165 314.749 132.315 333.71 124.229" stroke="#263238" stroke-linecap="round" stroke-linejoin="round"/>
<path d="M380.636 99.6562C375.96 100.275 372.324 105.087 372.324 105.087C377.72 103.937 383.207 103.266 388.721 103.08" stroke="#263238" stroke-linecap="round" stroke-linejoin="round"/>
<path d="M307.237 101.527C307.237 101.527 315.941 101.527 324.343 101.21" stroke="#263238" stroke-linecap="round" stroke-linejoin="round"/>
<path d="M311.897 121.424C311.897 121.424 312.832 127.035 324.961 126.402" stroke="#263238" stroke-linecap="round" stroke-linejoin="round"/>
<path d="M344.162 71.6289C344.162 71.6289 342.216 81.6602 343.604 86.955C344.992 92.2497 350.015 98.3892 353.65 91.9782C357.286 85.5672 359.217 78.4019 359.217 74.9777C359.217 71.5535 346.666 65.2179 344.162 71.6289Z" fill="white" stroke="#263238" stroke-linecap="round" stroke-linejoin="round"/>
<path d="M372.324 59.0785C372.324 59.0785 380.123 57.4041 386.82 48.7605C393.517 40.117 384.874 39.0158 382.084 30.6589C379.293 22.3019 389.113 25.0775 374.904 10.5811C360.694 -3.91534 337.54 1.10788 326.635 5.84448C315.729 10.5811 316.076 26.4804 308.247 27.5967C300.418 28.7129 297.085 21.1857 287.612 21.1857C278.139 21.1857 268.093 31.217 272 39.5739C275.907 47.9309 283.434 44.3256 283.992 42.9228C284.55 41.5199 280.085 43.2094 279.798 39.0158C279.512 34.8223 289.829 37.0699 292.906 42.6512C295.395 47.1767 290.825 53.6027 290.976 58.3544C291.292 67.888 302.968 73.9822 310.464 75.2946C320.586 77.0595 332.894 76.441 342.066 71.4178C353.333 65.2331 348.099 52.4111 356.395 49.0622C364.692 45.7134 368.945 50.7366 368.945 50.7366L372.324 59.0785Z" fill="#263238" stroke="#263238" stroke-linecap="round" stroke-linejoin="round"/>
<path d="M287.114 26.3599C285.678 25.7357 284.097 25.5196 282.546 25.7351C280.994 25.9507 279.532 26.5896 278.32 27.5817" stroke="white" stroke-linecap="round" stroke-linejoin="round"/>
<path d="M361.509 34.1737C361.509 34.1737 361.509 17.5805 349.864 14.2015C338.219 10.8226 324.915 25.847 318.188 35.3202C311.46 44.7934 301.595 42.5307 294.34 32.5446C293.658 31.5819 292.901 30.674 292.077 29.8293" stroke="white" stroke-linecap="round" stroke-linejoin="round"/>
<path d="M295.517 65.2934C301.55 69.1702 306.075 70.2865 314.93 67.5109C323.784 64.7353 322.698 50.3143 330.451 42.5607C338.205 34.8072 352.082 37.5677 352.082 37.5677C352.082 37.5677 336.56 29.2409 324.357 38.1107C312.154 46.9806 313.256 61.9597 302.169 64.7353" stroke="white" stroke-linecap="round" stroke-linejoin="round"/>
<path d="M369.277 35.8932C369.277 35.8932 379.837 33.1177 379.263 23.6897" stroke="white" stroke-linecap="round" stroke-linejoin="round"/>
<path d="M282.393 142.784C282.393 142.784 311.054 146.404 325.535 156.36" stroke="white" stroke-linecap="round" stroke-linejoin="round"/>
<path d="M363.23 39.4835C361.444 38.9715 359.55 38.9837 357.771 39.5186C355.992 40.0535 354.405 41.0886 353.198 42.5004C348.462 47.5086 348.673 50.0428 344.721 53.1654C343.542 54.1959 342.056 54.809 340.494 54.9099C338.931 55.0108 337.379 54.5938 336.077 53.7235C334.403 52.8938 332.457 53.452 331.899 57.3438C331.341 61.2357 336.635 64.313 337.48 64.313C338.32 64.3586 339.156 64.4543 339.984 64.5996C339.984 64.5996 339.984 71.5687 344.721 75.7472C349.457 79.9257 358.946 86.6233 365.357 85.2355C371.768 83.8477 374.272 69.0647 374.272 61.5374C374.037 53.9051 372.533 46.3652 369.822 39.2271C367.861 34.8223 363.23 39.4835 363.23 39.4835Z" fill="white" stroke="#263238" stroke-linecap="round" stroke-linejoin="round"/>
<path d="M357.934 56.4235C357.934 57.932 357.391 59.2292 356.697 59.2292C356.003 59.2292 355.445 57.9772 355.445 56.4235C355.445 54.8698 356.003 53.6328 356.697 53.6328C357.391 53.6328 357.934 54.8848 357.934 56.4235Z" fill="#263238"/>
<path d="M367.874 55.4882C367.874 56.9967 367.316 58.2939 366.638 58.2939C365.959 58.2939 365.385 57.0419 365.385 55.4882C365.385 53.9345 365.944 52.6975 366.638 52.6975C367.331 52.6975 367.874 53.9495 367.874 55.4882Z" fill="#263238"/>
<path d="M352.021 50.767C352.021 50.767 353.876 47.9764 358.553 49.2586" stroke="#263238" stroke-linecap="round" stroke-linejoin="round"/>
<path d="M363.832 49.2585C363.832 49.2585 366.939 45.8342 369.745 49.2585" stroke="#263238" stroke-linecap="round" stroke-linejoin="round"/>
<path d="M363.53 55.4883C363.53 55.4883 363.832 61.7183 365.702 61.7183C367.573 61.7183 366.939 64.509 364.45 65.4442" stroke="#263238" stroke-linecap="round" stroke-linejoin="round"/>
<path d="M361.962 71.6743C361.962 71.6743 356.365 74.1633 354.193 68.5518" stroke="#263238" stroke-linecap="round" stroke-linejoin="round"/>
<path d="M363.275 209.368C363.275 209.368 331.598 181.582 298.775 172.124C265.952 162.666 228.182 167.116 195.374 158.231C162.566 149.346 143.68 137.112 143.68 137.112L142.006 166.573L362.234 226.067L512.894 184.373L527.903 153.796C527.903 153.796 509.56 163.239 476.752 171.023C443.944 178.806 407.185 178.791 386.595 186.53C366.005 194.268 363.275 209.368 363.275 209.368Z" fill="white" stroke="#263238" stroke-linecap="round" stroke-linejoin="round"/>
<path d="M138.672 143.764C138.672 143.764 175.417 166.014 258.198 173.798C312.727 178.912 363.274 209.368 363.274 209.368C385.423 195.206 410.921 187.15 437.186 186.017C480.553 184.357 530.029 167.115 530.029 167.115L520.601 186.529L358.824 218.207L135.338 159.829L138.672 143.764Z" fill="white" stroke="#263238" stroke-linecap="round" stroke-linejoin="round"/>
<path d="M132.563 150.447C163.837 164.573 197.31 173.207 231.515 175.97C290.991 180.42 361.6 209.322 361.6 209.322C361.6 209.322 398.843 189.32 440.037 189.32C470.634 189.059 501.077 184.949 530.647 177.086C529.728 180.159 529.5 183.398 529.98 186.569C530.46 189.74 531.636 192.766 533.423 195.429L361.042 232.161L131.447 165.411L132.563 150.447Z" fill="white" stroke="#263238" stroke-linecap="round" stroke-linejoin="round"/>
<path d="M133.679 163.646L353.816 218.826V226.61L372.716 227.168V218.208L538.385 192.081C538.385 192.081 545.61 190.406 539.501 198.748C533.392 207.09 426.642 299.937 426.642 299.937L308.232 312.17L128.656 272.754L129.727 166.693C129.73 166.212 129.843 165.738 130.057 165.307C130.27 164.877 130.579 164.5 130.96 164.206C131.341 163.913 131.784 163.71 132.255 163.613C132.726 163.515 133.213 163.527 133.679 163.646Z" fill="#C6FF00"/>
<path opacity="0.3" d="M353.816 226.61V218.826L129.772 162.68L128.671 272.754L308.232 312.23L311.445 311.899L358.839 226.76L353.816 226.61Z" fill="black"/>
<path d="M133.679 163.646L353.816 218.826V226.61L372.716 227.168V218.208L538.385 192.081C538.385 192.081 545.61 190.406 539.501 198.748C533.392 207.09 426.642 299.937 426.642 299.937L308.232 312.17L128.656 272.754L129.727 166.693C129.73 166.212 129.843 165.738 130.057 165.307C130.27 164.877 130.579 164.5 130.96 164.206C131.341 163.913 131.784 163.71 132.255 163.613C132.726 163.515 133.213 163.527 133.679 163.646Z" fill="#2883EE"/>
<path d="M353.816 226.61L304.34 312.231L313.798 312.774L372.717 227.168L353.816 226.61Z" fill="#2883EE"/>
<path d="M518.942 195.58C518.942 195.58 533.71 198.341 530.633 208.191L539.502 198.778C539.502 198.778 543.56 193.725 541.705 192.744C539.849 191.764 518.942 195.58 518.942 195.58Z" fill="#263238"/>
<path d="M154.089 169.242C154.089 169.242 133.196 175.02 129.953 190.632L129.772 166.693C129.772 166.693 130.406 163.088 133.709 163.676C137.013 164.264 154.089 169.242 154.089 169.242Z" fill="#263238"/>
<path d="M128.867 265.423L139.366 275.424L128.671 272.754L128.867 265.423Z" fill="#263238"/>
<path d="M419.085 300.645L433.325 293.646L425.828 300.148L419.085 300.645Z" fill="#263238"/>
<path d="M414.092 125.708L454.155 173.738L444.064 175.337L401.12 139.133C401.12 139.133 412.237 131.847 414.092 125.708Z" fill="white" stroke="#263238" stroke-linecap="round" stroke-linejoin="round"/>
<path d="M236.432 157.657C236.432 157.657 234.426 155.229 233.913 157.401C233.4 159.573 228.86 167.115 232.405 167.643C235.95 168.171 237.956 159.558 237.956 159.558L236.432 157.657Z" fill="white" stroke="#263238" stroke-linecap="round" stroke-linejoin="round"/>
<path d="M241.229 157.371C241.229 157.371 239.207 154.942 238.71 157.099C238.212 159.256 233.656 166.814 237.201 167.357C240.746 167.9 242.767 159.256 242.767 159.256L241.229 157.371Z" fill="white" stroke="#263238" stroke-linecap="round" stroke-linejoin="round"/>
<path d="M246.04 157.189C246.04 157.189 243.642 154.489 243.023 156.888C242.405 159.286 236.99 167.673 241.228 168.277C245.467 168.88 247.82 159.226 247.82 159.226L246.04 157.189Z" fill="white" stroke="#263238" stroke-linecap="round" stroke-linejoin="round"/>
<path d="M250.234 158.095L258.319 165.878H248.74L250.234 158.095Z" fill="white" stroke="#263238" stroke-linecap="round" stroke-linejoin="round"/>
<path d="M250.234 158.095C250.234 158.095 247.835 155.395 247.217 157.793C246.598 160.192 241.183 168.579 245.422 169.167C249.661 169.755 252.014 160.116 252.014 160.116L250.234 158.095Z" fill="white" stroke="#263238" stroke-linecap="round" stroke-linejoin="round"/>
<path d="M465.031 165.079C465.031 165.079 466.645 162.364 467.49 164.415C468.335 166.467 473.991 173.225 470.597 174.311C467.203 175.397 463.839 167.191 463.839 167.191L465.031 165.079Z" fill="white" stroke="#263238" stroke-linecap="round" stroke-linejoin="round"/>
<path d="M460.295 165.531C460.295 165.531 461.909 162.816 462.754 164.868C463.598 166.919 469.27 173.677 465.861 174.763C462.452 175.849 459.103 167.643 459.103 167.643L460.295 165.531Z" fill="white" stroke="#263238" stroke-linecap="round" stroke-linejoin="round"/>
<path d="M455.528 166.12C455.528 166.12 457.474 163.103 458.44 165.35C459.405 167.598 465.982 175.065 462 176.317C458.017 177.569 454.08 168.473 454.08 168.473L455.528 166.12Z" fill="white" stroke="#263238" stroke-linecap="round" stroke-linejoin="round"/>
<path d="M451.531 167.674L444.758 176.634L454.232 175.125L451.531 167.674Z" fill="white" stroke="#263238" stroke-linecap="round" stroke-linejoin="round"/>
<path d="M451.531 167.674C451.531 167.674 453.462 164.657 454.443 166.904C455.423 169.152 461.985 176.604 458.002 177.856C454.02 179.108 450.083 170.027 450.083 170.027L451.531 167.674Z" fill="white" stroke="#263238" stroke-linecap="round" stroke-linejoin="round"/>
<path d="M173.445 308.809C181.062 301.192 181.062 288.842 173.445 281.225C165.828 273.608 153.479 273.608 145.862 281.225C138.245 288.842 138.245 301.192 145.862 308.809C153.479 316.426 165.828 316.426 173.445 308.809Z" fill="white"/>
<path d="M113.431 236.44C118.857 231.015 118.857 222.218 113.431 216.793C108.006 211.367 99.2089 211.367 93.7833 216.793C88.3578 222.218 88.3578 231.015 93.7833 236.44C99.2089 241.866 108.006 241.866 113.431 236.44Z" fill="white"/>
<path d="M459.082 266.994C466.516 265.094 471.002 257.527 469.102 250.093C467.201 242.659 459.634 238.173 452.201 240.074C444.767 241.974 440.281 249.541 442.181 256.975C444.082 264.409 451.649 268.895 459.082 266.994Z" fill="white"/>
<path d="M320.996 351.346C328.578 350.163 333.764 343.058 332.581 335.477C331.398 327.896 324.293 322.709 316.712 323.892C309.131 325.076 303.944 332.18 305.127 339.762C306.31 347.343 313.415 352.529 320.996 351.346Z" fill="white"/>
<path d="M352.957 308.565C360.63 308.565 366.85 302.345 366.85 294.672C366.85 286.999 360.63 280.779 352.957 280.779C345.284 280.779 339.064 286.999 339.064 294.672C339.064 302.345 345.284 308.565 352.957 308.565Z" fill="white"/>
<path d="M345.988 393.673C351.061 393.673 355.175 389.56 355.175 384.486C355.175 379.413 351.061 375.3 345.988 375.3C340.914 375.3 336.801 379.413 336.801 384.486C336.801 389.56 340.914 393.673 345.988 393.673Z" fill="white"/>
<path d="M393.292 337.618C398.366 337.618 402.479 333.505 402.479 328.431C402.479 323.358 398.366 319.245 393.292 319.245C388.218 319.245 384.105 323.358 384.105 328.431C384.105 333.505 388.218 337.618 393.292 337.618Z" fill="white"/>
<path d="M228.483 289.181C233.557 289.181 237.67 285.068 237.67 279.994C237.67 274.921 233.557 270.808 228.483 270.808C223.409 270.808 219.296 274.921 219.296 279.994C219.296 285.068 223.409 289.181 228.483 289.181Z" fill="white"/>
<path d="M79.3765 300.404C84.4502 300.404 88.5631 296.291 88.5631 291.217C88.5631 286.144 84.4502 282.031 79.3765 282.031C74.3029 282.031 70.1899 286.144 70.1899 291.217C70.1899 296.291 74.3029 300.404 79.3765 300.404Z" fill="white"/>
</svg>
