<svg width="26" height="26" viewBox="0 0 26 26" fill="none" xmlns="http://www.w3.org/2000/svg">
<path d="M21.0428 8.28557H14.2469V4.54656L15.3232 5.62294C15.4274 5.72719 15.564 5.77928 15.7006 5.77928C15.8372 5.77928 15.9738 5.72719 16.078 5.62301L17.0844 4.61665C17.1845 4.51653 17.2407 4.38082 17.2407 4.23921C17.2407 4.09767 17.1845 3.96197 17.0844 3.86184L13.379 0.156341C13.2789 0.0562173 13.1431 0 13.0016 0C12.8601 0 12.7243 0.0562173 12.6242 0.156341L8.9188 3.86184C8.81868 3.96197 8.76246 4.09767 8.76246 4.23921C8.76246 4.38075 8.81875 4.51653 8.9188 4.61665L9.92524 5.62301C10.1337 5.83144 10.4716 5.83137 10.68 5.62294L11.7564 4.54656V8.28557H4.96047C4.66572 8.28557 4.42676 8.52453 4.42676 8.81928V10.2425C4.42676 10.5373 4.66572 10.7762 4.96047 10.7762H21.0429C21.3376 10.7762 21.5766 10.5373 21.5766 10.2425V8.81928C21.5765 8.52453 21.3376 8.28557 21.0428 8.28557Z" fill="#979EA6"/>
<path d="M21.0419 15.2238H4.95949C4.66474 15.2238 4.42578 15.4627 4.42578 15.7575V17.1807C4.42578 17.4755 4.66474 17.7144 4.95949 17.7144H11.7554V21.4534L10.679 20.3771C10.4706 20.1686 10.1327 20.1686 9.92426 20.377L8.91783 21.3834C8.81778 21.4835 8.76149 21.6192 8.76149 21.7608C8.76149 21.9023 8.8177 22.0381 8.91783 22.1382L12.6233 25.8437C12.7233 25.9438 12.8591 26 13.0006 26C13.1422 26 13.2779 25.9438 13.378 25.8437L17.0834 22.1382C17.1836 22.038 17.2398 21.9023 17.2398 21.7608C17.2398 21.6192 17.1836 21.4835 17.0834 21.3834L16.077 20.377C15.8686 20.1686 15.5306 20.1686 15.3223 20.3771L14.2459 21.4534V17.7144H21.0418C21.3366 17.7144 21.5755 17.4755 21.5755 17.1807V15.7575C21.5756 15.4627 21.3367 15.2238 21.0419 15.2238Z" fill="#979EA6"/>
</svg>
