<svg width="16" height="16" viewBox="0 0 16 16" fill="none" xmlns="http://www.w3.org/2000/svg">
<path d="M11.0494 5.51646L9.79692 5.47052L9.52539 12.8856L10.7778 12.9314L11.0494 5.51646Z" fill="#263238"/>
<path d="M8.6263 5.49347H7.37305V12.9086H8.6263V5.49347Z" fill="#263238"/>
<path d="M6.47416 12.8855L6.20263 5.47031L4.9502 5.51628L5.22176 12.9314L6.47416 12.8855Z" fill="#263238"/>
<path d="M0.542969 2.4021V3.65535H1.84887L2.88487 15.4283C2.91328 15.7518 3.18422 16 3.509 16H12.4696C12.7944 16 13.0656 15.7517 13.0937 15.4281L14.1298 3.65535H15.4568V2.4021H0.542969ZM11.8957 14.7468H4.08281L3.10694 3.65535H12.8717L11.8957 14.7468Z" fill="#263238"/>
<path d="M10.0476 0H5.95355C5.37768 0 4.90918 0.4685 4.90918 1.04437V3.02872H6.16243V1.25325H9.83868V3.02872H11.0919V1.04437C11.0919 0.4685 10.6234 0 10.0476 0Z" fill="#263238"/>
</svg>
