<svg width="30" height="30" viewBox="0 0 30 30" fill="none" xmlns="http://www.w3.org/2000/svg">
<path d="M19.1394 25.0001C19.1394 27.2754 17.2948 29.1199 15.0193 29.1199C12.744 29.1199 10.8994 27.2754 10.8994 25.0001C10.8994 22.7245 12.744 20.88 15.0193 20.88C17.2948 20.88 19.1394 22.7245 19.1394 25.0001Z" fill="#2883EE"/>
<path d="M26.7432 22.3899C24.8534 20.7925 23.7696 18.4589 23.7696 15.9851V12.4999C23.7696 7.67509 19.8434 3.75 15.0195 3.75C10.1958 3.75 6.26953 7.67509 6.26953 12.4999V15.9851C6.26953 18.4589 5.18578 20.7937 3.28445 22.4014C2.79831 22.8163 2.51953 23.4224 2.51953 24.0626C2.51953 25.2688 3.50075 26.25 4.70695 26.25H25.332C26.5384 26.25 27.5196 25.2688 27.5196 24.0626C27.5196 23.4224 27.2408 22.8163 26.7432 22.3899Z" fill="#2883EE"/>
<path d="M15.0195 30C12.4345 30 10.332 27.8975 10.332 25.3125C10.332 24.795 10.752 24.375 11.2695 24.375C11.787 24.375 12.207 24.795 12.207 25.3125C12.207 26.8639 13.4684 28.125 15.0195 28.125C16.5709 28.125 17.832 26.8639 17.832 25.3125C17.832 24.795 18.252 24.375 18.7695 24.375C19.287 24.375 19.707 24.795 19.707 25.3125C19.707 27.8975 17.6045 30 15.0195 30Z" fill="#21252E"/>
<path d="M25.332 26.25H4.70695C3.50075 26.25 2.51953 25.2688 2.51953 24.0626C2.51953 23.4224 2.79831 22.8163 3.28445 22.4C5.18578 20.7937 6.26953 18.4589 6.26953 15.9851V12.4999C6.26953 7.67509 10.1946 3.75 15.0195 3.75C19.8445 3.75 23.7696 7.67509 23.7696 12.4999V15.9851C23.7696 18.4589 24.8534 20.7937 26.7421 22.3913C27.2408 22.8163 27.5196 23.4224 27.5196 24.0626C27.5196 25.2688 26.5384 26.25 25.332 26.25ZM15.0195 5.625C11.2283 5.625 8.14453 8.70872 8.14453 12.4999V15.9851C8.14453 19.0112 6.81839 21.8687 4.50714 23.8225C4.4632 23.86 4.39453 23.9376 4.39453 24.0626C4.39453 24.2324 4.53712 24.375 4.70695 24.375H25.332C25.502 24.375 25.6446 24.2324 25.6446 24.0626C25.6446 23.9376 25.5757 23.86 25.5345 23.825C23.2207 21.8687 21.8946 19.0112 21.8946 15.9851V12.4999C21.8946 8.70872 18.8109 5.625 15.0195 5.625Z" fill="#21252E"/>
<path d="M15.0195 5.625C14.502 5.625 14.082 5.205 14.082 4.6875V0.9375C14.082 0.419998 14.502 0 15.0195 0C15.537 0 15.957 0.419998 15.957 0.9375V4.6875C15.957 5.205 15.537 5.625 15.0195 5.625Z" fill="#21252E"/>
</svg>
