<svg width="16" height="16" viewBox="0 0 16 16" fill="none" xmlns="http://www.w3.org/2000/svg">
<g clip-path="url(#clip0)">
<path d="M10.709 8.00059L15.4385 3.2714C16.1869 2.52306 16.1869 1.30991 15.4385 0.56195C14.691 -0.186015 13.4771 -0.186015 12.7295 0.56195L7.9999 5.2919L3.27033 0.56195C2.52275 -0.186015 1.30884 -0.186015 0.561261 0.56195C-0.187087 1.3103 -0.187087 2.52344 0.561261 3.2714L5.29045 8.00059L0.561261 12.7298C-0.187087 13.4781 -0.187087 14.6913 0.561261 15.4392C0.93486 15.8136 1.42571 16.0002 1.9158 16.0002C2.4055 16.0002 2.89673 15.8136 3.27033 15.4392L7.9999 10.71L12.7295 15.4396C13.1035 15.814 13.5939 16.0006 14.084 16.0006C14.5741 16.0006 15.0649 15.814 15.4385 15.4396C16.1869 14.6913 16.1869 13.4781 15.4385 12.7302L10.709 8.00059Z" fill="#979EA6"/>
</g>
<defs>
<clipPath id="clip0">
<rect width="16" height="16" fill="white"/>
</clipPath>
</defs>
</svg>
