<svg width="22" height="30" viewBox="0 0 22 30" fill="none" xmlns="http://www.w3.org/2000/svg">
<path d="M18.03 20.535L17.5 20.5V19.5C17.5 18.6715 16.8285 18 16 18H5.99996C5.17145 18 4.49996 18.6715 4.49996 19.5V20.5L3.96998 20.56C1.9925 20.8245 0.51248 22.505 0.5 24.5V30H21.5V24.5C21.4999 22.4955 20.0165 20.8005 18.03 20.535Z" fill="#2883EE"/>
<path d="M11 23.5C9.64646 23.5 8.3635 22.897 7.5 21.855V30H14.5V21.855C13.6365 22.897 12.3535 23.5 11 23.5Z" fill="#96C6FF"/>
<path d="M14.38 20.105C13.875 20.044 13.4966 19.6135 13.5 19.105V15.5H8.50002V19.11C8.50354 19.6185 8.12502 20.049 7.62 20.11H7.5V21.845C9.10149 23.778 11.9665 24.0471 13.8995 22.4456C14.118 22.2646 14.319 22.0636 14.5 21.845V20.12L14.38 20.105Z" fill="#FEDAC6"/>
<path opacity="0.12" d="M0.5 24.5V30H2.49998V21.045C1.265 21.758 0.502988 23.074 0.5 24.5Z" fill="black"/>
<path d="M16 11.5H17C17.8285 11.5 18.5 10.8285 18.5 10C18.5 9.17149 17.8285 8.5 17 8.5H16.5" fill="#FEDAC6"/>
<path d="M6.00002 11.5H5C4.17148 11.5 3.5 10.8285 3.5 10C3.5 9.17149 4.17148 8.5 5 8.5H5.49998" fill="#F5C4B0"/>
<path d="M16.5 5.50004H6.5C4.84303 5.50004 3.5 4.15701 3.5 2.50004H5.49998C4.67146 2.50004 3.99998 1.82855 3.99998 1.00004V0.5H11.5C14.2615 0.5 16.5 2.73852 16.5 5.50004Z" fill="#80BAFF"/>
<path d="M5.5 5.50003V10.5L5.62 12.06C5.875 15.034 8.49303 17.2385 11.467 16.9835C11.629 16.9695 11.79 16.9486 11.95 16.92C14.4135 16.4435 16.242 14.3595 16.395 11.855L16.5 10.5V5.50003H5.5Z" fill="#FEDAC6"/>
<path d="M7.49998 11.175V4.99997H5.5V10.5L5.62 12.06C5.79602 14.191 7.22002 16.014 9.24502 16.7L8.31502 14.635C7.77895 13.5605 7.49998 12.376 7.49998 11.175Z" fill="#F5C4B0"/>
<path d="M7.49998 4.99997C7.51949 6.44348 6.7535 7.78399 5.5 8.49994V4.99997H7.49998Z" fill="#71A4E0"/>
<path d="M16.5 8.50002C16.5 8.50002 14.5 7.50001 14.5 5.50003H16.5V8.50002Z" fill="#80BAFF"/>
<path d="M13.5 18V16.5H8.5V18C10.3749 19 11.625 19 13.5 18Z" fill="#F5C4B0"/>
<path opacity="0.12" d="M3.5 2.50003C3.61502 4.10655 4.89348 5.38501 6.5 5.50003H16C11.7495 4.88849 7.565 3.88448 3.5 2.50003Z" fill="black"/>
<path opacity="0.12" d="M7.64025 20.185C7.72773 20.0325 7.85125 19.9035 8.00025 19.81C8.31127 19.6165 8.50023 19.276 8.50023 18.91V18H6.42022C5.35721 17.9985 4.49371 18.8585 4.49219 19.922C4.49166 20.306 4.60568 20.6815 4.8202 21L5.43022 21.91C5.90676 21.0625 6.70275 20.4415 7.64025 20.185Z" fill="black"/>
<path d="M16.5 6H6.49998C4.56996 6 3 4.42998 3 2.50002C3 2.22404 3.224 2.00004 3.49998 2.00004H3.76846C3.59748 1.70549 3.49998 1.364 3.49998 1.00002V0.49998C3.49998 0.224004 3.72398 0 3.99996 0H11.5C14.5325 0 17 2.4675 17 5.50002C17 5.776 16.7765 6 16.5 6ZM4.05047 3C4.28244 4.13947 5.29295 4.99998 6.49998 4.99998H15.972C15.7225 2.75303 13.8125 1.00002 11.5 1.00002H4.5C4.5 1.5515 4.94848 2.00004 5.50002 2.00004C5.776 2.00004 6 2.22404 6 2.50002C6 2.776 5.776 3 5.50002 3H4.05047Z" fill="black"/>
<path d="M5.72387 8.94751L5.27639 8.05302L5.50039 8.50003L5.27539 8.05354C5.29238 8.04452 7.00039 7.15806 7.00039 5.50003H8.00035C8.00035 7.78249 5.81686 8.90051 5.72387 8.94751Z" fill="black"/>
<path d="M16.2765 8.94751C16.1835 8.90051 14 7.78249 14 5.50003H15C15 7.15806 16.7075 8.04452 16.725 8.05354L16.2765 8.94751Z" fill="black"/>
<path d="M8.00002 10.5C8.55231 10.5 9.00004 10.0523 9.00004 9.49999C9.00004 8.94769 8.55231 8.49997 8.00002 8.49997C7.44772 8.49997 7 8.94769 7 9.49999C7 10.0523 7.44772 10.5 8.00002 10.5Z" fill="black"/>
<path d="M14 10.5C14.5523 10.5 15 10.0523 15 9.49999C15 8.94769 14.5523 8.49997 14 8.49997C13.4477 8.49997 13 8.94769 13 9.49999C13 10.0523 13.4477 10.5 14 10.5Z" fill="black"/>
<path d="M11.5001 12H10.0001C9.83414 12 9.67916 11.9175 9.58611 11.7805C9.49307 11.6435 9.47414 11.4685 9.5356 11.3145L10.5356 8.81448L11.4641 9.18597L10.7386 11H11.5001V12H11.5001Z" fill="black"/>
<path d="M10.085 14H10V13H10.085C10.8635 12.9994 11.5955 12.6965 12.1465 12.146L12.8535 12.8535C12.114 13.5925 11.131 13.9995 10.085 14Z" fill="black"/>
<path d="M17 12H16.5V11H17C17.5515 11 18 10.5515 18 9.99998C18 9.44849 17.5515 8.99996 17 8.99996H16.5V7.99994H17C18.103 7.99994 19 8.89695 19 9.99992C19 11.1029 18.103 12 17 12Z" fill="black"/>
<path d="M5.49997 12H4.99999C3.89696 12 3 11.103 3 10C3 8.89704 3.89701 8.00003 4.99999 8.00003H5.49997V8.99999H4.99999C4.4485 8.99999 3.99996 9.44847 3.99996 10C3.99996 10.5515 4.44844 11 4.99999 11H5.49997V12Z" fill="black"/>
<path d="M11.0055 17.503C8.19353 17.503 5.6985 15.4885 5.19102 12.6305C5.16002 12.4555 5.13652 12.279 5.12152 12.102L5.001 10.5385L5 5.50003H6.00002V10.5L6.1185 12.0215C6.13051 12.1645 6.15002 12.3105 6.17551 12.4555C6.64854 15.1185 9.19648 16.899 11.8625 16.4275C14.095 15.9955 15.7565 14.102 15.8955 11.8241L16.001 10.461L16 5.50003H17V10.5L16.8935 11.8935C16.7275 14.6185 14.7335 16.8905 12.045 17.4105C11.6965 17.4725 11.3485 17.503 11.0055 17.503Z" fill="black"/>
<path d="M8.00002 30H7V20.11C7 19.8335 7.224 19.61 7.49998 19.61H7.585C7.825 19.569 8.00148 19.3596 8.00002 19.1135V16.5H9.00004V19.11C9.00455 19.7585 8.59205 20.3235 8.00002 20.532V30Z" fill="black"/>
<path d="M0.999961 30H0V24.5C0 22.255 1.67801 20.3375 3.90399 20.0395L4.46701 20.001L4.53352 20.999L4.00354 21.034C2.30502 21.262 1.00002 22.7535 1.00002 24.5V30H0.999961Z" fill="black"/>
<path d="M11.0002 24C9.49274 24 8.07676 23.3345 7.11523 22.174L7.88522 21.5365C8.65619 22.4665 9.79174 23 11.0002 23C12.2087 23 13.3442 22.4665 14.1153 21.5355L14.8848 22.174C13.9233 23.3345 12.5072 24 11.0002 24Z" fill="black"/>
<path d="M7.08414 25.2785L4.40413 21.2785C4.13413 20.872 3.99462 20.4015 3.99913 19.915C3.99913 18.5855 5.08464 17.5 6.41911 17.5H8.49959V18.5001H6.41957C5.63659 18.5001 4.99956 19.137 4.99956 19.9201C4.99657 20.21 5.07854 20.4866 5.23604 20.7231L7.91506 24.7216L7.08414 25.2785Z" fill="black"/>
<path d="M5.99998 29C5.724 29 5.5 28.7765 5.5 28.5V25.5C5.5 25.2235 5.724 25 5.99998 25C6.27596 25 6.49996 25.2235 6.49996 25.5V28.5C6.49996 28.7765 6.27596 29 5.99998 29Z" fill="black"/>
<path d="M15.0001 30H14.0001V20.5315C13.4076 20.323 12.9951 19.7575 13 19.1055V16.5H14.0001V19.11C13.9981 19.3595 14.1751 19.569 14.4151 19.61H14.5001C14.7766 19.61 15.0001 19.8335 15.0001 20.11V30Z" fill="black"/>
<path d="M21.9998 30H20.9998V24.5C20.9998 22.7535 19.6948 21.262 17.9633 21.031L17.4668 20.9995L17.5333 20.0015L18.0633 20.0364C20.3218 20.337 21.9998 22.2549 21.9998 24.4999V30H21.9998Z" fill="black"/>
<path d="M14.9155 25.2785L14.0845 24.722L16.7645 20.722C16.9211 20.4865 17.003 20.2105 17 19.925C17 19.1375 16.3631 18.5 15.58 18.5H13.5V17.5H15.58C16.9145 17.5 18 18.5855 18 19.92C18.005 20.4009 17.865 20.8719 17.5965 21.2769L14.9155 25.2785Z" fill="black"/>
<path d="M16 29C15.7235 29 15.5 28.7765 15.5 28.5V25.5C15.5 25.2235 15.7235 25 16 25C16.2765 25 16.5 25.2235 16.5 25.5V28.5C16.5 28.7765 16.2765 29 16 29Z" fill="black"/>
</svg>
