<svg width="16" height="16" viewBox="0 0 16 16" fill="none" xmlns="http://www.w3.org/2000/svg">
<path fill-rule="evenodd" clip-rule="evenodd" d="M13.199 0.480033C13.8385 -0.160011 14.8796 -0.160011 15.5195 0.480033C15.8293 0.789779 16 1.20205 16 1.64053C16 2.079 15.8293 2.49128 15.5195 2.80042L14.6111 3.70898L12.2906 1.38848L13.199 0.480033ZM6.40057 7.27869C6.35465 7.3246 6.32376 7.38302 6.31066 7.446L5.8466 9.76723C5.82496 9.8748 5.8591 9.98575 5.9365 10.0639C5.99888 10.1263 6.0829 10.1597 6.16895 10.1597C6.18987 10.1597 6.21162 10.1577 6.23326 10.1532L8.55369 9.6891C8.61799 9.67588 8.67641 9.64511 8.72172 9.59907L13.9152 4.4054L11.5948 2.08501L6.40057 7.27869ZM2.21538 2.37901C0.993741 2.37901 0 3.37278 0 4.59447V13.7845C0 15.0062 0.993741 16 2.21538 16H11.4052C12.6268 16 13.6206 15.0062 13.6206 13.7845V8.53306C13.6206 8.03405 13.2168 7.6305 12.7179 7.6305C12.2188 7.6305 11.8154 8.03501 11.8154 8.53306V13.7845C11.8154 14.0104 11.6313 14.1948 11.4052 14.1948H2.21538C1.98913 14.1948 1.80517 14.0104 1.80517 13.7845V4.59447C1.80517 4.36857 1.98913 4.18424 2.21538 4.18424H7.46671C7.96581 4.18424 8.36923 3.77973 8.36923 3.28169C8.36923 2.78355 7.96584 2.37901 7.46671 2.37901H2.21538Z" fill="white"/>
</svg>
