<svg width="20" height="20" viewBox="0 0 20 20" fill="none" xmlns="http://www.w3.org/2000/svg">
<g clip-path="url(#clip0)">
<path fill-rule="evenodd" clip-rule="evenodd" d="M16.7876 4.78261C16.7876 6.3194 15.5081 7.56522 13.9297 7.56522C12.3514 7.56522 11.0719 6.3194 11.0719 4.78261C11.0719 3.24582 12.3514 2 13.9297 2C15.5081 2 16.7876 3.24582 16.7876 4.78261ZM9.72559 10.0758C10.8303 8.90258 12.3083 8.26089 13.9292 8.26089C15.577 8.26089 17.0969 8.93423 18.2085 10.1569C19.3262 11.3864 19.9586 13.1057 20 15.0168C19.3328 15.3748 16.8231 16.6087 13.9292 16.6087C13.5709 16.6077 13.2128 16.5867 12.8569 16.5458C12.8434 14.4095 12.1445 12.4728 10.8844 11.087C10.54 10.707 10.1511 10.3676 9.72559 10.0758ZM6.07054 9.6522C4.42282 9.6522 2.90289 10.3255 1.79124 11.5482C0.675253 12.7756 0.0430462 14.492 0 16.3996C0.721024 16.7571 3.41887 18 6.07054 18C8.95803 18 11.473 16.7657 12.1413 16.4079C12.0999 14.4969 11.4674 12.7774 10.3498 11.5482C9.23818 10.3255 7.71826 9.6522 6.07054 9.6522ZM8.92857 6.17392C8.92857 7.71072 7.64907 8.95653 6.07073 8.95653C4.49239 8.95653 3.21289 7.71072 3.21289 6.17392C3.21289 4.63713 4.49239 3.39131 6.07073 3.39131C7.64907 3.39131 8.92857 4.63713 8.92857 6.17392Z" fill="#979EA6"/>
</g>
<defs>
<clipPath id="clip0">
<rect width="20" height="20" fill="white"/>
</clipPath>
</defs>
</svg>
