<svg width="26" height="26" viewBox="0 0 26 26" fill="none" xmlns="http://www.w3.org/2000/svg">
<path d="M3.99978 17.4416V6.25735H2.2864C1.01988 6.25735 0 7.29308 0 8.55846V23.6797C0 24.9468 1.01988 25.9712 2.2864 25.9712H17.4082C18.6741 25.9712 19.7138 24.9468 19.7138 23.6797V22.028H8.58615C6.07123 22.0285 3.99978 19.9571 3.99978 17.4416Z" fill="#979EA6"/>
<path d="M23.7085 0.0282898H8.58611C7.32016 0.0282898 6.28613 1.05383 6.28613 2.31978V17.4416C6.28613 18.7092 7.32072 19.7421 8.58611 19.7421H23.7085C24.9738 19.7421 26 18.7092 26 17.4416V2.32034C26 1.05327 24.9738 0.0282898 23.7085 0.0282898ZM23.3973 16.1717C23.2712 16.4047 23.0285 16.5427 22.7638 16.5427H9.80624C9.57827 16.5427 9.36389 16.4409 9.22813 16.2588C9.09237 16.0755 9.05108 15.8425 9.1167 15.6235L10.9704 9.49235C11.0925 9.08904 11.4331 8.79093 11.8494 8.72249C12.2657 8.65461 12.6843 8.82996 12.9287 9.17332L15.5205 12.8145C15.8695 13.3049 16.5455 13.4265 17.0416 13.0883L19.4281 11.4676C19.6736 11.3008 19.9751 11.2402 20.2653 11.2985C20.5566 11.3562 20.8117 11.5293 20.9741 11.7782L23.3662 15.4391C23.511 15.6614 23.5229 15.9397 23.3973 16.1717Z" fill="#979EA6"/>
</svg>
