<svg width="543" height="578" viewBox="0 0 543 578" fill="none" xmlns="http://www.w3.org/2000/svg">
<path d="M426.453 224.642C426.453 224.642 426.62 208.955 432.342 174.37C440.182 127.066 398.968 86.831 336.499 76.4943C263.269 64.3991 182.4 96.9995 126.822 130.447C80.8816 158.116 70.8233 201.815 72.4011 242.36C73.1894 262.911 77.8064 282.935 80.3514 303.31C83.7586 330.464 82.7468 359.206 82.516 386.732C82.2445 419.981 83.1401 457.214 104.88 487.436C171.806 580.374 384.339 529.939 454.308 460.707C493.871 421.58 500.237 377.495 471.606 335.417C450.372 304.252 426.036 260.512 426.453 224.642Z" fill="#2883EE"/>
<path opacity="0.7" d="M426.453 224.642C426.453 224.642 426.62 208.955 432.342 174.37C440.182 127.066 398.968 86.831 336.499 76.4943C263.269 64.3991 182.4 96.9995 126.822 130.447C80.8816 158.116 70.8233 201.815 72.4011 242.36C73.1894 262.911 77.8064 282.935 80.3514 303.31C83.7586 330.464 82.7468 359.206 82.516 386.732C82.2445 419.981 83.1401 457.214 104.88 487.436C171.806 580.374 384.339 529.939 454.308 460.707C493.871 421.58 500.237 377.495 471.606 335.417C450.372 304.252 426.036 260.512 426.453 224.642Z" fill="white"/>
<path opacity="0.3" d="M349.873 147.665C350.068 147.644 350.254 147.577 350.417 147.469C350.579 147.361 350.713 147.215 350.808 147.043C350.903 146.871 350.957 146.677 350.964 146.478C350.972 146.278 350.934 146.078 350.852 145.894C350.77 145.71 350.648 145.547 350.495 145.417C350.341 145.288 350.161 145.196 349.969 145.149C349.777 145.103 349.578 145.102 349.388 145.148C349.198 145.194 349.023 145.285 348.876 145.413L344.498 147.335L344.119 146.478L348.496 144.555C348.697 144.379 348.836 144.141 348.891 143.875C348.947 143.609 348.917 143.329 348.805 143.077C348.693 142.825 348.506 142.614 348.271 142.475C348.036 142.336 347.765 142.276 347.499 142.304L343.113 144.242L340.343 138.014L323.073 128.849L236.772 515.309L253.214 521.289L468.888 426.534L461.786 410.579L466.164 408.657C466.361 408.639 466.549 408.574 466.714 408.468C466.879 408.361 467.016 408.215 467.113 408.042C467.211 407.869 467.266 407.674 467.274 407.472C467.282 407.271 467.244 407.069 467.161 406.884C467.079 406.698 466.955 406.533 466.8 406.404C466.644 406.274 466.462 406.183 466.268 406.137C466.074 406.092 465.873 406.094 465.682 406.142C465.491 406.191 465.316 406.286 465.17 406.418L460.78 408.343L460.397 407.473L464.787 405.548C464.929 405.486 465.058 405.396 465.164 405.283C465.271 405.17 465.354 405.036 465.408 404.888C465.463 404.74 465.488 404.582 465.481 404.423C465.475 404.264 465.438 404.107 465.371 403.961C465.229 403.672 464.986 403.445 464.691 403.324C464.397 403.204 464.072 403.2 463.781 403.312L459.403 405.234L455.66 396.842L460.049 394.916C460.24 394.742 460.371 394.51 460.425 394.252C460.478 393.995 460.452 393.724 460.348 393.479C460.245 393.233 460.07 393.024 459.847 392.88C459.625 392.737 459.366 392.666 459.107 392.677L454.73 394.599L454.35 393.741L458.728 391.819C458.929 391.643 459.067 391.405 459.123 391.139C459.178 390.872 459.148 390.593 459.036 390.341C458.925 390.089 458.737 389.878 458.502 389.739C458.267 389.599 457.997 389.539 457.73 389.568L453.341 391.493L449.627 383.159L454.001 381.225C454.144 381.165 454.274 381.076 454.382 380.963C454.489 380.85 454.573 380.715 454.627 380.567C454.682 380.419 454.706 380.26 454.699 380.101C454.692 379.941 454.653 379.784 454.585 379.638C454.443 379.351 454.203 379.125 453.911 379.005C453.619 378.884 453.297 378.877 453.007 378.986L448.617 380.911L448.238 380.053L452.615 378.131C452.816 377.955 452.954 377.716 453.01 377.45C453.066 377.184 453.035 376.905 452.924 376.653C452.812 376.401 452.625 376.19 452.39 376.05C452.155 375.911 451.884 375.851 451.617 375.879L447.24 377.802L443.514 369.471L447.891 367.549C448.092 367.373 448.231 367.134 448.286 366.868C448.342 366.602 448.312 366.323 448.2 366.071C448.088 365.819 447.901 365.608 447.666 365.468C447.431 365.329 447.16 365.269 446.894 365.297L442.516 367.22L442.125 366.365L446.514 364.44C446.792 364.3 447.005 364.059 447.112 363.763C447.22 363.467 447.214 363.138 447.096 362.84C447.033 362.692 446.942 362.558 446.828 362.445C446.714 362.332 446.579 362.243 446.432 362.184C446.285 362.124 446.129 362.095 445.972 362.098C445.815 362.1 445.662 362.135 445.52 362.201L441.131 364.126L437.417 355.792L441.794 353.87C442.071 353.73 442.285 353.489 442.392 353.194C442.5 352.898 442.494 352.569 442.376 352.271C442.313 352.123 442.222 351.988 442.108 351.875C441.994 351.763 441.859 351.674 441.712 351.614C441.565 351.554 441.408 351.525 441.252 351.528C441.095 351.531 440.942 351.566 440.8 351.631L436.411 353.556L436.028 352.686L440.405 350.764C440.602 350.746 440.791 350.681 440.956 350.574C441.121 350.467 441.258 350.322 441.355 350.149C441.452 349.976 441.507 349.781 441.516 349.579C441.524 349.378 441.485 349.176 441.403 348.99C441.32 348.805 441.196 348.64 441.041 348.511C440.886 348.381 440.704 348.29 440.509 348.244C440.315 348.199 440.114 348.201 439.923 348.249C439.733 348.298 439.557 348.392 439.411 348.525L435.034 350.447L431.29 342.055L435.668 340.132C435.865 340.115 436.053 340.05 436.218 339.943C436.384 339.836 436.52 339.69 436.618 339.517C436.715 339.344 436.77 339.149 436.778 338.948C436.787 338.746 436.748 338.545 436.665 338.359C436.583 338.173 436.459 338.009 436.304 337.879C436.149 337.749 435.966 337.658 435.772 337.613C435.578 337.567 435.377 337.569 435.186 337.618C434.995 337.666 434.82 337.761 434.674 337.893L430.296 339.816L429.901 338.948L434.291 337.023C434.487 337.004 434.675 336.938 434.839 336.83C435.003 336.722 435.139 336.575 435.235 336.402C435.331 336.228 435.385 336.033 435.392 335.832C435.399 335.631 435.359 335.429 435.276 335.244C435.193 335.059 435.068 334.896 434.913 334.767C434.757 334.638 434.575 334.548 434.381 334.503C434.186 334.458 433.986 334.461 433.796 334.51C433.605 334.56 433.43 334.655 433.285 334.787L428.907 336.709L425.164 328.317L429.554 326.391C429.75 326.372 429.938 326.306 430.102 326.198C430.266 326.09 430.402 325.943 430.498 325.77C430.594 325.597 430.648 325.401 430.655 325.2C430.662 324.999 430.622 324.798 430.539 324.613C430.456 324.428 430.331 324.264 430.175 324.135C430.02 324.006 429.837 323.916 429.643 323.872C429.449 323.827 429.249 323.829 429.058 323.879C428.868 323.928 428.693 324.023 428.547 324.156L424.17 326.078L423.787 325.208L428.165 323.285C428.442 323.149 428.657 322.91 428.768 322.616C428.878 322.322 428.876 321.994 428.761 321.695C428.619 321.406 428.376 321.179 428.081 321.059C427.787 320.939 427.462 320.934 427.17 321.046L422.781 322.972L419.067 314.638L423.444 312.716C423.722 312.579 423.937 312.34 424.048 312.047C424.158 311.753 424.156 311.424 424.041 311.126C423.898 310.836 423.656 310.609 423.361 310.489C423.067 310.369 422.742 310.365 422.45 310.477L418.073 312.399L417.681 311.544L422.071 309.619C422.272 309.442 422.41 309.202 422.465 308.936C422.519 308.669 422.488 308.389 422.374 308.137C422.261 307.885 422.073 307.674 421.836 307.536C421.6 307.398 421.328 307.34 421.061 307.37L416.684 309.293L412.958 300.962L417.347 299.037C417.548 298.86 417.686 298.62 417.741 298.354C417.796 298.087 417.764 297.807 417.651 297.555C417.538 297.303 417.349 297.092 417.113 296.954C416.876 296.816 416.604 296.758 416.338 296.788L411.96 298.711L411.581 297.853L415.958 295.931C416.159 295.755 416.298 295.516 416.353 295.25C416.409 294.984 416.379 294.704 416.267 294.452C416.155 294.2 415.968 293.989 415.733 293.85C415.498 293.711 415.227 293.651 414.961 293.679L410.575 295.617L406.861 287.283L411.238 285.361C411.439 285.185 411.578 284.947 411.633 284.681C411.689 284.414 411.658 284.135 411.547 283.883C411.435 283.631 411.248 283.42 411.013 283.281C410.778 283.141 410.507 283.081 410.24 283.11L405.851 285.035L405.472 284.177L409.849 282.255C410.046 282.237 410.234 282.172 410.4 282.065C410.565 281.958 410.701 281.813 410.799 281.64C410.896 281.467 410.951 281.272 410.959 281.07C410.968 280.869 410.929 280.667 410.846 280.481C410.764 280.296 410.64 280.131 410.485 280.002C410.33 279.872 410.147 279.781 409.953 279.735C409.759 279.69 409.558 279.692 409.367 279.74C409.176 279.789 409.001 279.883 408.855 280.016L404.477 281.938L400.734 273.546L405.112 271.623C405.309 271.606 405.497 271.541 405.662 271.434C405.827 271.327 405.964 271.181 406.061 271.008C406.159 270.835 406.214 270.64 406.222 270.439C406.23 270.237 406.192 270.036 406.109 269.85C406.027 269.664 405.903 269.5 405.748 269.37C405.592 269.24 405.41 269.149 405.216 269.104C405.022 269.058 404.821 269.06 404.63 269.109C404.439 269.157 404.263 269.252 404.118 269.384L399.74 271.307L399.357 270.436L403.735 268.514C403.93 268.337 404.063 268.1 404.116 267.837C404.168 267.573 404.137 267.298 404.027 267.049C403.917 266.801 403.733 266.592 403.501 266.453C403.27 266.314 403.004 266.251 402.741 266.275L398.351 268.2L394.637 259.867L399.015 257.944C399.21 257.767 399.343 257.53 399.396 257.267C399.448 257.004 399.417 256.728 399.307 256.48C399.196 256.231 399.012 256.022 398.781 255.883C398.55 255.744 398.284 255.682 398.02 255.705L393.631 257.631L393.248 256.761L397.625 254.838C397.903 254.702 398.118 254.463 398.229 254.169C398.339 253.875 398.337 253.547 398.222 253.248C398.08 252.959 397.837 252.732 397.542 252.612C397.248 252.492 396.923 252.487 396.631 252.599L392.254 254.521L388.511 246.129L392.888 244.207C393.085 244.189 393.274 244.124 393.439 244.017C393.604 243.91 393.741 243.764 393.838 243.591C393.935 243.418 393.99 243.223 393.999 243.022C394.007 242.821 393.968 242.619 393.886 242.433C393.803 242.248 393.679 242.083 393.524 241.953C393.369 241.824 393.187 241.732 392.992 241.687C392.798 241.642 392.597 241.643 392.406 241.692C392.216 241.741 392.04 241.835 391.894 241.968L387.517 243.89L387.125 243.035L391.515 241.11C391.716 240.933 391.854 240.693 391.908 240.427C391.963 240.16 391.931 239.88 391.818 239.628C391.705 239.376 391.516 239.165 391.28 239.027C391.043 238.889 390.772 238.831 390.505 238.861L386.127 240.784L382.402 232.453L386.788 230.515C386.983 230.338 387.116 230.101 387.169 229.838C387.221 229.575 387.19 229.299 387.08 229.051C386.969 228.802 386.786 228.593 386.554 228.454C386.323 228.315 386.057 228.253 385.793 228.276L381.404 230.202L381.024 229.344L385.402 227.422C385.603 227.246 385.741 227.007 385.797 226.741C385.853 226.475 385.822 226.195 385.711 225.943C385.599 225.691 385.412 225.48 385.177 225.341C384.942 225.202 384.671 225.142 384.404 225.17L380.027 227.092L376.301 218.762L380.678 216.84C380.873 216.819 381.059 216.752 381.221 216.644C381.384 216.536 381.518 216.39 381.613 216.218C381.708 216.046 381.762 215.852 381.769 215.653C381.777 215.453 381.739 215.253 381.657 215.069C381.575 214.885 381.453 214.722 381.3 214.592C381.146 214.463 380.966 214.371 380.774 214.324C380.582 214.278 380.383 214.277 380.193 214.323C380.003 214.369 379.828 214.46 379.681 214.588L375.303 216.51L374.912 215.656L379.301 213.73C379.498 213.711 379.686 213.645 379.85 213.537C380.014 213.429 380.149 213.282 380.245 213.109C380.341 212.935 380.395 212.74 380.402 212.539C380.41 212.338 380.37 212.137 380.287 211.952C380.203 211.767 380.079 211.603 379.923 211.474C379.767 211.345 379.585 211.255 379.391 211.21C379.197 211.166 378.996 211.168 378.806 211.218C378.616 211.267 378.441 211.362 378.295 211.494L373.918 213.417L370.192 205.086L374.581 203.161C374.776 202.983 374.909 202.745 374.961 202.481C375.013 202.217 374.98 201.941 374.868 201.692C374.756 201.443 374.571 201.235 374.339 201.097C374.106 200.96 373.839 200.899 373.575 200.925L369.198 202.847L368.815 201.977L373.192 200.055C373.389 200.037 373.578 199.972 373.743 199.865C373.908 199.758 374.045 199.612 374.142 199.439C374.239 199.266 374.294 199.071 374.303 198.87C374.311 198.669 374.272 198.467 374.19 198.281C374.107 198.095 373.983 197.931 373.828 197.801C373.673 197.672 373.491 197.58 373.296 197.535C373.102 197.489 372.901 197.491 372.71 197.54C372.519 197.589 372.344 197.683 372.198 197.815L367.808 199.741L364.077 191.345L368.455 189.423C368.652 189.405 368.84 189.34 369.005 189.233C369.171 189.127 369.307 188.981 369.405 188.808C369.502 188.635 369.557 188.44 369.565 188.238C369.574 188.037 369.535 187.835 369.452 187.65C369.37 187.464 369.246 187.299 369.091 187.17C368.936 187.04 368.753 186.949 368.559 186.903C368.365 186.858 368.164 186.86 367.973 186.908C367.782 186.957 367.607 187.052 367.461 187.184L363.071 189.109L362.688 188.239L367.078 186.314C367.273 186.136 367.406 185.898 367.458 185.634C367.509 185.37 367.477 185.094 367.365 184.845C367.253 184.596 367.068 184.388 366.835 184.25C366.603 184.112 366.335 184.052 366.072 184.078L361.694 186L357.951 177.608L362.341 175.682C362.536 175.504 362.669 175.266 362.72 175.002C362.772 174.738 362.739 174.462 362.628 174.213C362.516 173.965 362.33 173.757 362.098 173.619C361.866 173.481 361.598 173.42 361.334 173.446L356.957 175.369L356.574 174.498L360.952 172.576C361.229 172.439 361.444 172.201 361.555 171.907C361.665 171.613 361.663 171.285 361.548 170.986C361.406 170.697 361.163 170.47 360.868 170.35C360.574 170.229 360.249 170.225 359.957 170.337L355.568 172.262L351.837 163.867L356.214 161.944C356.492 161.808 356.707 161.569 356.817 161.275C356.928 160.981 356.926 160.653 356.811 160.354C356.668 160.065 356.426 159.838 356.131 159.718C355.837 159.598 355.511 159.593 355.22 159.705L350.831 161.631L350.451 160.773L354.829 158.851C355.03 158.675 355.168 158.436 355.224 158.17C355.279 157.904 355.249 157.624 355.137 157.372C355.026 157.12 354.838 156.909 354.603 156.77C354.368 156.631 354.098 156.571 353.831 156.599L349.454 158.521L345.728 150.191L349.873 147.665Z" fill="black"/>
<path d="M244.358 517.281L444.586 429.404L312.705 133.487L112.486 221.442C111.272 221.975 110.179 222.749 109.271 223.72C108.363 224.691 107.656 225.84 107.192 227.102C106.728 228.364 106.515 229.713 106.566 231.073C106.617 232.432 106.93 233.776 107.488 235.027L230.915 511.802C232.036 514.321 234.081 516.312 236.601 517.339C239.121 518.366 241.911 518.345 244.358 517.281Z" fill="#263238" stroke="#263238" stroke-miterlimit="10" stroke-linecap="round"/>
<path d="M242.408 505.085L231.006 510.073C230.205 510.423 229.29 510.432 228.463 510.098C227.636 509.765 226.965 509.115 226.597 508.292L214.761 481.837C214.393 481.014 214.358 480.086 214.665 479.256C214.971 478.427 215.593 477.764 216.395 477.413L227.796 472.426L242.408 505.085Z" fill="white" stroke="#263238" stroke-miterlimit="10" stroke-linecap="round"/>
<path d="M227.351 470.959L215.949 475.947C215.148 476.297 214.233 476.307 213.406 475.973C212.579 475.639 211.908 474.989 211.54 474.166L199.704 447.711C199.336 446.888 199.301 445.96 199.608 445.13C199.914 444.301 200.536 443.638 201.338 443.287L212.739 438.3L227.351 470.959Z" fill="#2883EE" stroke="#263238" stroke-linecap="round" stroke-linejoin="round"/>
<path d="M212.256 436.779L200.854 441.766C200.053 442.117 199.138 442.126 198.311 441.792C197.484 441.458 196.813 440.808 196.445 439.986L184.609 413.53C184.241 412.708 184.206 411.779 184.513 410.95C184.819 410.12 185.441 409.457 186.243 409.107L197.644 404.119L212.256 436.779Z" fill="white" stroke="#263238" stroke-miterlimit="10" stroke-linecap="round"/>
<path d="M197.204 402.665L185.802 407.652C185.001 408.003 184.086 408.012 183.259 407.678C182.432 407.344 181.761 406.694 181.393 405.872L169.557 379.416C169.189 378.594 169.154 377.665 169.461 376.836C169.767 376.006 170.389 375.343 171.191 374.993L182.592 370.005L197.204 402.665Z" fill="#2883EE" stroke="#263238" stroke-linecap="round" stroke-linejoin="round"/>
<path d="M157.822 339.381L164.656 336.381L113.241 221.043L322.733 129.095L454.612 425.002L245.122 516.909L179.297 369.232L172.463 372.232C171.663 372.577 170.752 372.582 169.93 372.245C169.108 371.908 168.441 371.257 168.077 370.434L156.151 343.844C155.967 343.432 155.865 342.988 155.849 342.54C155.834 342.091 155.906 341.647 156.061 341.232C156.217 340.817 156.452 340.439 156.755 340.122C157.057 339.804 157.42 339.552 157.822 339.381Z" fill="white" stroke="#263238" stroke-miterlimit="10" stroke-linecap="round"/>
<path d="M165.406 279.122L170.837 296.017L249.598 260.546L243.503 246.807L165.406 279.122Z" fill="#2883EE" stroke="#263238" stroke-linecap="round" stroke-linejoin="round"/>
<path d="M318.61 151.602C318.97 152.434 319.562 153.146 320.311 153.646C321.061 154.146 321.933 154.412 322.818 154.41C323.703 154.409 324.56 154.139 325.28 153.636C326 153.133 326.551 152.419 326.862 151.585C327.173 150.751 327.231 149.835 327.028 148.953C326.825 148.071 326.37 147.264 325.721 146.633C325.073 146.002 324.26 145.576 323.385 145.41C322.511 145.244 321.616 145.345 320.812 145.701C319.748 146.171 318.921 147.054 318.509 148.158C318.097 149.262 318.133 150.499 318.61 151.602Z" fill="#263238" stroke="#263238" stroke-miterlimit="10" stroke-linecap="round"/>
<path d="M322.946 149.041L335.306 143.575C335.587 143.433 335.802 143.188 335.911 142.887C336.02 142.585 336.014 142.251 335.894 141.947C335.748 141.656 335.502 141.428 335.205 141.308C334.908 141.189 334.581 141.185 334.288 141.299L321.97 146.727C321.687 146.867 321.468 147.112 321.357 147.414C321.245 147.716 321.25 148.053 321.37 148.358C321.51 148.649 321.748 148.879 322.039 149.005C322.329 149.131 322.652 149.144 322.946 149.041Z" fill="white" stroke="#263238" stroke-miterlimit="10" stroke-linecap="round"/>
<path d="M324.341 152.091L336.68 146.644C336.964 146.504 337.182 146.259 337.294 145.957C337.405 145.655 337.4 145.318 337.281 145.013C337.136 144.719 336.891 144.488 336.593 144.365C336.295 144.243 335.966 144.238 335.671 144.352L323.311 149.819C323.03 149.961 322.815 150.206 322.706 150.507C322.597 150.808 322.603 151.143 322.723 151.447C322.87 151.74 323.118 151.969 323.418 152.089C323.717 152.208 324.047 152.209 324.341 152.091Z" fill="white" stroke="#263238" stroke-miterlimit="10" stroke-linecap="round"/>
<path d="M324.648 165.167C325.006 165.998 325.594 166.71 326.34 167.211C327.086 167.713 327.955 167.982 328.838 167.985C329.72 167.988 330.577 167.724 331.298 167.227C332.02 166.73 332.574 166.022 332.891 165.193C333.208 164.364 333.274 163.451 333.08 162.57C332.885 161.689 332.44 160.879 331.799 160.242C331.159 159.606 330.353 159.172 329.483 158.996C328.613 158.819 327.718 158.908 326.911 159.251C325.832 159.709 324.988 160.589 324.564 161.699C324.14 162.808 324.17 164.055 324.648 165.167Z" fill="#263238" stroke="#263238" stroke-miterlimit="10" stroke-linecap="round"/>
<path d="M328.984 162.607L341.336 157.157C341.619 157.017 341.838 156.772 341.949 156.47C342.061 156.168 342.056 155.831 341.936 155.526C341.792 155.231 341.546 155 341.248 154.878C340.95 154.756 340.622 154.751 340.327 154.865L327.966 160.331C327.686 160.473 327.471 160.719 327.362 161.02C327.253 161.321 327.259 161.656 327.378 161.959C327.525 162.25 327.771 162.478 328.068 162.598C328.365 162.718 328.692 162.721 328.984 162.607Z" fill="white" stroke="#263238" stroke-miterlimit="10" stroke-linecap="round"/>
<path d="M330.32 165.633L342.684 160.18C342.965 160.038 343.18 159.792 343.289 159.491C343.398 159.19 343.392 158.855 343.272 158.552C343.128 158.258 342.882 158.026 342.584 157.904C342.286 157.782 341.958 157.777 341.663 157.891L329.315 163.354C329.031 163.494 328.812 163.739 328.701 164.041C328.59 164.343 328.595 164.68 328.714 164.985C328.861 165.277 329.107 165.504 329.404 165.624C329.701 165.744 330.027 165.747 330.32 165.633Z" fill="white" stroke="#263238" stroke-miterlimit="10" stroke-linecap="round"/>
<path d="M330.603 178.768C330.963 179.601 331.556 180.312 332.305 180.812C333.054 181.312 333.927 181.579 334.812 181.577C335.696 181.575 336.553 181.305 337.273 180.802C337.993 180.299 338.544 179.585 338.855 178.752C339.167 177.918 339.224 177.002 339.021 176.12C338.818 175.238 338.363 174.43 337.715 173.799C337.066 173.168 336.253 172.743 335.379 172.577C334.505 172.411 333.609 172.512 332.806 172.867C331.742 173.337 330.915 174.22 330.502 175.324C330.09 176.429 330.126 177.666 330.603 178.768Z" fill="#263238" stroke="#263238" stroke-miterlimit="10" stroke-linecap="round"/>
<path d="M334.986 176.235L347.35 170.781C347.63 170.639 347.846 170.394 347.955 170.092C348.063 169.791 348.058 169.457 347.938 169.153C347.794 168.859 347.548 168.628 347.25 168.505C346.952 168.383 346.623 168.379 346.329 168.493L333.98 173.956C333.697 174.096 333.478 174.341 333.367 174.643C333.256 174.945 333.261 175.282 333.38 175.587C333.527 175.878 333.772 176.106 334.069 176.226C334.366 176.346 334.693 176.349 334.986 176.235Z" fill="white" stroke="#263238" stroke-miterlimit="10" stroke-linecap="round"/>
<path d="M336.301 179.28L348.649 173.817C348.93 173.678 349.148 173.435 349.259 173.136C349.371 172.837 349.369 172.502 349.253 172.198C349.109 171.904 348.863 171.673 348.565 171.551C348.267 171.428 347.938 171.424 347.644 171.538L335.295 177.001C335.014 177.14 334.797 177.383 334.685 177.682C334.573 177.981 334.576 178.315 334.692 178.619C334.836 178.914 335.081 179.145 335.379 179.267C335.677 179.389 336.006 179.394 336.301 179.28Z" fill="white" stroke="#263238" stroke-miterlimit="10" stroke-linecap="round"/>
<path d="M336.595 192.359C336.952 193.19 337.541 193.901 338.287 194.403C339.033 194.904 339.902 195.174 340.784 195.176C341.667 195.179 342.523 194.915 343.245 194.418C343.966 193.922 344.521 193.214 344.838 192.385C345.155 191.556 345.221 190.643 345.026 189.762C344.832 188.88 344.386 188.07 343.746 187.434C343.106 186.798 342.3 186.364 341.429 186.187C340.559 186.011 339.664 186.099 338.858 186.442C337.779 186.9 336.935 187.781 336.511 188.89C336.086 189.999 336.117 191.247 336.595 192.359Z" fill="#263238" stroke="#263238" stroke-miterlimit="10" stroke-linecap="round"/>
<path d="M340.98 189.785L353.341 184.319C353.622 184.18 353.839 183.937 353.951 183.638C354.063 183.339 354.06 183.005 353.945 182.701C353.8 182.406 353.555 182.175 353.257 182.053C352.959 181.93 352.63 181.926 352.335 182.04L339.975 187.506C339.83 187.569 339.701 187.66 339.593 187.776C339.485 187.891 339.401 188.028 339.346 188.178C339.291 188.328 339.266 188.489 339.272 188.651C339.279 188.813 339.316 188.973 339.383 189.122C339.527 189.414 339.77 189.643 340.065 189.766C340.36 189.889 340.687 189.896 340.98 189.785Z" fill="white" stroke="#263238" stroke-miterlimit="10" stroke-linecap="round"/>
<path d="M342.33 192.861L354.69 187.395C354.836 187.332 354.966 187.24 355.075 187.123C355.184 187.007 355.268 186.869 355.323 186.717C355.378 186.566 355.402 186.403 355.394 186.24C355.387 186.077 355.347 185.916 355.278 185.767C355.213 185.617 355.12 185.482 355.005 185.368C354.889 185.254 354.753 185.164 354.605 185.104C354.457 185.043 354.299 185.013 354.141 185.015C353.983 185.017 353.828 185.051 353.684 185.116L341.321 190.569C341.04 190.711 340.825 190.957 340.716 191.258C340.607 191.559 340.613 191.894 340.733 192.197C340.876 192.489 341.119 192.719 341.415 192.841C341.71 192.964 342.036 192.971 342.33 192.861Z" fill="white" stroke="#263238" stroke-miterlimit="10" stroke-linecap="round"/>
<path d="M342.599 205.946C342.959 206.779 343.551 207.49 344.301 207.991C345.05 208.491 345.923 208.757 346.808 208.755C347.692 208.753 348.549 208.484 349.269 207.981C349.989 207.477 350.54 206.764 350.851 205.93C351.162 205.096 351.22 204.18 351.017 203.298C350.814 202.416 350.359 201.608 349.711 200.977C349.062 200.346 348.249 199.921 347.375 199.755C346.501 199.589 345.605 199.69 344.802 200.045C343.738 200.516 342.91 201.398 342.498 202.503C342.086 203.607 342.122 204.844 342.599 205.946Z" fill="#263238" stroke="#263238" stroke-miterlimit="10" stroke-linecap="round"/>
<path d="M346.972 203.376L359.333 197.91C359.613 197.768 359.829 197.523 359.937 197.221C360.046 196.92 360.04 196.585 359.921 196.282C359.856 196.133 359.763 195.997 359.647 195.883C359.532 195.769 359.396 195.68 359.247 195.619C359.099 195.558 358.941 195.528 358.783 195.53C358.625 195.532 358.47 195.567 358.327 195.631L345.963 201.085C345.683 201.227 345.467 201.472 345.358 201.773C345.25 202.074 345.256 202.409 345.375 202.712C345.519 203.004 345.762 203.234 346.057 203.357C346.352 203.479 346.679 203.486 346.972 203.376Z" fill="white" stroke="#263238" stroke-miterlimit="10" stroke-linecap="round"/>
<path d="M348.334 206.448L360.679 200.973C360.962 200.833 361.181 200.588 361.292 200.286C361.403 199.984 361.398 199.647 361.279 199.342C361.132 199.051 360.887 198.823 360.59 198.703C360.293 198.583 359.966 198.58 359.673 198.694L347.321 204.144C347.038 204.284 346.819 204.529 346.708 204.831C346.597 205.133 346.601 205.47 346.721 205.775C346.863 206.072 347.108 206.307 347.407 206.432C347.706 206.556 348.037 206.562 348.334 206.448Z" fill="white" stroke="#263238" stroke-miterlimit="10" stroke-linecap="round"/>
<path d="M348.592 219.538C348.959 220.361 349.554 221.062 350.303 221.553C351.052 222.044 351.921 222.303 352.8 222.297C353.679 222.291 354.53 222.02 355.245 221.519C355.96 221.018 356.508 220.308 356.819 219.48C357.13 218.652 357.191 217.742 356.993 216.865C356.796 215.987 356.35 215.181 355.711 214.548C355.072 213.915 354.268 213.484 353.401 213.308C352.534 213.132 351.642 213.219 350.838 213.559C350.297 213.787 349.81 214.124 349.404 214.549C348.998 214.974 348.681 215.479 348.472 216.036C348.263 216.592 348.166 217.188 348.187 217.789C348.207 218.39 348.345 218.985 348.592 219.538Z" fill="#263238" stroke="#263238" stroke-miterlimit="10" stroke-linecap="round"/>
<path d="M352.964 216.967L365.312 211.504C365.596 211.364 365.815 211.119 365.926 210.817C366.037 210.515 366.032 210.178 365.913 209.873C365.766 209.582 365.52 209.354 365.223 209.234C364.926 209.114 364.6 209.111 364.307 209.225L351.955 214.675C351.672 214.815 351.453 215.06 351.342 215.362C351.231 215.664 351.235 216.001 351.355 216.306C351.499 216.601 351.745 216.832 352.043 216.954C352.341 217.076 352.669 217.081 352.964 216.967Z" fill="white" stroke="#263238" stroke-miterlimit="10" stroke-linecap="round"/>
<path d="M354.335 220.023L366.699 214.57C366.982 214.43 367.201 214.185 367.312 213.883C367.423 213.581 367.418 213.244 367.299 212.939C367.154 212.644 366.909 212.413 366.611 212.291C366.313 212.169 365.984 212.164 365.689 212.278L353.329 217.744C353.049 217.886 352.833 218.132 352.724 218.433C352.616 218.734 352.621 219.069 352.741 219.372C352.887 219.661 353.13 219.888 353.424 220.008C353.719 220.128 354.043 220.134 354.335 220.023Z" fill="white" stroke="#263238" stroke-miterlimit="10" stroke-linecap="round"/>
<path d="M354.592 233.112C354.952 233.945 355.544 234.656 356.294 235.157C357.043 235.657 357.916 235.923 358.801 235.921C359.685 235.919 360.542 235.65 361.262 235.147C361.982 234.643 362.533 233.93 362.844 233.096C363.155 232.262 363.213 231.346 363.01 230.464C362.807 229.582 362.352 228.774 361.704 228.143C361.055 227.512 360.242 227.087 359.368 226.921C358.494 226.755 357.598 226.856 356.795 227.211C355.731 227.682 354.903 228.564 354.491 229.669C354.079 230.773 354.115 232.01 354.592 233.112Z" fill="#263238" stroke="#263238" stroke-miterlimit="10" stroke-linecap="round"/>
<path d="M358.965 230.542L371.329 225.088C371.612 224.948 371.831 224.703 371.942 224.401C372.053 224.099 372.049 223.762 371.929 223.457C371.783 223.166 371.537 222.938 371.24 222.818C370.943 222.698 370.616 222.695 370.323 222.809L357.959 228.263C357.679 228.405 357.463 228.65 357.354 228.951C357.246 229.252 357.252 229.587 357.371 229.891C357.435 230.041 357.527 230.178 357.642 230.293C357.758 230.408 357.894 230.498 358.042 230.559C358.191 230.62 358.349 230.65 358.508 230.647C358.666 230.644 358.822 230.608 358.965 230.542Z" fill="white" stroke="#263238" stroke-miterlimit="10" stroke-linecap="round"/>
<path d="M360.326 233.614L372.69 228.161C372.971 228.019 373.186 227.773 373.295 227.472C373.404 227.171 373.398 226.836 373.278 226.533C373.134 226.238 372.888 226.007 372.59 225.885C372.293 225.763 371.964 225.758 371.669 225.872L359.321 231.335C359.037 231.475 358.818 231.72 358.707 232.022C358.596 232.324 358.601 232.661 358.72 232.966C358.867 233.258 359.113 233.485 359.41 233.605C359.707 233.725 360.034 233.728 360.326 233.614Z" fill="white" stroke="#263238" stroke-miterlimit="10" stroke-linecap="round"/>
<path d="M360.595 246.699C360.955 247.531 361.548 248.243 362.297 248.743C363.047 249.243 363.919 249.509 364.804 249.508C365.689 249.506 366.546 249.236 367.266 248.733C367.986 248.23 368.536 247.516 368.848 246.682C369.159 245.848 369.217 244.932 369.014 244.05C368.81 243.169 368.356 242.361 367.707 241.73C367.058 241.099 366.245 240.674 365.371 240.508C364.497 240.342 363.601 240.443 362.798 240.798C361.734 241.268 360.907 242.151 360.495 243.255C360.082 244.359 360.119 245.596 360.595 246.699Z" fill="#263238" stroke="#263238" stroke-miterlimit="10" stroke-linecap="round"/>
<path d="M364.97 244.13L377.327 238.651C377.607 238.509 377.822 238.264 377.931 237.963C378.04 237.662 378.034 237.327 377.915 237.023C377.77 236.729 377.525 236.498 377.227 236.376C376.929 236.253 376.6 236.249 376.305 236.363L363.957 241.826C363.674 241.965 363.455 242.211 363.344 242.512C363.233 242.814 363.237 243.151 363.357 243.457C363.499 243.754 363.744 243.988 364.043 244.113C364.342 244.238 364.673 244.244 364.97 244.13Z" fill="white" stroke="#263238" stroke-miterlimit="10" stroke-linecap="round"/>
<path d="M366.318 247.204L378.666 241.741C378.947 241.602 379.165 241.359 379.276 241.06C379.388 240.761 379.386 240.427 379.27 240.123C379.125 239.828 378.88 239.597 378.582 239.475C378.284 239.353 377.955 239.348 377.66 239.462L365.3 244.928C365.02 245.07 364.804 245.316 364.695 245.617C364.586 245.918 364.592 246.253 364.712 246.556C364.858 246.847 365.104 247.075 365.401 247.195C365.698 247.315 366.025 247.318 366.318 247.204Z" fill="white" stroke="#263238" stroke-miterlimit="10" stroke-linecap="round"/>
<path d="M366.587 260.289C366.945 261.12 367.534 261.832 368.279 262.333C369.025 262.835 369.895 263.104 370.777 263.107C371.66 263.11 372.516 262.846 373.238 262.349C373.959 261.852 374.514 261.144 374.831 260.315C375.148 259.487 375.213 258.574 375.019 257.692C374.824 256.811 374.379 256.001 373.739 255.365C373.098 254.728 372.292 254.294 371.422 254.118C370.552 253.941 369.657 254.03 368.851 254.373C367.772 254.831 366.928 255.712 366.503 256.821C366.079 257.93 366.109 259.177 366.587 260.289Z" fill="#263238" stroke="#263238" stroke-miterlimit="10" stroke-linecap="round"/>
<path d="M370.973 257.716L383.361 252.256C383.645 252.116 383.864 251.871 383.975 251.569C384.086 251.267 384.081 250.93 383.962 250.625C383.817 250.33 383.572 250.099 383.274 249.977C382.976 249.855 382.647 249.85 382.352 249.964L369.992 255.43C369.711 255.572 369.496 255.818 369.387 256.119C369.278 256.42 369.284 256.755 369.404 257.058C369.548 257.343 369.786 257.566 370.075 257.687C370.364 257.808 370.683 257.819 370.973 257.716Z" fill="white" stroke="#263238" stroke-miterlimit="10" stroke-linecap="round"/>
<path d="M372.322 260.791L384.682 255.325C384.963 255.183 385.178 254.938 385.287 254.637C385.396 254.336 385.39 254.001 385.27 253.697C385.124 253.406 384.878 253.178 384.581 253.058C384.284 252.939 383.957 252.935 383.664 253.049L371.316 258.512C371.035 258.651 370.818 258.894 370.706 259.193C370.594 259.493 370.597 259.827 370.712 260.131C370.857 260.425 371.102 260.656 371.4 260.779C371.698 260.901 372.027 260.905 372.322 260.791Z" fill="white" stroke="#263238" stroke-miterlimit="10" stroke-linecap="round"/>
<path d="M372.592 273.877C372.952 274.709 373.544 275.421 374.293 275.921C375.043 276.421 375.915 276.687 376.8 276.686C377.685 276.684 378.542 276.414 379.262 275.911C379.982 275.408 380.532 274.694 380.844 273.86C381.155 273.027 381.213 272.11 381.01 271.228C380.806 270.347 380.352 269.539 379.703 268.908C379.054 268.277 378.241 267.852 377.367 267.686C376.493 267.52 375.597 267.621 374.794 267.976C373.73 268.446 372.903 269.329 372.491 270.433C372.079 271.537 372.115 272.774 372.592 273.877Z" fill="#263238" stroke="#263238" stroke-miterlimit="10" stroke-linecap="round"/>
<path d="M376.964 271.307L389.325 265.84C389.605 265.698 389.821 265.453 389.93 265.152C390.038 264.851 390.032 264.516 389.913 264.213C389.766 263.921 389.521 263.693 389.224 263.574C388.927 263.454 388.6 263.451 388.307 263.565L375.959 269.028C375.678 269.167 375.46 269.41 375.348 269.709C375.237 270.008 375.239 270.342 375.355 270.646C375.499 270.94 375.745 271.172 376.043 271.294C376.341 271.416 376.67 271.421 376.964 271.307Z" fill="white" stroke="#263238" stroke-miterlimit="10" stroke-linecap="round"/>
<path d="M378.326 274.379L390.674 268.916C390.958 268.776 391.177 268.531 391.288 268.229C391.399 267.927 391.394 267.59 391.275 267.285C391.128 266.993 390.882 266.766 390.585 266.646C390.288 266.526 389.962 266.523 389.669 266.637L377.305 272.09C377.024 272.232 376.809 272.478 376.7 272.779C376.591 273.08 376.597 273.415 376.717 273.718C376.861 274.013 377.107 274.244 377.404 274.366C377.702 274.488 378.031 274.493 378.326 274.379Z" fill="white" stroke="#263238" stroke-miterlimit="10" stroke-linecap="round"/>
<path d="M378.584 287.468C378.951 288.292 379.547 288.993 380.295 289.484C381.044 289.975 381.913 290.233 382.792 290.227C383.672 290.221 384.522 289.95 385.237 289.449C385.952 288.948 386.5 288.239 386.811 287.411C387.122 286.583 387.183 285.673 386.986 284.795C386.789 283.917 386.342 283.111 385.703 282.479C385.064 281.846 384.26 281.414 383.393 281.238C382.526 281.062 381.634 281.149 380.83 281.489C380.29 281.717 379.802 282.054 379.396 282.479C378.99 282.904 378.673 283.41 378.464 283.966C378.255 284.522 378.158 285.118 378.179 285.72C378.199 286.321 378.337 286.915 378.584 287.468Z" fill="#263238" stroke="#263238" stroke-miterlimit="10" stroke-linecap="round"/>
<path d="M382.981 284.891L395.329 279.428C395.613 279.288 395.832 279.043 395.943 278.741C396.054 278.439 396.049 278.102 395.93 277.797C395.783 277.505 395.537 277.277 395.24 277.158C394.943 277.038 394.617 277.035 394.324 277.149L381.96 282.602C381.679 282.744 381.464 282.99 381.355 283.291C381.246 283.592 381.252 283.927 381.372 284.23C381.516 284.525 381.762 284.756 382.06 284.878C382.358 285 382.686 285.005 382.981 284.891Z" fill="white" stroke="#263238" stroke-miterlimit="10" stroke-linecap="round"/>
<path d="M384.315 287.957L396.715 282.494C396.996 282.352 397.211 282.106 397.32 281.805C397.429 281.504 397.423 281.169 397.303 280.866C397.24 280.715 397.148 280.578 397.032 280.463C396.917 280.349 396.781 280.258 396.632 280.197C396.483 280.137 396.325 280.107 396.167 280.11C396.008 280.113 395.853 280.148 395.71 280.215L383.309 285.678C383.026 285.818 382.807 286.063 382.696 286.365C382.584 286.667 382.589 287.004 382.709 287.309C382.855 287.6 383.101 287.828 383.398 287.948C383.695 288.068 384.022 288.071 384.315 287.957Z" fill="white" stroke="#263238" stroke-miterlimit="10" stroke-linecap="round"/>
<path d="M384.584 301.043C384.944 301.875 385.537 302.587 386.286 303.087C387.035 303.587 387.908 303.853 388.793 303.851C389.677 303.85 390.534 303.58 391.254 303.077C391.974 302.574 392.525 301.86 392.836 301.026C393.148 300.192 393.205 299.276 393.002 298.394C392.799 297.512 392.344 296.705 391.696 296.074C391.047 295.443 390.234 295.017 389.36 294.851C388.486 294.685 387.59 294.786 386.787 295.142C385.723 295.612 384.896 296.495 384.483 297.599C384.071 298.703 384.107 299.94 384.584 301.043Z" fill="#263238" stroke="#263238" stroke-miterlimit="10" stroke-linecap="round"/>
<path d="M388.961 298.485L401.321 293.018C401.601 292.876 401.817 292.631 401.926 292.33C402.035 292.029 402.029 291.694 401.909 291.391C401.763 291.102 401.52 290.875 401.226 290.755C400.931 290.635 400.607 290.629 400.315 290.739L387.951 296.193C387.668 296.333 387.449 296.578 387.338 296.88C387.227 297.182 387.232 297.519 387.351 297.824C387.496 298.118 387.741 298.35 388.039 298.472C388.337 298.594 388.666 298.599 388.961 298.485Z" fill="white" stroke="#263238" stroke-miterlimit="10" stroke-linecap="round"/>
<path d="M390.319 301.545L402.671 296.094C402.954 295.954 403.173 295.709 403.284 295.407C403.395 295.105 403.39 294.768 403.271 294.463C403.126 294.169 402.881 293.938 402.583 293.815C402.285 293.693 401.956 293.688 401.661 293.803L389.313 299.266C389.03 299.405 388.811 299.651 388.7 299.953C388.589 300.255 388.593 300.591 388.713 300.897C388.859 301.188 389.105 301.416 389.402 301.536C389.699 301.655 390.026 301.659 390.319 301.545Z" fill="white" stroke="#263238" stroke-miterlimit="10" stroke-linecap="round"/>
<path d="M390.576 314.633C390.933 315.464 391.522 316.176 392.268 316.677C393.014 317.179 393.883 317.448 394.766 317.451C395.648 317.454 396.504 317.19 397.226 316.693C397.948 316.196 398.502 315.488 398.819 314.659C399.136 313.83 399.202 312.917 399.007 312.036C398.813 311.155 398.367 310.345 397.727 309.708C397.087 309.072 396.281 308.638 395.411 308.462C394.54 308.285 393.646 308.374 392.839 308.716C391.762 309.178 390.92 310.058 390.496 311.167C390.073 312.275 390.101 313.521 390.576 314.633Z" fill="#263238" stroke="#263238" stroke-miterlimit="10" stroke-linecap="round"/>
<path d="M394.961 312.06L407.313 306.609C407.597 306.469 407.815 306.224 407.927 305.922C408.038 305.62 408.033 305.283 407.913 304.978C407.769 304.684 407.524 304.453 407.226 304.331C406.928 304.208 406.599 304.204 406.304 304.318L393.956 309.781C393.672 309.921 393.454 310.166 393.342 310.468C393.231 310.77 393.236 311.107 393.355 311.412C393.502 311.703 393.748 311.931 394.045 312.051C394.342 312.171 394.669 312.174 394.961 312.06Z" fill="white" stroke="#263238" stroke-miterlimit="10" stroke-linecap="round"/>
<path d="M396.348 315.177L408.712 309.724C408.992 309.582 409.208 309.336 409.317 309.035C409.426 308.734 409.42 308.399 409.3 308.096C409.156 307.804 408.913 307.575 408.618 307.452C408.323 307.329 407.997 307.322 407.703 307.432L395.343 312.899C395.062 313.04 394.847 313.286 394.738 313.587C394.629 313.888 394.635 314.223 394.755 314.526C394.82 314.676 394.912 314.811 395.028 314.925C395.144 315.039 395.279 315.129 395.428 315.19C395.576 315.25 395.734 315.28 395.892 315.278C396.05 315.276 396.205 315.242 396.348 315.177Z" fill="white" stroke="#263238" stroke-miterlimit="10" stroke-linecap="round"/>
<path d="M396.583 328.233C396.943 329.065 397.536 329.777 398.285 330.277C399.035 330.777 399.907 331.043 400.792 331.042C401.677 331.04 402.534 330.77 403.254 330.267C403.974 329.764 404.524 329.05 404.836 328.216C405.147 327.383 405.205 326.466 405.002 325.585C404.798 324.703 404.344 323.895 403.695 323.264C403.046 322.633 402.233 322.208 401.359 322.042C400.485 321.876 399.589 321.977 398.786 322.332C397.722 322.802 396.895 323.685 396.483 324.789C396.07 325.893 396.107 327.13 396.583 328.233Z" fill="#263238" stroke="#263238" stroke-miterlimit="10" stroke-linecap="round"/>
<path d="M400.953 325.65L413.378 320.18C413.524 320.118 413.655 320.026 413.763 319.909C413.872 319.793 413.956 319.655 414.011 319.503C414.066 319.351 414.09 319.189 414.082 319.026C414.075 318.863 414.035 318.702 413.966 318.552C413.823 318.261 413.58 318.031 413.284 317.908C412.989 317.785 412.663 317.778 412.369 317.889L399.944 323.359C399.799 323.421 399.668 323.513 399.559 323.63C399.45 323.746 399.366 323.884 399.311 324.036C399.257 324.188 399.232 324.35 399.24 324.513C399.248 324.676 399.287 324.837 399.356 324.986C399.42 325.138 399.512 325.275 399.627 325.39C399.743 325.506 399.879 325.597 400.028 325.659C400.176 325.721 400.335 325.752 400.494 325.75C400.653 325.749 400.809 325.715 400.953 325.65Z" fill="white" stroke="#263238" stroke-miterlimit="10" stroke-linecap="round"/>
<path d="M402.315 328.723L414.663 323.26C414.809 323.198 414.94 323.108 415.05 322.993C415.159 322.878 415.245 322.741 415.301 322.59C415.357 322.439 415.383 322.278 415.377 322.115C415.371 321.952 415.334 321.791 415.267 321.641C415.122 321.347 414.877 321.116 414.579 320.993C414.281 320.871 413.952 320.866 413.657 320.98L401.309 326.444C401.028 326.583 400.81 326.825 400.699 327.125C400.587 327.424 400.589 327.758 400.705 328.062C400.85 328.356 401.095 328.587 401.393 328.71C401.691 328.832 402.02 328.837 402.315 328.723Z" fill="white" stroke="#263238" stroke-miterlimit="10" stroke-linecap="round"/>
<path d="M402.572 341.811C402.929 342.642 403.518 343.354 404.264 343.855C405.01 344.357 405.879 344.626 406.761 344.629C407.644 344.632 408.5 344.368 409.222 343.871C409.943 343.374 410.498 342.666 410.815 341.837C411.132 341.008 411.198 340.095 411.003 339.214C410.809 338.333 410.363 337.523 409.723 336.886C409.083 336.25 408.276 335.816 407.406 335.64C406.536 335.463 405.641 335.552 404.835 335.894C403.758 336.356 402.916 337.236 402.492 338.345C402.068 339.453 402.097 340.699 402.572 341.811Z" fill="#263238" stroke="#263238" stroke-miterlimit="10" stroke-linecap="round"/>
<path d="M406.958 339.238L419.306 333.775C419.587 333.636 419.804 333.393 419.916 333.094C420.028 332.794 420.025 332.46 419.91 332.156C419.765 331.862 419.52 331.631 419.222 331.509C418.924 331.386 418.595 331.382 418.3 331.496L405.952 336.959C405.671 337.098 405.453 337.341 405.342 337.64C405.23 337.939 405.232 338.273 405.348 338.577C405.493 338.872 405.738 339.103 406.036 339.225C406.334 339.347 406.663 339.352 406.958 339.238Z" fill="white" stroke="#263238" stroke-miterlimit="10" stroke-linecap="round"/>
<path d="M408.306 342.261L420.654 336.798C420.937 336.658 421.156 336.413 421.267 336.111C421.379 335.809 421.374 335.472 421.254 335.167C421.108 334.875 420.862 334.648 420.565 334.528C420.268 334.408 419.941 334.405 419.648 334.519L407.284 339.972C407.004 340.114 406.788 340.36 406.68 340.661C406.571 340.962 406.577 341.297 406.696 341.6C406.841 341.895 407.086 342.126 407.384 342.248C407.682 342.37 408.011 342.375 408.306 342.261Z" fill="white" stroke="#263238" stroke-miterlimit="10" stroke-linecap="round"/>
<path d="M408.576 355.399C408.936 356.231 409.529 356.943 410.278 357.443C411.027 357.943 411.9 358.209 412.785 358.207C413.669 358.206 414.526 357.936 415.246 357.433C415.966 356.93 416.517 356.216 416.828 355.382C417.14 354.548 417.197 353.632 416.994 352.75C416.791 351.868 416.336 351.061 415.688 350.43C415.039 349.799 414.226 349.373 413.352 349.207C412.478 349.041 411.582 349.142 410.779 349.498C409.715 349.968 408.888 350.851 408.475 351.955C408.063 353.059 408.099 354.296 408.576 355.399Z" fill="#263238" stroke="#263238" stroke-miterlimit="10" stroke-linecap="round"/>
<path d="M413.008 352.852L425.356 347.389C425.64 347.249 425.859 347.004 425.97 346.702C426.081 346.4 426.076 346.063 425.957 345.758C425.81 345.467 425.564 345.239 425.267 345.119C424.97 344.999 424.644 344.996 424.351 345.11L411.987 350.564C411.706 350.706 411.491 350.951 411.382 351.252C411.273 351.553 411.279 351.888 411.399 352.192C411.543 352.486 411.789 352.717 412.087 352.839C412.385 352.962 412.713 352.966 413.008 352.852Z" fill="white" stroke="#263238" stroke-miterlimit="10" stroke-linecap="round"/>
<path d="M414.311 355.9L426.733 350.418C427.013 350.276 427.229 350.03 427.337 349.729C427.446 349.428 427.44 349.093 427.321 348.79C427.174 348.499 426.929 348.271 426.632 348.151C426.335 348.031 426.008 348.028 425.715 348.142L413.363 353.593C413.08 353.732 412.861 353.978 412.75 354.28C412.639 354.582 412.643 354.918 412.763 355.224C412.903 355.507 413.137 355.731 413.421 355.855C413.706 355.979 414.022 355.995 414.311 355.9Z" fill="white" stroke="#263238" stroke-miterlimit="10" stroke-linecap="round"/>
<path d="M414.581 368.987C414.948 369.81 415.543 370.511 416.292 371.002C417.041 371.493 417.91 371.752 418.789 371.746C419.668 371.74 420.519 371.469 421.234 370.968C421.949 370.467 422.497 369.757 422.808 368.929C423.119 368.101 423.18 367.191 422.982 366.313C422.785 365.436 422.339 364.63 421.7 363.997C421.061 363.364 420.257 362.933 419.39 362.757C418.523 362.581 417.631 362.668 416.827 363.008C416.286 363.236 415.799 363.572 415.393 363.998C414.987 364.423 414.67 364.928 414.461 365.484C414.252 366.041 414.155 366.637 414.176 367.238C414.196 367.839 414.334 368.434 414.581 368.987Z" fill="#263238" stroke="#263238" stroke-miterlimit="10" stroke-linecap="round"/>
<path d="M418.953 366.416L431.314 360.949C431.594 360.807 431.81 360.562 431.919 360.261C432.027 359.96 432.021 359.625 431.902 359.321C431.748 359.026 431.493 358.799 431.186 358.686C430.88 358.573 430.547 358.582 430.254 358.711L417.902 364.162C417.619 364.302 417.4 364.547 417.288 364.849C417.177 365.151 417.182 365.488 417.302 365.793C417.453 366.091 417.709 366.322 418.016 366.438C418.323 366.553 418.658 366.546 418.953 366.416Z" fill="white" stroke="#263238" stroke-miterlimit="10" stroke-linecap="round"/>
<path d="M420.311 369.476L432.663 364.025C432.946 363.885 433.165 363.64 433.276 363.338C433.387 363.036 433.383 362.699 433.263 362.394C433.119 362.1 432.873 361.869 432.575 361.746C432.277 361.624 431.949 361.62 431.654 361.734L419.293 367.2C419.013 367.342 418.797 367.587 418.689 367.888C418.58 368.19 418.586 368.524 418.705 368.828C418.852 369.119 419.098 369.347 419.395 369.467C419.692 369.587 420.018 369.59 420.311 369.476Z" fill="white" stroke="#263238" stroke-miterlimit="10" stroke-linecap="round"/>
<path d="M420.569 382.564C420.929 383.397 421.521 384.109 422.27 384.609C423.02 385.109 423.892 385.375 424.777 385.373C425.662 385.371 426.519 385.102 427.239 384.599C427.959 384.096 428.509 383.382 428.821 382.548C429.132 381.714 429.19 380.798 428.987 379.916C428.783 379.034 428.329 378.226 427.68 377.596C427.032 376.965 426.218 376.539 425.344 376.373C424.47 376.207 423.574 376.308 422.771 376.663C421.707 377.134 420.88 378.016 420.468 379.121C420.056 380.225 420.092 381.462 420.569 382.564Z" fill="#263238" stroke="#263238" stroke-miterlimit="10" stroke-linecap="round"/>
<path d="M424.941 379.942L437.292 374.491C437.576 374.351 437.795 374.106 437.906 373.804C438.017 373.502 438.012 373.165 437.893 372.86C437.828 372.709 437.734 372.573 437.617 372.458C437.501 372.343 437.363 372.253 437.214 372.193C437.064 372.133 436.905 372.103 436.746 372.106C436.587 372.11 436.431 372.146 436.287 372.212L423.923 377.666C423.643 377.808 423.427 378.053 423.318 378.354C423.209 378.655 423.215 378.99 423.335 379.294C423.4 379.444 423.494 379.581 423.61 379.696C423.727 379.81 423.864 379.9 424.014 379.961C424.164 380.021 424.323 380.051 424.482 380.047C424.641 380.044 424.797 380.008 424.941 379.942Z" fill="white" stroke="#263238" stroke-miterlimit="10" stroke-linecap="round"/>
<path d="M426.352 383.053L438.664 377.6C438.944 377.458 439.16 377.213 439.269 376.912C439.377 376.611 439.371 376.276 439.252 375.973C439.107 375.678 438.862 375.447 438.564 375.325C438.266 375.203 437.937 375.198 437.642 375.312L425.294 380.775C425.011 380.915 424.792 381.16 424.681 381.462C424.57 381.764 424.575 382.101 424.694 382.406C424.841 382.71 425.096 382.947 425.405 383.068C425.714 383.188 426.054 383.183 426.352 383.053Z" fill="white" stroke="#263238" stroke-miterlimit="10" stroke-linecap="round"/>
<path d="M426.573 396.152C426.933 396.984 427.525 397.696 428.275 398.196C429.024 398.696 429.897 398.962 430.781 398.961C431.666 398.959 432.523 398.689 433.243 398.186C433.963 397.683 434.514 396.969 434.825 396.135C435.136 395.301 435.194 394.385 434.991 393.503C434.788 392.622 434.333 391.814 433.684 391.183C433.036 390.552 432.223 390.127 431.349 389.961C430.474 389.795 429.579 389.896 428.775 390.251C427.712 390.721 426.884 391.604 426.472 392.708C426.06 393.812 426.096 395.049 426.573 396.152Z" fill="#263238" stroke="#263238" stroke-miterlimit="10" stroke-linecap="round"/>
<path d="M430.946 393.582L443.31 388.128C443.59 387.986 443.806 387.74 443.915 387.439C444.023 387.138 444.018 386.803 443.898 386.5C443.754 386.206 443.508 385.975 443.21 385.852C442.912 385.73 442.583 385.725 442.289 385.839L429.94 391.303C429.657 391.442 429.438 391.688 429.327 391.99C429.216 392.292 429.221 392.628 429.34 392.934C429.487 393.225 429.732 393.453 430.029 393.573C430.326 393.692 430.653 393.696 430.946 393.582Z" fill="white" stroke="#263238" stroke-miterlimit="10" stroke-linecap="round"/>
<path d="M432.307 396.654L444.656 391.191C444.937 391.052 445.154 390.809 445.266 390.51C445.377 390.21 445.375 389.876 445.259 389.572C445.115 389.278 444.869 389.047 444.571 388.924C444.273 388.802 443.945 388.798 443.65 388.912L431.289 394.378C431.009 394.52 430.793 394.765 430.685 395.066C430.576 395.368 430.582 395.702 430.701 396.006C430.848 396.297 431.094 396.525 431.391 396.645C431.688 396.765 432.015 396.768 432.307 396.654Z" fill="white" stroke="#263238" stroke-miterlimit="10" stroke-linecap="round"/>
<path d="M432.564 409.742C432.922 410.573 433.511 411.285 434.257 411.786C435.002 412.288 435.872 412.557 436.754 412.56C437.637 412.563 438.493 412.299 439.215 411.802C439.936 411.305 440.491 410.597 440.808 409.768C441.125 408.939 441.19 408.026 440.996 407.145C440.802 406.264 440.356 405.454 439.716 404.817C439.075 404.181 438.269 403.747 437.399 403.571C436.529 403.394 435.634 403.483 434.828 403.825C433.749 404.284 432.905 405.164 432.48 406.274C432.056 407.383 432.086 408.63 432.564 409.742Z" fill="#263238" stroke="#263238" stroke-miterlimit="10" stroke-linecap="round"/>
<path d="M436.95 407.169L449.302 401.719C449.585 401.579 449.804 401.334 449.915 401.032C450.026 400.73 450.022 400.393 449.902 400.087C449.757 399.793 449.512 399.562 449.214 399.44C448.916 399.317 448.587 399.313 448.293 399.427L435.932 404.893C435.652 405.035 435.436 405.281 435.327 405.582C435.219 405.883 435.225 406.218 435.344 406.521C435.49 406.812 435.736 407.04 436.033 407.16C436.33 407.28 436.657 407.283 436.95 407.169Z" fill="white" stroke="#263238" stroke-miterlimit="10" stroke-linecap="round"/>
<path d="M438.3 410.244L450.66 404.778C450.94 404.636 451.156 404.391 451.265 404.09C451.373 403.789 451.368 403.454 451.248 403.15C451.183 403.001 451.09 402.865 450.975 402.751C450.859 402.638 450.723 402.548 450.575 402.487C450.427 402.427 450.269 402.396 450.111 402.399C449.953 402.401 449.798 402.435 449.654 402.499L437.294 407.965C437.149 408.026 437.017 408.117 436.909 408.232C436.8 408.347 436.715 408.484 436.66 408.635C436.605 408.786 436.58 408.947 436.587 409.109C436.595 409.272 436.634 409.432 436.702 409.581C436.846 409.873 437.089 410.102 437.384 410.225C437.68 410.348 438.006 410.355 438.3 410.244Z" fill="white" stroke="#263238" stroke-miterlimit="10" stroke-linecap="round"/>
<g opacity="0.3">
<path opacity="0.3" d="M182.589 219.084L185.663 217.727" stroke="black" stroke-miterlimit="10" stroke-linecap="round"/>
<path opacity="0.3" d="M188.779 216.357L191.849 214.988" stroke="black" stroke-miterlimit="10" stroke-linecap="round"/>
<path opacity="0.3" d="M153.583 237.02L156.641 235.654" stroke="black" stroke-miterlimit="10" stroke-linecap="round"/>
<path opacity="0.3" d="M159.757 234.283L162.827 232.914" stroke="black" stroke-miterlimit="10" stroke-linecap="round"/>
<path opacity="0.3" d="M165.946 231.556L169.004 230.19" stroke="black" stroke-miterlimit="10" stroke-linecap="round"/>
<path opacity="0.3" d="M172.12 228.82L175.189 227.451" stroke="black" stroke-miterlimit="10" stroke-linecap="round"/>
<path opacity="0.3" d="M178.293 226.084L181.363 224.715" stroke="black" stroke-miterlimit="10" stroke-linecap="round"/>
<path opacity="0.3" d="M184.479 223.345L187.537 221.979" stroke="black" stroke-miterlimit="10" stroke-linecap="round"/>
<path opacity="0.3" d="M190.653 220.609L193.726 219.252" stroke="black" stroke-miterlimit="10" stroke-linecap="round"/>
<path opacity="0.3" d="M155.461 241.284L158.531 239.915" stroke="black" stroke-miterlimit="10" stroke-linecap="round"/>
<path opacity="0.3" d="M161.635 238.547L164.704 237.178" stroke="black" stroke-miterlimit="10" stroke-linecap="round"/>
<path opacity="0.3" d="M167.82 235.808L170.894 234.451" stroke="black" stroke-miterlimit="10" stroke-linecap="round"/>
<path opacity="0.3" d="M173.998 233.084L177.067 231.715" stroke="black" stroke-miterlimit="10" stroke-linecap="round"/>
<path opacity="0.3" d="M180.183 230.344L183.241 228.978" stroke="black" stroke-miterlimit="10" stroke-linecap="round"/>
<path opacity="0.3" d="M186.357 227.608L189.427 226.239" stroke="black" stroke-miterlimit="10" stroke-linecap="round"/>
<path opacity="0.3" d="M192.531 224.872L195.601 223.503" stroke="black" stroke-miterlimit="10" stroke-linecap="round"/>
<path opacity="0.3" d="M157.339 245.548L160.409 244.179" stroke="black" stroke-miterlimit="10" stroke-linecap="round"/>
<path opacity="0.3" d="M163.525 242.808L166.583 241.442" stroke="black" stroke-miterlimit="10" stroke-linecap="round"/>
<path opacity="0.3" d="M169.699 240.072L172.768 238.703" stroke="black" stroke-miterlimit="10" stroke-linecap="round"/>
<path opacity="0.3" d="M175.888 237.345L178.945 235.979" stroke="black" stroke-miterlimit="10" stroke-linecap="round"/>
<path opacity="0.3" d="M182.061 234.609L185.131 233.24" stroke="black" stroke-miterlimit="10" stroke-linecap="round"/>
<path opacity="0.3" d="M188.235 231.873L191.305 230.504" stroke="black" stroke-miterlimit="10" stroke-linecap="round"/>
<path opacity="0.3" d="M194.421 229.133L197.478 227.767" stroke="black" stroke-miterlimit="10" stroke-linecap="round"/>
<path opacity="0.3" d="M159.229 249.808L162.286 248.442" stroke="black" stroke-miterlimit="10" stroke-linecap="round"/>
<path opacity="0.3" d="M165.403 247.072L168.472 245.703" stroke="black" stroke-miterlimit="10" stroke-linecap="round"/>
<path opacity="0.3" d="M171.576 244.336L174.646 242.967" stroke="black" stroke-miterlimit="10" stroke-linecap="round"/>
<path opacity="0.3" d="M177.762 241.597L180.835 240.24" stroke="black" stroke-miterlimit="10" stroke-linecap="round"/>
<path opacity="0.3" d="M183.939 238.873L187.009 237.504" stroke="black" stroke-miterlimit="10" stroke-linecap="round"/>
<path opacity="0.3" d="M190.125 236.133L193.183 234.767" stroke="black" stroke-miterlimit="10" stroke-linecap="round"/>
<path opacity="0.3" d="M196.299 233.397L199.369 232.028" stroke="black" stroke-miterlimit="10" stroke-linecap="round"/>
<path opacity="0.3" d="M149.223 227.166L152.293 225.797" stroke="black" stroke-miterlimit="10" stroke-linecap="round"/>
<path opacity="0.3" d="M155.409 224.427L158.482 223.07" stroke="black" stroke-miterlimit="10" stroke-linecap="round"/>
<path opacity="0.3" d="M161.586 221.703L164.656 220.334" stroke="black" stroke-miterlimit="10" stroke-linecap="round"/>
<path opacity="0.3" d="M167.772 218.964L170.83 217.598" stroke="black" stroke-miterlimit="10" stroke-linecap="round"/>
<path opacity="0.3" d="M173.945 216.228L177.015 214.858" stroke="black" stroke-miterlimit="10" stroke-linecap="round"/>
<path opacity="0.3" d="M180.131 213.488L183.193 212.134" stroke="black" stroke-miterlimit="10" stroke-linecap="round"/>
<path opacity="0.3" d="M186.308 210.764L189.378 209.395" stroke="black" stroke-miterlimit="10" stroke-linecap="round"/>
<path opacity="0.3" d="M190.563 211.675L150.164 229.677" stroke="black" stroke-miterlimit="10" stroke-linecap="round"/>
<path opacity="0.3" d="M159.154 216.429L174.74 209.477" stroke="black" stroke-miterlimit="10" stroke-linecap="round"/>
<path opacity="0.3" d="M151.652 267.745L323.552 191.118" stroke="black" stroke-miterlimit="10" stroke-linecap="round"/>
<path opacity="0.3" d="M157.823 281.709L329.71 205.086" stroke="black" stroke-miterlimit="10" stroke-linecap="round"/>
<path opacity="0.3" d="M163.977 295.665L335.877 219.038" stroke="black" stroke-miterlimit="10" stroke-linecap="round"/>
<path opacity="0.3" d="M170.149 309.629L342.037 233.006" stroke="black" stroke-miterlimit="10" stroke-linecap="round"/>
<path opacity="0.3" d="M176.307 323.596L348.207 246.969" stroke="black" stroke-miterlimit="10" stroke-linecap="round"/>
<path opacity="0.3" d="M182.478 337.56L354.362 260.924" stroke="black" stroke-miterlimit="10" stroke-linecap="round"/>
<path opacity="0.3" d="M188.633 351.515L360.533 274.888" stroke="black" stroke-miterlimit="10" stroke-linecap="round"/>
<path opacity="0.3" d="M194.804 365.479L366.692 288.856" stroke="black" stroke-miterlimit="10" stroke-linecap="round"/>
<path opacity="0.3" d="M200.962 379.447L372.862 302.82" stroke="black" stroke-miterlimit="10" stroke-linecap="round"/>
<path opacity="0.3" d="M207.133 393.411L379.017 316.775" stroke="black" stroke-miterlimit="10" stroke-linecap="round"/>
<path opacity="0.3" d="M213.288 407.366L385.188 330.739" stroke="black" stroke-miterlimit="10" stroke-linecap="round"/>
<path opacity="0.3" d="M219.459 421.33L391.359 344.703" stroke="black" stroke-miterlimit="10" stroke-linecap="round"/>
<path opacity="0.3" d="M225.617 435.297L397.517 358.671" stroke="black" stroke-miterlimit="10" stroke-linecap="round"/>
<path opacity="0.3" d="M240.265 468.454L412.153 391.831" stroke="black" stroke-miterlimit="10" stroke-linecap="round"/>
<path opacity="0.3" d="M245.146 479.512L417.03 402.876" stroke="black" stroke-miterlimit="10" stroke-linecap="round"/>
<path opacity="0.3" d="M250.022 490.557L421.91 413.933" stroke="black" stroke-miterlimit="10" stroke-linecap="round"/>
</g>
<path d="M180.525 274.475C180.525 274.475 169.871 295.716 178.011 290.675C186.151 285.634 193.376 264.465 192.841 272.614C192.305 280.762 193.833 285.817 196.594 279.568C199.355 273.32 201.411 271.681 201.305 274.599C201.199 277.518 204.147 274.777 204.147 274.777C204.147 274.777 211.282 267.312 211.124 270.231C210.966 273.15 210.459 273.405 212.774 272.377L220.281 269.049C220.281 269.049 219.969 269.918 226.901 266.836C233.833 263.755 236.188 261.291 239.662 259.755" stroke="#263238" stroke-miterlimit="10" stroke-linecap="round"/>
<path d="M180.181 299.531C180.181 299.531 189.917 288.776 191.869 290.066C193.822 291.355 192.57 294.769 197.504 291.879C202.438 288.989 206.036 283.092 207.098 285.481C208.16 287.87 211.097 285.151 211.097 285.151L213.981 283.867C213.981 283.867 219.442 282.179 220.913 280.806C222.384 279.432 221.813 270.376 223.708 282.443C225.603 294.51 218.19 285.594 227.845 277.745C237.499 269.895 241.028 274.779 241.028 274.779C242.169 274.175 243.238 273.441 244.215 272.59C246.245 270.962 247.497 267.547 250.292 269.184C253.087 270.821 255.085 262.77 255.085 262.77C256.693 262.664 258.309 262.666 259.922 262.776C261.478 262.916 263.036 262.715 264.492 262.188C266.358 261.778 268.183 261.209 269.95 260.488C272.287 259.455 273.515 256.047 275.771 256.485C278.027 256.923 278.632 247.328 279.989 258.196C281.345 269.064 272.849 276.408 275.078 268.96C277.062 262.444 280.251 256.412 284.474 251.186C288.039 246.746 289.453 246.836 291.09 248.979C292.726 251.123 293.881 250.604 295.927 248.985C297.973 247.366 295.717 246.928 297.973 247.366C298.744 247.582 299.544 247.641 300.328 247.54C301.112 247.439 301.865 247.18 302.543 246.778C304.285 246.01 297.215 253.44 304.285 246.01C311.355 238.58 308.642 216.844 307.369 229.592C306.096 242.341 308.587 244.829 314.102 241.665" stroke="#263238" stroke-miterlimit="10" stroke-linecap="round"/>
<path d="M186.753 319.549C186.753 319.549 197.321 301.157 195.938 299.6C194.555 298.043 190.473 301.311 188.81 308.532C187.147 315.754 190.485 318.607 198.152 310.882C205.819 303.156 194.349 313.245 203.839 311.237C213.33 309.229 214.383 302.223 215.178 304.03C215.973 305.837 212.813 306.518 220.043 304.111C227.272 301.704 222.76 299.31 230.493 298.023C238.225 296.737 240.906 293.389 240.906 293.389L245.531 291.341C245.531 291.341 235.99 294.847 248.151 289.452C260.313 284.058 261.433 266.245 257.689 276.562C253.944 286.878 257.567 288.853 262.873 283.629L268.175 278.392C268.175 278.392 273.652 267.306 273.23 280.467C272.807 293.628 265.94 285.873 278.215 276.09C290.491 266.307 291.732 272.246 295.829 268.988C299.926 265.73 297.793 260.897 301.971 264.088C306.149 267.279 305.614 266.086 310.234 264.025C314.855 261.964 313.425 261.823 317.491 260.085L326.215 256.181" stroke="#263238" stroke-miterlimit="10" stroke-linecap="round"/>
<path d="M200.849 362.532C200.849 362.532 209.116 353.163 208.028 342.919C206.94 332.674 202.47 347.517 207.152 361.168C211.835 374.819 201.874 357.067 214.662 348.568C227.449 340.07 214.548 352.917 216.735 354.776C218.922 356.634 227.887 344.14 228.632 347.373C229.377 350.607 232.194 350.802 237.59 342.71C242.986 334.618 231.746 338.838 232.453 343.553C233.16 348.269 236.084 345.52 243.942 339.903C251.799 334.285 244.471 341.114 249.665 338.812C254.859 336.509 263.842 322.553 262.813 328.005C261.785 333.457 264.836 335.697 266.658 332.035C268.48 328.373 271.922 318.983 273.241 321.972C274.026 323.736 274.155 325.716 273.604 327.533" stroke="#263238" stroke-miterlimit="10" stroke-linecap="round"/>
<path opacity="0.3" d="M111.27 262.322C110.97 262.13 110.658 261.96 110.335 261.813C109.409 261.401 108.438 261.113 107.446 260.955L106.865 260.895L106.734 260.929C101.607 260.657 85.2976 264.156 79.823 265.324C78.461 265.628 77.2524 266.398 76.3937 267.509C75.535 268.62 75.0766 270.006 75.093 271.442L75.1302 271.578C75.226 276.407 89.5314 392.429 89.5314 392.429C89.5314 392.429 90.0897 394.929 90.9833 398.835C91.376 400.545 91.8568 402.575 92.3205 404.637C92.4662 405.167 92.612 405.698 92.7612 406.241C93.0595 407.327 93.2809 408.46 93.5415 409.595C94.4742 413.597 95.4765 417.806 96.4163 421.648C97.0784 424.384 97.7169 426.942 98.2709 429.099C98.7421 430.814 99.1421 432.271 99.4472 433.381C100.144 435.971 100.993 438.518 101.991 441.01C103.333 444.072 104.813 445.259 107.6 445.045C108.292 444.996 109.29 444.894 110.491 444.739L111.232 444.637L114.623 444.147L115.556 443.996L118.432 443.495L120.404 443.111L122.38 442.7C123.677 442.427 124.952 442.12 126.16 441.804C127.927 441.37 129.657 440.807 131.339 440.118L131.494 440.078L131.913 439.875L132.37 439.624L132.465 439.599L132.912 439.31L133.649 438.773L134.314 438.255C135.214 437.571 136.035 436.784 136.76 435.909C136.992 435.618 137.208 435.315 137.407 434.999C137.599 434.702 137.771 434.392 137.922 434.071L138.128 433.607C138.408 432.928 138.645 432.23 138.836 431.517C138.869 431.405 138.888 431.288 138.894 431.171L138.915 430.967L138.947 430.615C138.947 430.511 138.953 430.408 138.965 430.306C138.927 430.17 138.969 430.04 138.976 429.88L138.988 429.506C138.944 429.345 138.987 429.175 138.988 428.99C138.988 428.805 138.997 428.697 138.996 428.552C138.994 428.406 138.99 428.156 138.995 427.943C139.001 427.73 138.987 427.588 138.991 427.415C138.995 427.242 138.978 426.995 138.977 426.757C138.976 426.52 138.971 426.362 138.968 426.165C138.965 425.967 138.954 425.692 138.946 425.43L138.93 424.812L138.903 424.012C138.845 423.803 138.888 423.54 138.887 423.302L138.849 422.465C138.848 422.228 138.828 421.968 138.824 421.718C138.819 421.468 138.803 421.128 138.785 420.829L138.757 420.029C138.679 419.745 138.733 419.427 138.711 419.115C138.69 418.803 138.682 418.541 138.679 418.251C138.676 417.96 138.648 417.624 138.623 417.3C138.605 417.212 138.581 417.125 138.552 417.04C138.504 416.868 138.541 416.673 138.529 416.491C138.517 416.309 138.489 415.787 138.478 415.419C138.467 415.052 138.444 414.873 138.429 414.586C138.414 414.299 138.386 413.869 138.375 413.502L138.33 412.641L138.264 411.56C138.183 411.264 138.23 410.921 138.208 410.609L138.156 409.578C138.071 409.269 138.114 408.914 138.089 408.59L138.037 407.558C137.996 407.41 137.956 407.262 137.999 407.092C138.042 406.922 137.987 406.725 137.976 406.543C137.964 406.361 137.931 405.867 137.903 405.53C137.875 405.194 137.862 404.866 137.845 404.527C137.829 404.187 137.794 403.826 137.777 403.486C137.761 403.146 137.733 402.81 137.716 402.47C137.7 402.131 137.666 401.822 137.653 401.495C137.64 401.167 137.599 400.782 137.575 400.417L137.511 399.482C137.494 399.142 137.469 398.818 137.444 398.494C137.42 398.17 137.396 397.805 137.38 397.466L137.305 396.493C137.227 396.209 137.269 395.894 137.239 395.598C137.209 395.301 137.207 395.156 137.197 394.934L137.171 394.557C137.096 394.286 137.129 393.986 137.103 393.702C137.076 393.418 137.065 393.051 137.04 392.726C137.015 392.402 136.99 392.171 136.978 391.896L136.897 390.899C136.839 390.689 136.862 390.445 136.84 390.226L136.787 389.472C136.763 389.386 136.74 389.3 136.712 389.201C136.685 389.102 136.684 388.772 136.663 388.553L136.595 387.605L136.533 386.96C136.515 386.66 136.484 386.364 136.461 386.092L136.42 385.521L136.336 384.656C136.295 384.508 136.258 384.373 136.304 384.215L136.228 383.375L136.191 382.962C136.123 382.715 136.142 382.458 136.117 382.227C136.036 381.931 136.05 381.609 136.027 381.338C135.891 380.05 135.417 377.251 134.705 373.35C134.443 371.884 134.141 370.27 133.81 368.505C132.595 362.076 130.969 353.824 129.162 344.773C128.942 343.971 128.826 343.128 128.652 342.261C121.817 308.043 112.631 264.241 112.631 264.241C112.539 263.848 112.372 263.475 112.138 263.145C111.904 262.815 111.609 262.535 111.27 262.322Z" fill="black"/>
<path d="M83.4707 392.739C83.4707 392.739 90.7324 424.915 93.3205 433.683C95.9085 442.45 97.0171 445.692 101.465 445.362C105.914 445.032 122.719 442.448 126.797 439.556C130.875 436.663 131.896 434.782 132.712 431.778C133.528 428.773 131.081 391.767 129.999 381.48C128.917 371.194 106.624 264.417 106.624 264.417C106.624 264.417 106.262 262.117 101.35 261.272C97.3034 260.545 79.4743 264.349 73.726 265.641C72.3514 265.933 71.1278 266.698 70.2565 267.811C69.3853 268.923 68.9183 270.317 68.9325 271.763C68.9325 271.763 68.9597 271.862 68.9698 271.899C69.1254 276.713 83.4707 392.739 83.4707 392.739Z" fill="#2883EE" stroke="#263238" stroke-linecap="round" stroke-linejoin="round"/>
<path opacity="0.5" d="M125.076 440.334C125.852 440.047 126.592 439.667 127.28 439.202C131.318 436.32 132.266 434.46 133.054 431.466C133.843 428.472 131.284 391.545 130.179 381.28C129.073 371.014 106.736 264.407 106.736 264.407C106.736 264.407 106.371 262.112 101.545 261.25C101.081 261.176 100.614 261.144 100.148 261.154C105.897 285.738 110.692 315.46 114.608 351.238C118.381 385.072 123.32 425.866 125.076 440.334Z" fill="black"/>
<path d="M83.4707 392.739C83.4707 392.739 90.7324 424.915 93.3205 433.683C95.9085 442.45 97.0171 445.692 101.465 445.362C105.914 445.032 122.719 442.448 126.797 439.556C130.875 436.663 131.896 434.782 132.712 431.778C133.528 428.773 131.081 391.767 129.999 381.48C128.917 371.194 106.624 264.417 106.624 264.417C106.624 264.417 106.262 262.117 101.35 261.272C97.3034 260.545 79.4743 264.349 73.726 265.641C72.3514 265.933 71.1278 266.698 70.2565 267.811C69.3853 268.923 68.9183 270.317 68.9325 271.763C68.9325 271.763 68.9597 271.862 68.9698 271.899C69.1254 276.713 83.4707 392.739 83.4707 392.739Z" stroke="#263238" stroke-linecap="round" stroke-linejoin="round"/>
<path d="M117.36 387.321C112.188 388.665 89.2501 392.045 85.589 392.185C84.5486 392.231 83.5049 392.218 82.4627 392.146L82.5314 392.394C82.5314 392.394 89.8827 424.765 92.5028 433.586C95.1228 442.407 96.2451 445.668 100.749 445.336C105.252 445.004 122.266 442.405 126.395 439.495C130.523 436.586 131.558 434.693 132.384 431.67C133.21 428.648 130.909 393.461 129.733 381.975C126.015 385.43 121.6 386.179 117.36 387.321Z" fill="#263238"/>
<path opacity="0.5" d="M125.175 440.334C125.949 440.048 126.685 439.669 127.37 439.205C131.391 436.329 132.334 434.471 133.115 431.478C133.897 428.486 131.292 391.561 130.175 381.295C129.058 371.03 106.638 264.408 106.638 264.408C106.638 264.408 106.27 262.113 101.458 261.244C100.996 261.17 100.53 261.138 100.066 261.146C105.833 285.734 110.656 315.459 114.611 351.237C118.421 385.071 123.404 425.866 125.175 440.334Z" fill="black"/>
<path opacity="0.26" d="M118.647 390.345C122.041 389.292 125.298 387.847 128.359 386.037" stroke="white" stroke-linecap="round" stroke-linejoin="round"/>
<path d="M85.0969 395.252C85.0969 395.252 113.828 391.997 118.615 390.545" stroke="white" stroke-linecap="round" stroke-linejoin="round"/>
<path d="M117.36 387.321C112.188 388.665 89.2501 392.045 85.589 392.185C84.5486 392.231 83.5049 392.218 82.4627 392.146L82.5314 392.394C82.5314 392.394 89.8827 424.765 92.5028 433.586C95.1228 442.407 96.2451 445.668 100.749 445.336C105.252 445.004 122.266 442.405 126.395 439.495C130.523 436.586 131.558 434.693 132.384 431.67C133.21 428.648 130.909 393.461 129.733 381.975C126.015 385.43 121.6 386.179 117.36 387.321Z" stroke="#263238" stroke-linecap="round" stroke-linejoin="round"/>
<path d="M444.558 161.333C466.45 141.251 467.456 106.721 446.805 84.2084C426.154 61.6961 391.665 59.7263 369.773 79.8087C347.881 99.8911 346.875 134.421 367.526 156.933C388.177 179.445 422.666 181.415 444.558 161.333Z" fill="#263238" stroke="#263238" stroke-linecap="round" stroke-linejoin="round"/>
<path d="M455.143 109.54C450.62 79.3157 423.083 57.8825 393.638 61.6675C364.192 65.4526 343.988 93.0225 348.511 123.247C353.034 153.471 380.571 174.904 410.017 171.119C439.462 167.334 459.666 139.764 455.143 109.54Z" fill="white" stroke="#263238" stroke-linecap="round" stroke-linejoin="round"/>
<path d="M450.069 112.152C447.038 84.7924 422.986 64.5136 396.349 66.8584C369.712 69.2032 350.576 93.2835 353.607 120.643C356.639 148.003 380.69 168.282 407.327 165.937C433.965 163.592 453.101 139.512 450.069 112.152Z" fill="#263238" stroke="#263238" stroke-linecap="round" stroke-linejoin="round"/>
<path d="M386.352 81.882C386.352 81.882 377.515 69.9631 365.872 63.0008C354.229 56.0384 315.726 59.6842 315.726 59.6842C323.307 64.0273 330.499 69.0594 337.211 74.7171C348.921 84.4625 384.271 104.427 384.271 104.427C384.271 104.427 367.375 96.0157 354.715 97.8924C342.055 99.7692 312.837 114.458 310.895 114.962C308.953 115.467 324.003 117.25 334.996 119.367C345.99 121.484 384.608 115.714 384.608 115.714C384.608 115.714 369.723 124.557 359.815 131.399C349.907 138.242 347.631 170.105 347.631 170.105C347.631 170.105 358.202 153.142 369.579 146.625C380.956 140.107 396.785 129.646 396.785 129.646C396.785 129.646 389.273 145.107 389.071 154.401C388.869 163.695 396.299 183.088 396.299 183.088C396.299 183.088 396.99 162.998 402.087 153.859C407.184 144.719 411.464 130.084 411.464 130.084C416.705 135.143 421.661 140.498 426.306 146.124C434.597 156.064 442.419 171.794 442.419 171.794C442.419 171.794 445.698 151.045 442.486 141.919C439.273 132.792 424.997 118.753 424.997 118.753C424.997 118.753 430.184 112.431 440.982 113.891C451.781 115.352 473.201 127.562 473.201 127.562C473.201 127.562 463.266 106.686 454.414 99.7454C445.561 92.8048 417.005 97.3726 417.005 97.3726C417.005 97.3726 429.963 84.0564 439.123 79.5421C448.283 75.0277 462.504 76.3057 462.504 76.3057C462.504 76.3057 441.764 59.0256 429.739 60.6573C417.714 62.2891 405.376 85.4724 405.376 85.4724C405.376 85.4724 403.757 64.5563 403.226 57.5998C402.695 50.6433 395.509 34.7213 395.509 34.7213C395.509 34.7213 389.497 40.5512 384.57 55.3407C383.105 59.6108 382.508 64.161 382.814 68.7206C383.12 73.2803 384.323 77.7562 386.352 81.882Z" fill="#C6FF00"/>
<path opacity="0.5" d="M386.352 81.882C386.352 81.882 377.515 69.9631 365.872 63.0008C354.229 56.0384 315.726 59.6842 315.726 59.6842C323.307 64.0273 330.499 69.0594 337.211 74.7171C348.921 84.4625 384.271 104.427 384.271 104.427C384.271 104.427 367.375 96.0157 354.715 97.8924C342.055 99.7692 312.837 114.458 310.895 114.962C308.953 115.467 324.003 117.25 334.996 119.367C345.99 121.484 384.608 115.714 384.608 115.714C384.608 115.714 369.723 124.557 359.815 131.399C349.907 138.242 347.631 170.105 347.631 170.105C347.631 170.105 358.202 153.142 369.579 146.625C380.956 140.107 396.785 129.646 396.785 129.646C396.785 129.646 389.273 145.107 389.071 154.401C388.869 163.695 396.299 183.088 396.299 183.088C396.299 183.088 396.99 162.998 402.087 153.859C407.184 144.719 411.464 130.084 411.464 130.084C416.705 135.143 421.661 140.498 426.306 146.124C434.597 156.064 442.419 171.794 442.419 171.794C442.419 171.794 445.698 151.045 442.486 141.919C439.273 132.792 424.997 118.753 424.997 118.753C424.997 118.753 430.184 112.431 440.982 113.891C451.781 115.352 473.201 127.562 473.201 127.562C473.201 127.562 463.266 106.686 454.414 99.7454C445.561 92.8048 417.005 97.3726 417.005 97.3726C417.005 97.3726 429.963 84.0564 439.123 79.5421C448.283 75.0277 462.504 76.3057 462.504 76.3057C462.504 76.3057 441.764 59.0256 429.739 60.6573C417.714 62.2891 405.376 85.4724 405.376 85.4724C405.376 85.4724 403.757 64.5563 403.226 57.5998C402.695 50.6433 395.509 34.7213 395.509 34.7213C395.509 34.7213 389.497 40.5512 384.57 55.3407C383.105 59.6108 382.508 64.161 382.814 68.7206C383.12 73.2803 384.323 77.7562 386.352 81.882Z" fill="black"/>
<path d="M394.322 58.802C394.243 56.7873 394.218 54.7847 394.244 52.7819" stroke="#263238" stroke-width="0.5" stroke-linecap="round" stroke-linejoin="round"/>
<path d="M350.548 70.022C357.859 72.9805 367.126 77.2408 372.505 81.6198C382.35 89.7098 402.418 107.203 402.418 107.203C398.081 93.0828 395.249 78.5685 393.97 63.9141" stroke="#263238" stroke-width="0.5" stroke-linecap="round" stroke-linejoin="round"/>
<path d="M339.817 66.6469C339.817 66.6469 342.047 67.4045 345.43 68.6515" stroke="#263238" stroke-width="0.5" stroke-linecap="round" stroke-linejoin="round"/>
<path d="M402.786 106.758C402.786 106.758 420.485 74.949 430.331 70.2363C440.177 65.5235 451.495 71.167 451.495 71.167" stroke="#263238" stroke-width="0.5" stroke-linecap="round" stroke-linejoin="round"/>
<path d="M363.507 139.564C358.604 145.025 358.666 147.369 358.666 147.369" stroke="#263238" stroke-width="0.5" stroke-linecap="round" stroke-linejoin="round"/>
<path d="M462.865 115.74C462.865 115.74 456.176 106.632 441.179 105.505C426.181 104.377 404.484 109.341 404.484 109.341C404.484 109.341 377.1 127.505 367.523 135.737" stroke="#263238" stroke-width="0.5" stroke-linecap="round" stroke-linejoin="round"/>
<path d="M390.391 109.397C398.325 109.66 404.596 109.736 404.596 109.736" stroke="#263238" stroke-width="0.5" stroke-linecap="round" stroke-linejoin="round"/>
<path d="M341.192 109.929C348.394 108.516 357.791 107.123 363.483 108.043C368.119 108.792 377.004 109.309 385.332 109.66" stroke="#263238" stroke-width="0.5" stroke-linecap="round" stroke-linejoin="round"/>
<path d="M331.049 112.568C331.049 112.568 333.441 111.929 337.013 111.127" stroke="#263238" stroke-width="0.5" stroke-linecap="round" stroke-linejoin="round"/>
<path d="M403.912 113.969C403.912 113.969 393.607 146.32 394.125 153.247C394.431 157.356 395.095 161.439 396.108 165.448" stroke="#263238" stroke-width="0.5" stroke-linecap="round" stroke-linejoin="round"/>
<path d="M414.816 120.262C419.523 123.947 425.344 128.969 428.431 133.5C432.105 138.967 435.305 144.744 437.994 150.761" stroke="#263238" stroke-width="0.5" stroke-linecap="round" stroke-linejoin="round"/>
<path d="M407.489 115.193C407.489 115.193 409.382 116.457 412.075 118.457" stroke="#263238" stroke-width="0.5" stroke-linecap="round" stroke-linejoin="round"/>
<path d="M380.012 89.691C380.012 89.691 372.843 76.7166 371.338 63.2414C369.833 49.7662 388.937 16.0828 388.937 16.0828C389.752 24.7957 391.354 33.4358 393.722 41.8932C397.786 56.5931 401.322 97.1401 401.322 97.1401C401.322 97.1401 400.643 78.247 407.536 67.4462C414.429 56.6453 439.697 35.918 440.929 34.2673C442.16 32.6165 437.619 47.1841 435.03 58.1039C432.441 69.0237 411.36 101.943 411.36 101.943C411.36 101.943 425.477 91.9661 435.732 85.7208C445.987 79.4755 475.829 90.5088 475.829 90.5088C475.829 90.5088 456.142 93.204 445.582 100.926C435.021 108.648 419.017 118.796 419.017 118.796C419.017 118.796 436.1 118.282 444.543 121.916C452.985 125.55 467.527 140.308 467.527 140.308C467.527 140.308 449.066 132.69 438.699 133.602C428.333 134.513 413.334 132.423 413.334 132.423C415.771 139.288 418.589 146.015 421.772 152.573C427.357 164.23 438.4 177.834 438.4 177.834C438.4 177.834 418.272 172.313 411.335 165.626C404.398 158.939 397.535 140.123 397.535 140.123C397.535 140.123 389.679 142.272 386.563 152.743C383.448 163.214 385.723 187.787 385.723 187.787C385.723 187.787 370.891 170.15 368.243 159.208C365.595 148.266 381.461 124.047 381.461 124.047C381.461 124.047 364.078 130.428 356.233 136.939C348.388 143.449 343.718 156.986 343.718 156.986C343.718 156.986 336.511 130.914 342.986 120.621C349.461 110.328 375.44 108.512 375.44 108.512L351.091 95.0926C344.977 91.758 333.569 78.6613 333.569 78.6613C333.569 78.6613 341.301 75.5469 356.715 77.1163C361.186 77.535 365.553 78.8643 369.556 81.0248C373.559 83.1853 377.115 86.1328 380.012 89.691Z" fill="#C6FF00"/>
<path d="M355.53 87.3693C353.717 86.4614 351.891 85.6013 350.052 84.789" stroke="#263238" stroke-width="0.5" stroke-linecap="round" stroke-linejoin="round"/>
<path d="M383.572 52.2793C383.251 60.1455 383.305 70.3535 385.082 77.0766C388.342 89.3661 395.921 114.836 395.921 114.836C384.967 105.092 373.04 96.5613 360.35 89.3935" stroke="#263238" stroke-width="0.5" stroke-linecap="round" stroke-linejoin="round"/>
<path d="M385.107 40.8756C385.107 40.8756 384.849 43.2063 384.614 46.7883" stroke="#263238" stroke-width="0.5" stroke-linecap="round" stroke-linejoin="round"/>
<path d="M395.623 114.576C395.623 114.576 359.476 117.761 351.133 124.858C342.79 131.954 343.26 144.767 343.26 144.767" stroke="#263238" stroke-width="0.5" stroke-linecap="round" stroke-linejoin="round"/>
<path d="M441.637 92.4826C448.679 90.1863 450.792 91.2408 450.792 91.2408" stroke="#263238" stroke-width="0.5" stroke-linecap="round" stroke-linejoin="round"/>
<path d="M379.286 173.087C379.286 173.087 373.905 163.324 379.009 149.232C384.113 135.14 397.431 117.404 397.431 117.404C397.431 117.404 424.796 99.8359 436.058 94.4515" stroke="#263238" stroke-width="0.5" stroke-linecap="round" stroke-linejoin="round"/>
<path d="M403.154 104.657C400.194 111.915 397.685 117.713 397.685 117.713" stroke="#263238" stroke-width="0.5" stroke-linecap="round" stroke-linejoin="round"/>
<path d="M423.831 60.085C419.627 66.047 414.571 73.9996 413.066 79.5394C411.847 84.047 408.707 92.3131 405.63 100.004" stroke="#263238" stroke-width="0.5" stroke-linecap="round" stroke-linejoin="round"/>
<path d="M430.469 51.8078C430.469 51.8078 428.938 53.7153 426.789 56.6384" stroke="#263238" stroke-width="0.5" stroke-linecap="round" stroke-linejoin="round"/>
<path d="M401.598 118.788C401.598 118.788 435.539 122.658 441.667 126.035C445.299 128.032 448.76 130.347 452.01 132.951" stroke="#263238" stroke-width="0.5" stroke-linecap="round" stroke-linejoin="round"/>
<path d="M403.179 131.317C404.562 137.164 406.692 144.572 409.481 149.257C412.888 154.871 416.766 160.176 421.07 165.109" stroke="#263238" stroke-width="0.5" stroke-linecap="round" stroke-linejoin="round"/>
<path d="M401.437 122.621C401.437 122.621 401.785 124.836 402.481 128.106" stroke="#263238" stroke-width="0.5" stroke-linecap="round" stroke-linejoin="round"/>
<path opacity="0.3" d="M484.549 386.575C480.371 380.467 470.229 345.365 463.819 320.156L478.24 319.638C480.744 319.549 483.105 318.533 484.882 316.781C485.314 316.355 485.706 315.888 486.053 315.387C486.393 314.901 486.684 314.38 486.92 313.831C487.804 312.036 488.143 310.001 487.896 307.979C487.851 307.621 487.787 307.265 487.705 306.912C487.241 304.876 486.197 303.009 484.705 301.548C484.221 301.073 483.694 300.644 483.132 300.268C481.095 298.908 478.676 298.3 476.29 298.55L459.197 300.334C458.739 298.113 458.438 296.369 458.31 295.246C458.151 293.533 457.813 291.838 457.301 290.189L457.398 286.174C457.55 280.297 454.077 272.609 448.305 269.23C442.534 265.85 424.263 262.009 418.406 259.024C412.549 256.039 370.306 239.508 364.42 242.66C358.535 245.813 353.629 256.969 348.686 263.719C343.743 270.47 326.181 295.66 326.181 295.66C326.031 294.835 315.552 302.812 313.985 308.312C313.827 308.581 313.731 308.885 313.704 309.2C313.676 309.515 313.719 309.835 313.827 310.135C314.539 311.399 315.539 312.476 316.74 313.272C317.941 314.067 319.306 314.558 320.718 314.7L310.029 315.817C309.424 315.88 308.854 316.119 308.386 316.504C307.918 316.89 307.572 317.406 307.388 317.993C303.604 318.378 295.969 319.472 291.036 322.364C291.036 322.364 300.97 324.475 307.896 324.244C308.212 324.716 308.64 325.101 309.139 325.361C309.638 325.62 310.191 325.745 310.744 325.724L325.182 325.175C325.156 326.051 325.199 326.929 325.311 327.801C325.427 328.593 325.746 329.345 326.238 329.981C326.428 330.436 326.647 330.898 326.896 331.378C331.164 339.311 344.45 346.841 353.945 351.634C363.439 356.426 373.941 366.129 382.183 378.401C390.425 390.673 396.682 402.331 410.52 413.361C412.87 415.222 415.338 416.922 417.905 418.449L528.562 454.84C528.562 454.84 490.65 395.561 484.549 386.575ZM332.849 312.61C332.761 312.899 332.672 313.188 332.611 313.483L329.912 313.759C330.918 313.448 331.9 313.064 332.849 312.61Z" fill="black"/>
<path d="M482.485 501.594L393.374 411.08C393.374 411.08 373.371 364.63 353.75 348.947C334.128 333.265 310.218 324.317 319.087 311.384C327.956 298.451 352.178 271.829 358.553 271.473C364.928 271.116 411.409 281.631 423.837 282.051C436.265 282.47 441.67 286.43 442.765 297.05C443.86 307.67 462.864 379.191 468.979 388.159C475.095 397.128 532.245 457.517 532.245 457.517" fill="white"/>
<path d="M470.228 387.402C464.167 378.451 445.2 307.185 444.063 296.584C443.381 290.142 441.101 286.113 436.664 283.942C438.351 289.542 439.027 295.378 438.656 301.152C438.091 311.321 438.346 318.325 438.346 318.325C438.346 318.325 447.109 351.993 453.946 368.554C460.784 385.115 479.648 412.559 494.207 426.466C504.978 436.749 518.568 445.003 524.921 448.61C509.23 431.713 474.824 394.311 470.228 387.402Z" fill="#2883EE" stroke="#263238" stroke-linecap="round" stroke-linejoin="round"/>
<path opacity="0.5" d="M470.228 387.402C464.167 378.451 445.2 307.185 444.063 296.584C443.381 290.142 441.101 286.113 436.664 283.942C438.351 289.542 439.027 295.378 438.656 301.152C438.091 311.321 438.346 318.325 438.346 318.325C438.346 318.325 447.109 351.993 453.946 368.554C460.784 385.115 479.648 412.559 494.207 426.466C504.978 436.749 518.568 445.003 524.921 448.61C509.23 431.713 474.824 394.311 470.228 387.402Z" fill="white"/>
<path d="M460.498 479.673L394.172 412.044C394.172 412.044 374.149 365.563 354.508 349.87C334.867 334.177 310.932 325.223 319.81 312.282C328.688 299.34 352.935 272.701 359.316 272.344C365.697 271.987 412.225 282.509 424.666 282.929C437.106 283.349 442.517 287.312 443.613 297.938C444.709 308.565 463.732 380.133 469.854 389.108C475.975 398.082 526.508 451.207 526.508 451.207" stroke="#263238" stroke-miterlimit="10" stroke-linecap="round"/>
<path d="M303.707 318.668C313.006 315.675 321.307 310.234 327.782 302.886C338.867 290.482 334.074 289.936 334.074 289.936C334.074 289.936 340.492 285.887 344.364 283.102C347.535 280.496 350.418 277.55 352.965 274.312C352.965 274.312 373.522 281.47 382.549 282.666C386.903 283.348 391.29 283.709 395.677 283.745L411.214 296.046C405.698 300.782 401.596 306.994 399.347 314.016C395.609 325.686 391.193 341.129 387.825 343.757C384.457 346.385 386.58 347.651 367.953 345.354C349.325 343.057 305.389 328.955 303.707 318.668Z" fill="#2883EE" stroke="#263238" stroke-linecap="round" stroke-linejoin="round"/>
<path opacity="0.5" d="M303.707 318.668C313.006 315.675 321.307 310.234 327.782 302.886C338.867 290.482 334.074 289.936 334.074 289.936C334.074 289.936 340.492 285.887 344.364 283.102C347.535 280.496 350.418 277.55 352.965 274.312C352.965 274.312 373.522 281.47 382.549 282.666C386.903 283.348 391.29 283.709 395.677 283.745L411.214 296.046C405.698 300.782 401.596 306.994 399.347 314.016C395.609 325.686 391.193 341.129 387.825 343.757C384.457 346.385 386.58 347.651 367.953 345.354C349.325 343.057 305.389 328.955 303.707 318.668Z" fill="white"/>
<path d="M335.205 316.281C335.205 316.281 347.805 311.219 352.258 291.585C352.258 291.585 364.394 293.478 374.836 287.512" stroke="#263238" stroke-miterlimit="10" stroke-linecap="round"/>
<path d="M367.242 294.433C367.242 294.433 365.709 312.881 384.743 331.751" stroke="#263238" stroke-miterlimit="10" stroke-linecap="round"/>
<path d="M353.671 299.73C353.671 299.73 362.417 306.238 365.447 313.11" stroke="#263238" stroke-miterlimit="10" stroke-linecap="round"/>
<path d="M378.573 341.811C378.573 341.811 387.537 331.896 391.314 323.022C395.09 314.149 395.565 305.707 403.87 300.229" stroke="#263238" stroke-miterlimit="10" stroke-linecap="round"/>
<path d="M352.386 291.815L348.847 289.29" stroke="#263238" stroke-miterlimit="10" stroke-linecap="round"/>
<path d="M293.721 321.616C293.721 321.616 281.716 322.217 274.891 326.236C274.891 326.236 287.294 328.886 294.118 327.953L293.721 321.616Z" fill="#263238" stroke="#263238" stroke-miterlimit="10" stroke-linecap="round"/>
<path d="M462.152 300.872L294.146 318.362C293.345 318.445 292.611 318.832 292.086 319.447C291.562 320.063 291.286 320.863 291.311 321.692L291.457 325.094C291.468 325.542 291.567 325.986 291.748 326.4C291.929 326.813 292.189 327.186 292.512 327.498C292.835 327.809 293.215 328.052 293.627 328.212C294.04 328.372 294.478 328.445 294.914 328.427L464.205 322.263C465.634 322.211 467.03 321.858 468.306 321.226C469.582 320.594 470.71 319.697 471.621 318.59C472.533 317.483 473.208 316.189 473.604 314.789C474.001 313.389 474.111 311.912 473.928 310.45C473.748 309.045 473.301 307.682 472.612 306.439C471.922 305.197 471.004 304.099 469.911 303.209C468.817 302.32 467.568 301.655 466.237 301.254C464.906 300.853 463.518 300.723 462.152 300.872Z" fill="#2883EE" stroke="#263238" stroke-linecap="round" stroke-linejoin="round"/>
<path d="M462.216 300.223L436.917 302.788C435.082 304.742 433.923 307.259 433.609 309.973C433.296 312.687 433.843 315.456 435.172 317.878C436.085 319.594 437.355 321.093 438.89 322.267L464.2 321.346C465.623 321.294 467.013 320.946 468.283 320.321C469.553 319.696 470.676 318.809 471.584 317.715C472.491 316.62 473.163 315.341 473.558 313.957C473.953 312.573 474.063 311.114 473.88 309.668C473.513 306.878 472.08 304.318 469.895 302.548C467.709 300.778 464.948 299.943 462.216 300.223Z" fill="#263238" stroke="#263238" stroke-miterlimit="10" stroke-linecap="round"/>
<path d="M399.946 333.193C399.946 333.193 387.164 340.051 380.632 340.157C374.099 340.263 356.62 325.475 346.396 321.774C336.172 318.073 330.554 318.021 321.187 318.971C311.82 319.92 306.842 325.983 311.08 333.923C315.318 341.864 328.586 349.368 338.073 354.15C347.56 358.933 358.025 368.613 366.254 380.881C374.482 393.148 380.719 404.765 394.515 415.73C408.311 426.695 422.388 429.022 426.811 428.681" fill="white"/>
<path d="M394.512 337.662L393.397 337.394C389.398 339.095 384.63 340.792 381.351 340.836C374.785 340.898 357.068 325.766 346.758 321.937C336.448 318.108 330.778 318.022 321.352 318.927C319.846 319.064 318.366 319.371 316.938 319.843C324.407 319.872 331.864 321.307 338.94 324.078C350.574 328.824 362.642 345.338 374.243 345.93C385.845 346.521 394.512 337.662 394.512 337.662Z" fill="#2883EE" stroke="#263238" stroke-linecap="round" stroke-linejoin="round"/>
<path opacity="0.5" d="M394.512 337.662L393.397 337.394C389.398 339.095 384.63 340.792 381.351 340.836C374.785 340.898 357.068 325.766 346.758 321.937C336.448 318.108 330.778 318.022 321.352 318.927C319.846 319.064 318.366 319.371 316.938 319.843C324.407 319.872 331.864 321.307 338.94 324.078C350.574 328.824 362.642 345.338 374.243 345.93C385.845 346.521 394.512 337.662 394.512 337.662Z" fill="white"/>
<path d="M399.946 333.193C399.946 333.193 387.164 340.051 380.632 340.157C374.099 340.263 356.62 325.475 346.396 321.774C336.172 318.073 330.554 318.021 321.187 318.971C311.82 319.92 306.842 325.983 311.08 333.923C315.318 341.864 328.586 349.368 338.073 354.15C347.56 358.933 358.025 368.613 366.254 380.881C374.482 393.148 380.719 404.765 394.515 415.73C408.311 426.695 422.388 429.022 426.811 428.681" stroke="#263238" stroke-miterlimit="10" stroke-linecap="round"/>
<path d="M319.708 339.073C319.708 339.073 318.345 331.605 326.217 322.27C326.217 322.27 318.49 319.575 314.243 321.518C309.996 323.461 308.929 326.417 309.528 331.218C310.127 336.019 319.708 339.073 319.708 339.073Z" fill="white" stroke="#263238" stroke-miterlimit="10" stroke-linecap="round"/>
<path d="M328.114 344.876C329.078 345.456 330.106 345.915 331.174 346.243" stroke="#263238" stroke-miterlimit="10" stroke-linecap="round"/>
<path d="M330.62 325.924C330.62 325.924 321.817 334.056 325.817 342.123" stroke="#263238" stroke-miterlimit="10" stroke-linecap="round"/>
<path d="M443.277 295.393L443.418 289.46C443.563 283.54 440.075 275.773 434.259 272.359C428.442 268.945 410.029 265.067 404.127 262.052C398.224 259.037 355.647 242.275 349.794 245.506C343.941 248.736 338.919 259.957 333.922 266.765C328.925 273.574 311.263 298.913 311.263 298.913C311.263 298.913 297.09 310.315 298.755 313.508C300.419 316.7 304.965 320.15 315.004 317.171C325.044 314.193 339.071 299.417 341.21 297.221C343.349 295.025 356.328 280.147 356.328 280.147C361.613 283.268 367.32 285.542 373.243 286.887C381.755 288.51 382.867 288.61 382.867 288.61C382.867 288.61 386.852 295.429 393.412 297.749" fill="white"/>
<path d="M427.925 273.724C435.019 276.947 438.006 286.168 438.748 294.922L443.322 294.727L443.421 288.832C443.524 282.951 440.024 275.211 434.252 271.783C428.481 268.354 410.257 264.385 404.404 261.352C402.893 260.562 398.848 258.83 393.665 256.762L392.849 257.118C392.849 257.118 418.719 269.544 427.925 273.724Z" fill="#2883EE" stroke="#263238" stroke-linecap="round" stroke-linejoin="round"/>
<path opacity="0.5" d="M427.925 273.724C435.019 276.947 438.006 286.168 438.748 294.922L443.322 294.727L443.421 288.832C443.524 282.951 440.024 275.211 434.252 271.783C428.481 268.354 410.257 264.385 404.404 261.352C402.893 260.562 398.848 258.83 393.665 256.762L392.849 257.118C392.849 257.118 418.719 269.544 427.925 273.724Z" fill="white"/>
<path d="M443.277 295.393L443.418 289.46C443.563 283.54 440.075 275.773 434.259 272.359C428.442 268.945 410.029 265.067 404.127 262.052C398.224 259.037 355.647 242.275 349.794 245.506C343.941 248.736 338.919 259.957 333.922 266.765C328.925 273.574 311.263 298.913 311.263 298.913C311.263 298.913 297.09 310.315 298.755 313.508C300.419 316.7 304.965 320.15 315.004 317.171C325.044 314.193 339.071 299.417 341.21 297.221C343.349 295.025 356.328 280.147 356.328 280.147C361.613 283.268 367.32 285.542 373.243 286.887C381.755 288.51 382.867 288.61 382.867 288.61C382.867 288.61 386.852 295.429 393.412 297.749" stroke="#263238" stroke-miterlimit="10" stroke-linecap="round"/>
<path d="M298.211 313.857C298.211 313.857 300.061 314.231 303.122 311.911C306.184 309.591 310.802 300.261 310.606 299.269C310.41 298.277 297.328 308.538 298.211 313.857Z" fill="white" stroke="#263238" stroke-miterlimit="10" stroke-linecap="round"/>
<path d="M352.464 268.521C352.413 267.744 352.4 266.967 352.426 266.191" stroke="#263238" stroke-miterlimit="10" stroke-linecap="round"/>
<path d="M356.289 280.282C354.585 277.564 353.399 274.544 352.796 271.389" stroke="#263238" stroke-miterlimit="10" stroke-linecap="round"/>
</svg>
