<svg width="190" height="40" viewBox="0 0 190 40" fill="none" xmlns="http://www.w3.org/2000/svg">
<path fill-rule="evenodd" clip-rule="evenodd" d="M139.301 0V20.243H135.87V0H139.301ZM51.0091 12.7689C49.0231 10.7552 46.4954 9.74829 43.426 9.74829C40.4168 9.74829 37.8891 10.7702 35.8429 12.814C33.7966 14.8579 32.7735 17.3375 32.7735 20.253C32.7735 23.3187 33.7364 25.8284 35.6623 27.7821C37.5882 29.7658 40.1761 30.7577 43.426 30.7577C46.4653 30.7577 48.9779 29.7508 50.964 27.737C52.9801 25.7232 53.9882 23.2286 53.9882 20.253C53.9882 17.2774 52.9952 14.7827 51.0091 12.7689ZM38.19 25.7984C36.8961 24.3557 36.2491 22.4922 36.2491 20.2079C36.2491 18.104 36.9111 16.3006 38.2352 14.7978C39.5291 13.325 41.2594 12.5886 43.426 12.5886C45.5926 12.5886 47.3229 13.325 48.6168 14.7978C49.9409 16.3006 50.6029 18.104 50.6029 20.2079C50.6029 22.402 49.9559 24.2354 48.662 25.7082C47.368 27.181 45.6227 27.9174 43.426 27.9174C41.2293 27.9174 39.484 27.211 38.19 25.7984ZM64.1678 15.1133C65.2511 13.6406 66.6504 12.9042 68.3656 12.9042C69.1781 12.9042 69.9003 13.0094 70.5322 13.2198V10.0188C70.0808 9.86851 69.5241 9.79337 68.8621 9.79337C65.8529 9.79337 63.6713 11.1459 62.3172 13.851C62.257 13.851 62.2118 13.8359 62.1818 13.8059L61.595 10.2893H59.2027V30.3068H62.588V20.7038C62.588 18.4195 63.1146 16.556 64.1678 15.1133ZM76.7428 10.2442L82.8816 25.7533H83.1072L89.4265 10.2442H92.7667L80.3087 40H76.9685L81.392 29.4953L73.2672 10.2442H76.7428ZM121.222 9.74829C118.363 9.74829 115.986 10.7552 114.09 12.7689C112.224 14.8128 111.291 17.2924 111.291 20.2079C111.291 23.3939 112.239 25.9487 114.135 27.8723C116.061 29.7959 118.694 30.7577 122.034 30.7577C125.103 30.7577 127.646 30.0213 129.662 28.5485V25.5279C127.436 27.211 124.908 28.0526 122.079 28.0526C120.063 28.0526 118.363 27.4214 116.979 26.1591C115.594 24.8967 114.872 23.1534 114.812 20.9292H130.52C130.55 20.809 130.565 20.5085 130.565 20.0276C130.565 17.082 129.722 14.6324 128.037 12.6788C126.352 10.7251 124.08 9.74829 121.222 9.74829ZM116.979 14.1666C118.152 13.0545 119.597 12.4984 121.312 12.4984C122.967 12.4984 124.321 13.0395 125.374 14.1215C126.458 15.1735 127.12 16.6312 127.36 18.4947H114.857C115.098 16.6913 115.805 15.2486 116.979 14.1666ZM148.998 20.243V0H145.568V20.243H148.998ZM156.935 12.7689C158.831 10.7552 161.208 9.74829 164.067 9.74829C166.926 9.74829 169.198 10.7251 170.883 12.6788C172.568 14.6324 173.411 17.082 173.411 20.0276C173.411 20.5085 173.396 20.809 173.365 20.9292H157.658C157.718 23.1534 158.44 24.8967 159.824 26.1591C161.208 27.4214 162.909 28.0526 164.925 28.0526C167.753 28.0526 170.281 27.211 172.508 25.5279V28.5485C170.492 30.0213 167.949 30.7577 164.88 30.7577C161.539 30.7577 158.906 29.7959 156.98 27.8723C155.085 25.9487 154.137 23.3939 154.137 20.2079C154.137 17.2924 155.07 14.8128 156.935 12.7689ZM164.157 12.4984C162.442 12.4984 160.998 13.0545 159.824 14.1666C158.651 15.2486 157.943 16.6913 157.703 18.4947H170.206C169.965 16.6312 169.303 15.1735 168.22 14.1215C167.167 13.0395 165.812 12.4984 164.157 12.4984ZM183.636 15.1133C184.719 13.6406 186.118 12.9042 187.833 12.9042C188.646 12.9042 189.368 13.0094 190 13.2198V10.0188C189.549 9.86851 188.992 9.79337 188.33 9.79337C185.321 9.79337 183.139 11.1459 181.785 13.851C181.725 13.851 181.68 13.8359 181.65 13.8059L181.063 10.2893H178.67V30.3068H182.056V20.7038C182.056 18.4195 182.582 16.556 183.636 15.1133ZM23.4737 10.0639H29.116V12.9493H23.4737V24.1302C23.4737 25.3626 23.6844 26.2793 24.1057 26.8804C24.557 27.4815 25.3093 27.7821 26.3626 27.7821C27.6264 27.7821 28.8602 27.3763 30.0638 26.5648V29.4051C28.8301 30.2768 27.3857 30.7126 25.7306 30.7126C23.233 30.7126 21.6381 29.9462 20.946 28.4133C20.3442 27.0607 20.0433 25.1221 20.0433 22.5974V12.9493H16.7482V10.8754L20.2238 10.0639H23.4737ZM108.581 10.0639H102.939H99.6891L96.2135 10.8754V12.9493H99.5085V22.5974C99.5085 25.1221 99.8094 27.0607 100.411 28.4133C101.103 29.9462 102.698 30.7126 105.196 30.7126C106.851 30.7126 108.295 30.2768 109.529 29.4051V26.5648C108.325 27.3763 107.092 27.7821 105.828 27.7821C104.775 27.7821 104.022 27.4815 103.571 26.8804C103.15 26.2793 102.939 25.3626 102.939 24.1302V12.9493H108.581V10.0639ZM0 25.9537V29.0194C1.86569 30.1315 4.15266 30.6875 6.86092 30.6875C9.11781 30.6875 10.9384 30.1465 12.3226 29.0645C13.7068 27.9825 14.3989 26.5398 14.3989 24.7364C14.3989 23.8046 14.2033 22.9931 13.8121 22.3018C13.451 21.5805 12.8793 20.9643 12.0969 20.4533C11.3145 19.9424 10.6374 19.5516 10.0657 19.2811C9.49395 19.0106 8.71157 18.68 7.71854 18.2893C5.3112 17.3575 4.10753 16.3206 4.10753 15.1785C4.10753 13.2849 5.38643 12.3381 7.94423 12.3381C9.59927 12.3381 11.4349 12.9092 13.451 14.0513V11.1208C11.5251 10.2192 9.53909 9.76831 7.49285 9.76831C5.53688 9.76831 3.91193 10.2642 2.61798 11.2561C1.35413 12.2179 0.722202 13.5554 0.722202 15.2686C0.722202 16.3807 1.06826 17.3425 1.76037 18.154C2.48257 18.9355 3.35523 19.5517 4.37835 20.0025C5.40147 20.4533 6.42459 20.8892 7.44771 21.3099C8.47083 21.7307 9.32845 22.2567 10.0206 22.8879C10.7428 23.489 11.1039 24.2104 11.1039 25.052C11.1039 27.1559 9.56918 28.2079 6.49982 28.2079C4.27303 28.2079 2.10642 27.4565 0 25.9537ZM20.0612 0.751439L23.5719 3.05176e-05V8.01505H20.0612V0.751439ZM103.064 3.05176e-05L99.5536 0.751439V8.01505H103.064V3.05176e-05ZM135.869 29.5554L139.38 30.3068V22.2918H135.869V29.5554ZM149.08 30.3068L145.569 29.5554V22.2918H149.08V30.3068Z" fill="#21252E"/>
</svg>
