<svg width="5" height="17" viewBox="0 0 5 17" fill="none" xmlns="http://www.w3.org/2000/svg">
<path d="M2.5 10.625C1.32639 10.625 0.375 9.67361 0.375 8.5C0.375 7.32639 1.32639 6.375 2.5 6.375C3.67361 6.375 4.625 7.32639 4.625 8.5C4.625 9.67361 3.67361 10.625 2.5 10.625Z" fill="#979EA6"/>
<path d="M2.5 17C1.32639 17 0.375 16.0486 0.375 14.875C0.375 13.7014 1.32639 12.75 2.5 12.75C3.67361 12.75 4.625 13.7014 4.625 14.875C4.625 16.0486 3.67361 17 2.5 17Z" fill="#979EA6"/>
<path d="M2.5 4.25C1.32639 4.25 0.375 3.29861 0.375 2.125C0.375 0.951395 1.32639 0 2.5 0C3.67361 0 4.625 0.951395 4.625 2.125C4.625 3.29861 3.67361 4.25 2.5 4.25Z" fill="#979EA6"/>
</svg>
