<svg width="16" height="16" viewBox="0 0 16 16" fill="none" xmlns="http://www.w3.org/2000/svg">
<path fill-rule="evenodd" clip-rule="evenodd" d="M5 0C4.17157 0 3.5 0.671573 3.5 1.5C3.5 2.32843 4.17157 3 5 3C5.82843 3 6.5 2.32843 6.5 1.5C6.5 0.671573 5.82843 0 5 0ZM5 6.5C4.17157 6.5 3.5 7.17157 3.5 8C3.5 8.82843 4.17157 9.5 5 9.5C5.82843 9.5 6.5 8.82843 6.5 8C6.5 7.17157 5.82843 6.5 5 6.5ZM3.5 14.5C3.5 13.6716 4.17157 13 5 13C5.82843 13 6.5 13.6716 6.5 14.5C6.5 15.3284 5.82843 16 5 16C4.17157 16 3.5 15.3284 3.5 14.5ZM11 13C10.1716 13 9.5 13.6716 9.5 14.5C9.5 15.3284 10.1716 16 11 16C11.8284 16 12.5 15.3284 12.5 14.5C12.5 13.6716 11.8284 13 11 13ZM9.5 8C9.5 7.17157 10.1716 6.5 11 6.5C11.8284 6.5 12.5 7.17157 12.5 8C12.5 8.82843 11.8284 9.5 11 9.5C10.1716 9.5 9.5 8.82843 9.5 8ZM11 0C10.1716 0 9.5 0.671573 9.5 1.5C9.5 2.32843 10.1716 3 11 3C11.8284 3 12.5 2.32843 12.5 1.5C12.5 0.671573 11.8284 0 11 0Z" fill="#263238"/>
</svg>
