<svg width="20" height="20" viewBox="0 0 20 20" fill="none" xmlns="http://www.w3.org/2000/svg">
<path d="M17.5 0H3.33332C2.64414 0 2.08332 0.56082 2.08332 1.25V3.33332H1.66668C1.43668 3.33332 1.25 3.52 1.25 3.75C1.25 3.98 1.43668 4.16668 1.66668 4.16668H5C5.23 4.16668 5.41668 3.98 5.41668 3.75C5.41668 3.52 5.23 3.33332 5 3.33332H3.82668C3.99918 2.84918 4.4575 2.5 5 2.5C5.68918 2.5 6.25 3.06082 6.25 3.75C6.25 4.43918 5.68918 5 5 5H2.08332V7.5H1.66668C1.43668 7.5 1.25 7.68668 1.25 7.91668C1.25 8.14668 1.43668 8.33336 1.66668 8.33336H5C5.23 8.33336 5.41668 8.14668 5.41668 7.91668C5.41668 7.68668 5.23 7.5 5 7.5H3.82668C3.99918 7.01582 4.4575 6.66668 5 6.66668C5.68918 6.66668 6.25 7.2275 6.25 7.91668C6.25 8.60586 5.68918 9.16668 5 9.16668H2.08332V11.6667H1.66668C1.43668 11.6667 1.25 11.8534 1.25 12.0834C1.25 12.3134 1.43668 12.5 1.66668 12.5H5C5.23 12.5 5.41668 12.3133 5.41668 12.0833C5.41668 11.8533 5.23 11.6666 5 11.6666H3.82668C3.99918 11.1825 4.4575 10.8333 5 10.8333C5.68918 10.8333 6.25 11.3941 6.25 12.0833C6.25 12.7725 5.68918 13.3333 5 13.3333H2.08332V15.8333H1.66668C1.43668 15.8333 1.25 16.02 1.25 16.25C1.25 16.48 1.43668 16.6667 1.66668 16.6667H5C5.23 16.6667 5.41668 16.48 5.41668 16.25C5.41668 16.02 5.23 15.8333 5 15.8333H3.82668C3.99918 15.3492 4.4575 15 5 15C5.68918 15 6.25 15.5608 6.25 16.25C6.25 16.9392 5.68918 17.5 5 17.5H2.08332V18.75C2.08332 19.4392 2.64414 20 3.33332 20H17.5C18.1892 20 18.75 19.4392 18.75 18.75V1.25C18.75 0.56082 18.1892 0 17.5 0Z" fill="#979EA6"/>
</svg>
