<svg width="26" height="26" viewBox="0 0 26 26" fill="none" xmlns="http://www.w3.org/2000/svg">
<g clip-path="url(#clip0)">
<path d="M8.32149 11.9835C7.68112 11.7992 7.04075 11.7056 6.41783 11.7056C5.45591 11.7056 4.65326 11.9254 4.03089 12.1946C4.6309 9.99805 6.07228 6.2079 8.94359 5.78108C9.20951 5.74153 9.42742 5.54926 9.49997 5.29044L10.1275 3.04586C10.1804 2.85604 10.1491 2.65285 10.0408 2.48812C9.93252 2.3234 9.75851 2.21348 9.56351 2.18676C9.3516 2.15785 9.1356 2.14312 8.9215 2.14312C5.475 2.14312 2.06177 5.74044 0.621478 10.8912C-0.223989 13.9131 -0.471901 18.4563 1.61067 21.3158C2.77605 22.916 4.47626 23.7704 6.66411 23.8558C6.67311 23.8561 6.68184 23.8563 6.69084 23.8563C9.39033 23.8563 11.7841 22.0383 12.5123 19.4356C12.9473 17.8797 12.7506 16.248 11.9581 14.8398C11.174 13.4475 9.88261 12.4327 8.32149 11.9835Z" fill="#979EA6"/>
<path d="M25.2196 14.8401C24.4355 13.4475 23.1441 12.4327 21.583 11.9835C20.9426 11.7992 20.3022 11.7056 19.6796 11.7056C18.7177 11.7056 17.9147 11.9254 17.2924 12.1946C17.8924 9.99805 19.3338 6.2079 22.2053 5.78108C22.4713 5.74153 22.6889 5.54926 22.7617 5.29044L23.3893 3.04586C23.4422 2.85604 23.4108 2.65285 23.3025 2.48812C23.1945 2.3234 23.0205 2.21348 22.8253 2.18676C22.6136 2.15785 22.3976 2.14312 22.1832 2.14312C18.7367 2.14312 15.3235 5.74044 13.883 10.8912C13.0378 13.9131 12.7898 18.4563 14.8727 21.3164C16.0378 22.9162 17.7383 23.771 19.9259 23.8561C19.9349 23.8563 19.9436 23.8566 19.9529 23.8566C22.6521 23.8566 25.0461 22.0386 25.7743 19.4359C26.2088 17.88 26.0118 16.248 25.2196 14.8401Z" fill="#979EA6"/>
</g>
<defs>
<clipPath id="clip0">
<rect width="26.0003" height="26" fill="white"/>
</clipPath>
</defs>
</svg>
