<svg width="30" height="30" viewBox="0 0 30 30" fill="none" xmlns="http://www.w3.org/2000/svg">
<path d="M28.5899 17.5588L26.8516 16.5531C26.4899 16.3419 26.2789 15.9396 26.2989 15.5272C26.3291 14.9238 26.309 14.3204 26.2487 13.727C26.1985 13.3147 26.3793 12.9124 26.731 12.6711L28.4392 11.5145C28.8612 11.2329 29.012 10.6898 28.8009 10.2272L28.2382 9.00026L27.6755 7.7733C27.4645 7.32074 26.9621 7.07937 26.4698 7.21011L24.5405 7.75319C24.1285 7.86382 23.6965 7.73307 23.4051 7.42131C23.0032 6.9788 22.5711 6.56646 22.0988 6.19436C21.7773 5.93287 21.6065 5.52054 21.6868 5.1082L22.0687 3.07669C22.1591 2.57384 21.8778 2.08104 21.4155 1.91008L20.1495 1.4374L18.8834 0.964719C18.4011 0.783693 17.8786 0.974776 17.6173 1.41728L16.6226 3.14709C16.4116 3.51919 16.0096 3.72034 15.5776 3.70022C14.9445 3.65999 14.3316 3.68011 13.7187 3.76056C13.2966 3.81085 12.8847 3.62982 12.6535 3.28788L11.5081 1.59831C11.2267 1.17592 10.6841 1.02506 10.2219 1.23626L8.99602 1.79945L7.77014 2.36264C7.31797 2.57384 7.07682 3.07669 7.20744 3.56948L7.72995 5.54065C7.84048 5.94293 7.70985 6.37538 7.39836 6.65698C6.95624 7.05926 6.54427 7.50176 6.16244 7.9845C5.90118 8.31638 5.48921 8.47729 5.07723 8.39684L3.07765 8.01467C2.59534 7.92416 2.10298 8.1957 1.90201 8.64826L1.42975 9.91544L0.957487 11.1826C0.77662 11.6654 0.967536 12.1883 1.40965 12.4498L3.16808 13.4656C3.52982 13.6768 3.74083 14.069 3.72073 14.4914C3.69059 15.1048 3.71068 15.7083 3.78102 16.3016C3.83126 16.714 3.65039 17.1263 3.30876 17.3576L1.64076 18.484C1.21874 18.7656 1.06802 19.3087 1.27903 19.7713L1.84173 20.9982L2.40442 22.2252C2.61543 22.6778 3.11784 22.9191 3.6102 22.7884L5.57964 22.2654C5.98157 22.1548 6.41364 22.2855 6.69499 22.5973C7.09691 23.0398 7.53903 23.4522 8.02135 23.8343C8.35293 24.0958 8.5137 24.5081 8.43332 24.9205L8.05149 26.9218C7.96106 27.4247 8.2424 27.9175 8.70462 28.0884L9.97069 28.5611L11.2368 29.0338C11.7191 29.2148 12.2416 29.0237 12.5028 28.5812L13.5177 26.8212C13.7287 26.4592 14.1206 26.248 14.5426 26.2681C15.1153 26.2882 15.6981 26.2681 16.2608 26.2078C16.6728 26.1575 17.0848 26.3385 17.3259 26.6905L18.4815 28.4002C18.7628 28.8226 19.3054 28.9734 19.7676 28.7622L20.9935 28.1991L22.2194 27.6359C22.6716 27.4247 22.9127 26.9218 22.7821 26.429L22.2596 24.488C22.1491 24.0757 22.2797 23.6533 22.6012 23.3616C23.0433 22.9594 23.4553 22.5269 23.8371 22.0542C24.0984 21.7324 24.5104 21.5614 24.9224 21.6419L26.9521 22.0241C27.4545 22.1146 27.9468 21.833 28.1177 21.3704L28.5899 20.1032L29.0622 18.836C29.223 18.3432 29.022 17.8102 28.5899 17.5588ZM19.6471 16.6235C18.7327 19.188 15.9292 20.5256 13.367 19.6104C10.8047 18.6952 9.46828 15.8893 10.3827 13.3248C11.297 10.7602 14.1005 9.42265 16.6628 10.3378C19.215 11.253 20.5514 14.069 19.6471 16.6235Z" fill="#2883EE"/>
<path d="M5.45929 7.412C5.40905 7.47234 5.32866 7.50251 5.25833 7.49246L3.25875 7.10024C3.13817 7.08012 3.02764 7.07006 2.90706 7.07006C2.11326 7.07006 1.39984 7.54274 1.08835 8.26685C1.0783 8.2769 1.0783 8.29702 1.06825 8.30707L0.123725 10.8414C-0.207863 11.7365 0.143821 12.7321 0.977817 13.2149L2.73624 14.2306C2.79653 14.2709 2.83672 14.3413 2.83672 14.4217C2.80658 15.0754 2.82668 15.7392 2.90706 16.3828C2.91711 16.4633 2.88696 16.5438 2.82668 16.584L1.12854 17.7305C0.344784 18.2635 0.0634366 19.2793 0.455314 20.1442L1.57066 22.588C1.88215 23.2819 2.57547 23.7244 3.33913 23.7244C3.50995 23.7244 3.67072 23.7043 3.84154 23.654L5.81097 23.1311C5.88131 23.111 5.9617 23.1411 6.01194 23.2015C6.44401 23.6842 6.93637 24.1267 7.44882 24.5391C7.50911 24.5893 7.53925 24.6698 7.52921 24.7402L7.14738 26.7415C6.96651 27.6768 7.48901 28.6021 8.3833 28.934L10.9154 29.8793C11.1365 29.9598 11.3676 30 11.5987 30C12.292 30 12.9351 29.6279 13.2868 29.0245L14.3017 27.2645C14.3418 27.2042 14.4122 27.1639 14.5026 27.1639C15.1156 27.1941 15.7486 27.1639 16.3615 27.1036C16.4419 27.0935 16.5223 27.1237 16.5625 27.184L17.718 28.8937C18.0798 29.4268 18.6826 29.7486 19.3257 29.7486C19.6071 29.7486 19.8784 29.6882 20.1296 29.5776L22.5713 28.4613C23.4354 28.0691 23.8876 27.1136 23.6364 26.1884L23.1139 24.2474C23.0938 24.177 23.1239 24.0965 23.1842 24.0362C23.6766 23.5937 24.1187 23.121 24.5106 22.6182C24.5608 22.5578 24.6412 22.5176 24.7115 22.5377L26.7413 22.9199C26.8618 22.94 26.9824 22.9501 27.103 22.9501C27.9169 22.9501 28.6504 22.4371 28.9317 21.6829L29.8763 19.1485C30.2079 18.2534 29.8562 17.2578 29.0222 16.7751L27.2839 15.7694C27.2236 15.7291 27.1834 15.6587 27.1834 15.5783C27.2135 14.9346 27.1934 14.2709 27.1231 13.6272C27.113 13.5468 27.1432 13.4764 27.2035 13.4261L28.9117 12.2695C29.6954 11.7365 29.9768 10.7208 29.5849 9.85585L28.4695 7.412C28.158 6.71807 27.4647 6.27556 26.7011 6.27556C26.5302 6.27556 26.3695 6.29568 26.1886 6.34596L24.2594 6.88904C24.189 6.90915 24.1086 6.87898 24.0484 6.81864C23.6062 6.3359 23.134 5.88334 22.6416 5.49112C22.5713 5.44083 22.5411 5.36038 22.5612 5.28998L22.9431 3.25847C23.1239 2.32316 22.6014 1.39792 21.7071 1.06604L19.175 0.120684C18.9539 0.0402277 18.7228 0 18.4917 0C17.7984 0 17.1553 0.372108 16.8036 0.975528L15.7988 2.70533C15.7586 2.76567 15.6983 2.8059 15.5979 2.8059C14.9246 2.76567 14.2414 2.78579 13.5782 2.86624C13.4978 2.8763 13.4174 2.84613 13.3672 2.78579L12.2217 1.09621C11.86 0.563192 11.2571 0.241368 10.614 0.241368C10.3326 0.241368 10.0613 0.30171 9.81013 0.412336L7.36844 1.52866C6.5043 1.92088 6.05213 2.8763 6.30333 3.80154L6.82584 5.77271C6.84593 5.84311 6.81579 5.92357 6.7555 5.97385C6.31338 6.4063 5.86121 6.88904 5.45929 7.412ZM6.88613 8.53838C7.22776 8.09588 7.60959 7.68354 8.02157 7.32149C8.58426 6.80858 8.81537 6.03419 8.62445 5.30003L8.10195 3.32886C8.08185 3.26852 8.112 3.20818 8.16224 3.18807L10.6039 2.07174C10.624 2.06168 10.6341 2.06168 10.6542 2.06168C10.6743 2.06168 10.7245 2.06168 10.7547 2.11197L11.9001 3.80154C12.3222 4.42508 13.0657 4.76701 13.8294 4.6765C14.3921 4.6061 14.9648 4.58599 15.5275 4.62622C16.3012 4.6765 17.0347 4.27422 17.4065 3.62052L18.4013 1.89071C18.4314 1.83037 18.4917 1.81026 18.5621 1.83037L21.0942 2.77573C21.1545 2.79584 21.1846 2.86624 21.1746 2.91653L20.7928 4.94804C20.6521 5.6822 20.9334 6.43647 21.5263 6.91921C21.9483 7.25109 22.3502 7.63326 22.722 8.04559C23.1139 8.47804 23.6565 8.71941 24.2292 8.71941C24.4101 8.71941 24.591 8.6993 24.7718 8.64901L26.691 8.11599C26.7413 8.10593 26.8015 8.11599 26.8417 8.17633L27.9571 10.6202C27.9772 10.6705 27.9571 10.7409 27.9169 10.771L26.2087 11.9276C25.5857 12.35 25.2541 13.0841 25.3345 13.8384C25.3948 14.3916 25.4149 14.9447 25.3848 15.4978C25.3446 16.2622 25.7264 16.9863 26.3896 17.3684L28.1279 18.3741C28.1882 18.4043 28.2083 18.4646 28.1882 18.535L27.2437 21.0694C27.2236 21.1197 27.1532 21.1599 27.103 21.1499L25.0733 20.7677C24.9527 20.7476 24.8221 20.7275 24.7015 20.7275C24.0785 20.7275 23.5058 21.0091 23.1139 21.5018C22.7823 21.9242 22.4005 22.3265 21.9784 22.7087C21.4057 23.2316 21.1746 24.006 21.3755 24.7402L21.898 26.6812C21.9181 26.7415 21.888 26.8019 21.8378 26.822L19.3961 27.9383C19.376 27.9484 19.3659 27.9484 19.3458 27.9484C19.3257 27.9484 19.2755 27.9484 19.2453 27.8981L18.0898 26.1884C17.6678 25.5749 16.9343 25.2229 16.1706 25.3134C15.6481 25.3738 15.1156 25.3939 14.5931 25.3637C13.8294 25.3336 13.116 25.7258 12.7341 26.3795L11.7193 28.1395C11.6891 28.1998 11.6288 28.2199 11.5585 28.1998L9.02638 27.2544C8.96609 27.2343 8.93595 27.1639 8.94599 27.1136L9.32782 25.1123C9.4685 24.3681 9.18715 23.6138 8.58426 23.1311C8.14214 22.7891 7.74022 22.407 7.36844 21.9946C6.98661 21.5722 6.43396 21.3309 5.86121 21.3309C5.6904 21.3309 5.50953 21.351 5.33871 21.4013L3.36928 21.9242C3.31903 21.9343 3.25875 21.9242 3.21855 21.8639L2.10321 19.42C2.08311 19.3698 2.10321 19.2994 2.1434 19.2692L3.83149 18.1227C4.45447 17.7003 4.79611 16.9561 4.70568 16.2018C4.64539 15.6587 4.62529 15.0955 4.64539 14.5424C4.67553 13.7781 4.2937 13.064 3.64057 12.6919L1.88215 11.6762C1.82186 11.646 1.80177 11.5857 1.82186 11.5153L2.75634 9.01106C2.78648 8.96078 2.84677 8.92055 2.89701 8.92055C2.90706 8.92055 2.90706 8.92055 2.90706 8.92055L4.90664 9.30272C5.02722 9.32283 5.15784 9.34294 5.28847 9.34294C5.91145 9.31277 6.49425 9.03118 6.88613 8.53838Z" fill="#21252E"/>
<path d="M13.0555 20.4761C13.6886 20.6973 14.3417 20.818 15.0049 20.818C17.4667 20.818 19.6772 19.2592 20.5012 16.936C21.5763 13.9088 19.9887 10.5599 16.9642 9.48375C16.3312 9.2625 15.6781 9.14182 15.0149 9.14182C12.5531 9.14182 10.3425 10.7007 9.51858 13.0238C8.44343 16.061 10.031 19.4 13.0555 20.4761ZM11.2368 13.6373C11.7995 12.0382 13.3168 10.9722 15.0149 10.9722C15.4671 10.9722 15.9192 11.0526 16.3614 11.2035C18.4413 11.9477 19.5366 14.2407 18.793 16.3225C18.2303 17.9216 16.713 18.9876 15.0149 18.9876C14.5627 18.9876 14.1106 18.9072 13.6685 18.7563C11.5885 18.0221 10.4933 15.7191 11.2368 13.6373Z" fill="#21252E"/>
</svg>
