<svg width="40" height="40" viewBox="0 0 40 40" fill="none" xmlns="http://www.w3.org/2000/svg">
<rect width="40" height="40" rx="10" fill="#263238"/>
<path d="M13 29.2511V26.1853C15.1064 27.6882 17.273 28.4396 19.4998 28.4396C22.5692 28.4396 24.1039 27.3876 24.1039 25.2836C24.1039 24.4421 23.7428 23.7207 23.0206 23.1196C22.3284 22.4884 21.4708 21.9624 20.4477 21.5416C19.4246 21.1208 18.4015 20.685 17.3784 20.2342C16.3552 19.7833 15.4826 19.1672 14.7604 18.3857C14.0683 17.5742 13.7222 16.6124 13.7222 15.5003C13.7222 13.7871 14.3541 12.4496 15.618 11.4878C16.9119 10.4959 18.5369 10 20.4928 10C22.5391 10 24.5251 10.4508 26.451 11.3525V14.283C24.4349 13.1409 22.5993 12.5698 20.9442 12.5698C18.3864 12.5698 17.1075 13.5166 17.1075 15.4101C17.1075 16.5523 18.3112 17.5892 20.7185 18.521C21.7116 18.9117 22.494 19.2423 23.0657 19.5128C23.6374 19.7833 24.3145 20.1741 25.0969 20.685C25.8793 21.196 26.451 21.8121 26.8121 22.5335C27.2033 23.2248 27.3989 24.0363 27.3989 24.9681C27.3989 26.7714 26.7068 28.2141 25.3226 29.2962C23.9384 30.3782 22.1178 30.9192 19.8609 30.9192C17.1527 30.9192 14.8657 30.3632 13 29.2511Z" fill="white"/>
</svg>
