<svg width="20" height="14" viewBox="0 0 20 14" fill="none" xmlns="http://www.w3.org/2000/svg">
<path d="M9.99973 4.70813C8.49517 4.70813 7.27246 5.86383 7.27246 7.28592C7.27246 8.70801 8.49517 9.86371 9.99973 9.86371C11.5043 9.86371 12.727 8.70801 12.727 7.28592C12.727 5.86383 11.5042 4.70813 9.99973 4.70813Z" fill="#979EA6"/>
<path d="M10 0.841309C5.45454 0.841309 1.57274 3.51365 0 7.28592C1.57274 11.0582 5.45454 13.7305 10 13.7305C14.55 13.7305 18.4273 11.0582 20 7.28592C18.4273 3.51365 14.55 0.841309 10 0.841309ZM10 11.5823C7.49091 11.5823 5.45454 9.6575 5.45454 7.28588C5.45454 4.91426 7.49091 2.9895 10 2.9895C12.5091 2.9895 14.5455 4.9143 14.5455 7.28592C14.5455 9.65754 12.5091 11.5823 10 11.5823Z" fill="#979EA6"/>
</svg>
