<svg width="16" height="16" viewBox="0 0 16 16" fill="none" xmlns="http://www.w3.org/2000/svg">
<rect width="16" height="16" rx="4" fill="#263238"/>
<path d="M5.44301 11.8344C5.28959 11.7564 5.20001 11.595 5.20001 11.4229V11.4229C5.20001 11.0256 5.65611 10.7871 6.01469 10.9581C6.59862 11.2366 7.1937 11.3758 7.79994 11.3758C9.02768 11.3758 9.64156 10.955 9.64156 10.1135C9.64156 9.77683 9.49712 9.48829 9.20824 9.24784C8.93139 8.99536 8.58835 8.78497 8.1791 8.61665C7.76985 8.44834 7.3606 8.27401 6.95135 8.09367C6.54211 7.91334 6.19304 7.66687 5.90416 7.35429C5.62732 7.02968 5.48889 6.64496 5.48889 6.20012C5.48889 5.51484 5.74166 4.97984 6.24721 4.59512C6.76478 4.19837 7.41477 4 8.19715 4C8.91319 4 9.61081 4.13802 10.29 4.41405C10.4692 4.48687 10.5804 4.66458 10.5804 4.858V4.858C10.5804 5.23988 10.1663 5.4816 9.81233 5.33826C9.30142 5.13137 8.82321 5.02793 8.3777 5.02793C7.35458 5.02793 6.84302 5.40664 6.84302 6.16406C6.84302 6.62091 7.32449 7.03569 8.28743 7.40839C8.68464 7.56468 8.99759 7.69693 9.22629 7.80513C9.45499 7.91334 9.72581 8.06963 10.0388 8.27401C10.3517 8.47839 10.5804 8.72486 10.7249 9.0134C10.8813 9.28992 10.9596 9.61452 10.9596 9.98722C10.9596 10.7086 10.6827 11.2857 10.129 11.7185C9.57536 12.1513 8.84713 12.3677 7.94438 12.3677C6.97591 12.3677 6.14212 12.1899 5.44301 11.8344Z" fill="white"/>
</svg>
