<?xml version="1.0" standalone="no"?>
<!DOCTYPE svg PUBLIC "-//W3C//DTD SVG 20010904//EN"
 "http://www.w3.org/TR/2001/REC-SVG-20010904/DTD/svg10.dtd">
<svg version="1.0" xmlns="http://www.w3.org/2000/svg"
 width="700.000000pt" height="700.000000pt" viewBox="0 0 700.000000 700.000000"
 preserveAspectRatio="xMidYMid meet">
<metadata>
Created by potrace 1.11, written by Peter Selinger 2001-2013
</metadata>
<g transform="translate(0.000000,700.000000) scale(0.100000,-0.100000)"
fill="#000000" stroke="none">
<path d="M1553 6989 c-701 -83 -1274 -561 -1477 -1233 -76 -249 -71 -93 -71
-2261 l0 -1940 23 -117 c131 -684 628 -1216 1292 -1383 222 -56 174 -55 2180
-55 2006 0 1958 -1 2180 55 715 180 1234 784 1310 1525 8 72 10 693 8 1990
l-3 1885 -23 113 c-94 473 -359 875 -745 1133 -201 134 -416 223 -657 271
l-115 23 -1915 1 c-1053 1 -1947 -2 -1987 -7z m2377 -1764 c213 -32 500 -114
597 -171 62 -36 98 -102 98 -179 -1 -97 -45 -163 -135 -204 -73 -33 -131 -28
-298 29 -233 78 -324 94 -537 94 -151 0 -194 -4 -267 -22 -93 -23 -190 -67
-245 -111 -134 -105 -187 -344 -111 -500 62 -128 261 -266 561 -387 399 -162
525 -222 712 -339 213 -133 307 -226 389 -385 77 -149 91 -215 90 -430 0 -172
-2 -191 -27 -273 -51 -164 -123 -282 -248 -403 -202 -195 -469 -307 -824 -345
-122 -13 -435 -7 -575 11 -235 30 -476 96 -650 177 -144 67 -180 110 -180 218
0 86 44 155 125 198 31 17 57 21 115 21 66 0 86 -5 165 -41 349 -157 770 -202
1100 -118 258 65 397 205 427 428 14 106 2 192 -42 285 -54 116 -255 289 -450
387 -36 18 -138 63 -225 100 -457 192 -559 240 -680 320 -205 137 -332 297
-387 492 -18 64 -22 103 -22 218 0 158 21 264 74 381 138 305 490 519 935 568
80 8 413 -4 515 -19z"/>
</g>
</svg>
